<svg viewBox="0 0 56 50" xmlns="http://www.w3.org/2000/svg">
<path d="M55.0667 28.7334H54.1333V25.9334C54.1309 24.08 53.032 22.4038 51.3333 21.6625V7.26673C51.3331 6.89573 51.1133 6.5602 50.7733 6.4118C51.1375 5.82823 51.3313 5.1546 51.3333 4.46673C51.3333 2.40488 49.6618 0.733398 47.6 0.733398C45.5382 0.733398 43.8667 2.40488 43.8667 4.46673C43.8705 5.12403 44.0497 5.76838 44.3856 6.3334H11.6144C11.9503 5.76838 12.1295 5.12403 12.1333 4.46673C12.1333 2.40488 10.4619 0.733398 8.4 0.733398C6.33815 0.733398 4.66667 2.40488 4.66667 4.46673C4.66865 5.1546 4.86255 5.82823 5.22667 6.4118C4.8867 6.5602 4.6669 6.89573 4.66667 7.26673V21.6625C2.968 22.4038 1.86912 24.08 1.86667 25.9334V28.7334H0.933333C0.4179 28.7334 0 29.1513 0 29.6667V42.7334C0 43.2488 0.4179 43.6667 0.933333 43.6667H1.86667V48.3334C1.86667 48.8488 2.28457 49.2667 2.8 49.2667H6.53333C7.04877 49.2667 7.46667 48.8488 7.46667 48.3334V43.6667H48.5333V48.3334C48.5333 48.8488 48.9512 49.2667 49.4667 49.2667H53.2C53.7154 49.2667 54.1333 48.8488 54.1333 48.3334V43.6667H55.0667C55.5821 43.6667 56 43.2488 56 42.7334V29.6667C56 29.1513 55.5821 28.7334 55.0667 28.7334ZM47.6 2.60007C48.631 2.60007 49.4667 3.43575 49.4667 4.46673C49.4667 5.49771 48.631 6.3334 47.6 6.3334C46.569 6.3334 45.7333 5.49771 45.7333 4.46673C45.7333 3.43575 46.569 2.60007 47.6 2.60007ZM8.4 2.60007C9.43098 2.60007 10.2667 3.43575 10.2667 4.46673C10.2667 5.49771 9.43098 6.3334 8.4 6.3334C7.36902 6.3334 6.53333 5.49771 6.53333 4.46673C6.53333 3.43575 7.36902 2.60007 8.4 2.60007ZM6.53333 8.20007H49.4667V21.2667H45.7091C46.3267 20.4637 46.6633 19.4799 46.6667 18.4667V16.6001C46.6636 14.0241 44.576 11.9364 42 11.9334H34.5333C31.9573 11.9364 29.8697 14.0241 29.8667 16.6001V18.4667C29.8701 19.4799 30.2066 20.4637 30.8243 21.2667H25.1757C25.7934 20.4637 26.1299 19.4799 26.1333 18.4667V16.6001C26.1303 14.0241 24.0427 11.9364 21.4667 11.9334H14C11.424 11.9364 9.33637 14.0241 9.33333 16.6001V18.4667C9.33672 19.4799 9.6733 20.4637 10.2909 21.2667H6.53333V8.20007ZM44.8 16.6001V18.4667C44.8 20.0131 43.5464 21.2667 42 21.2667H34.5333C32.9869 21.2667 31.7333 20.0131 31.7333 18.4667V16.6001C31.7333 15.0536 32.9869 13.8001 34.5333 13.8001H42C43.5464 13.8001 44.8 15.0536 44.8 16.6001ZM24.2667 16.6001V18.4667C24.2667 20.0131 23.0131 21.2667 21.4667 21.2667H14C12.4536 21.2667 11.2 20.0131 11.2 18.4667V16.6001C11.2 15.0536 12.4536 13.8001 14 13.8001H21.4667C23.0131 13.8001 24.2667 15.0536 24.2667 16.6001ZM3.73333 25.9334C3.73333 24.387 4.98692 23.1334 6.53333 23.1334H49.4667C51.0131 23.1334 52.2667 24.387 52.2667 25.9334V28.7334H3.73333V25.9334ZM5.6 47.4001H3.73333V43.6667H5.6V47.4001ZM52.2667 47.4001H50.4V43.6667H52.2667V47.4001ZM54.1333 41.8001H1.86667V30.6001H54.1333V41.8001Z"/>
</svg>
