<svg viewBox="0 0 56 30" xmlns="http://www.w3.org/2000/svg">
<path d="M0 7.53063V4.73063C0 4.2152 0.4179 3.7973 0.933334 3.7973H26.6803L30.4136 0.0639648H46.1197L49.8531 3.7973H55.0667C55.5821 3.7973 56 4.2152 56 4.73063V25.264C56 25.7794 55.5821 26.1973 55.0667 26.1973H50.3067C49.7938 28.7231 47.3305 30.3548 44.8047 29.842C42.9682 29.4691 41.5329 28.0338 41.16 26.1973H39.1067C38.5938 28.7231 36.1305 30.3548 33.6047 29.842C31.7682 29.4691 30.3329 28.0338 29.96 26.1973H14.84C14.3271 28.7231 11.8638 30.3548 9.338 29.842C7.50155 29.4691 6.0662 28.0338 5.69333 26.1973H0.933334C0.4179 26.1973 0 25.7794 0 25.264V15.9306C0 15.9176 0.00746536 15.9045 0.00746536 15.8914C0.0096817 15.7818 0.031498 15.6733 0.0718651 15.5713L4.2 5.66396H1.86666V7.53063H0ZM22.4 5.66396H14.9333V13.1306H22.4V5.66396ZM24.2667 5.66396V13.1306H31.7333V5.66396H24.2667ZM45.3469 1.93063H31.1864L29.3197 3.7973H47.2136L45.3469 1.93063ZM33.6 5.66396V13.1306H41.0667V5.66396H33.6ZM50.4 5.66396H42.9333V13.1306H50.4V5.66396ZM54.1333 18.7306H52.2667V20.5973H54.1333V18.7306ZM45.7333 28.064C47.2797 28.064 48.5333 26.8104 48.5333 25.264C48.5333 23.7176 47.2797 22.464 45.7333 22.464C44.1869 22.464 42.9333 23.7176 42.9333 25.264C42.9333 26.8104 44.1869 28.064 45.7333 28.064ZM34.5333 28.064C36.0798 28.064 37.3333 26.8104 37.3333 25.264C37.3333 23.7176 36.0798 22.464 34.5333 22.464C32.9869 22.464 31.7333 23.7176 31.7333 25.264C31.7333 26.8104 32.9869 28.064 34.5333 28.064ZM10.2667 28.064C11.8131 28.064 13.0667 26.8104 13.0667 25.264C13.0667 23.7176 11.8131 22.464 10.2667 22.464C8.72025 22.464 7.46667 23.7176 7.46667 25.264C7.46667 26.8104 8.72025 28.064 10.2667 28.064ZM1.86666 20.5973H3.73333V22.464H1.86666V24.3306H5.69333C5.69333 24.3138 5.70453 24.298 5.70827 24.2812C5.7659 24.0157 5.84675 23.7558 5.95 23.5046C5.9864 23.4113 6.03587 23.3329 6.07787 23.2461C6.1572 23.0734 6.24691 22.9057 6.34666 22.744C6.4064 22.6506 6.47453 22.5657 6.5408 22.478C6.64347 22.3384 6.75372 22.2048 6.8712 22.0776C6.9496 21.9945 7.0308 21.917 7.1148 21.8396C7.2401 21.7242 7.37158 21.6158 7.50866 21.5148C7.602 21.4466 7.69534 21.3813 7.78867 21.3206C7.93929 21.2281 8.09515 21.1442 8.25533 21.0696C8.35427 21.022 8.4504 20.9716 8.55307 20.9305C8.73589 20.8612 8.9229 20.8034 9.11307 20.7578C9.2064 20.7336 9.2932 20.7018 9.3884 20.6832C9.97348 20.5636 10.5766 20.5636 11.1617 20.6832C11.2551 20.7018 11.3484 20.7336 11.4371 20.7578C11.6272 20.8034 11.8143 20.8612 11.9971 20.9305C12.0997 20.9716 12.1959 21.0238 12.2948 21.0696C12.455 21.1442 12.6109 21.2281 12.7615 21.3206C12.8548 21.3813 12.9481 21.4476 13.0415 21.5148C13.1786 21.6158 13.31 21.7242 13.4353 21.8396C13.5193 21.917 13.6005 21.9945 13.6789 22.0776C13.7964 22.2048 13.9067 22.3384 14.0093 22.478C14.0756 22.5657 14.1437 22.6516 14.2035 22.744C14.303 22.9036 14.3927 23.0691 14.4723 23.2396C14.5143 23.3264 14.5656 23.4085 14.6001 23.4981C14.7034 23.7494 14.7842 24.0092 14.8419 24.2746C14.8419 24.2914 14.8531 24.3073 14.8568 24.3241H29.96C29.96 24.3073 29.9712 24.2914 29.9749 24.2746C30.0326 24.0092 30.1134 23.7494 30.2167 23.4981C30.2531 23.4048 30.3025 23.3264 30.3445 23.2396C30.4241 23.0691 30.5138 22.9036 30.6133 22.744C30.6731 22.6506 30.7412 22.5657 30.8075 22.478C30.9101 22.3384 31.0204 22.2048 31.1379 22.0776C31.2163 21.9945 31.2975 21.917 31.3815 21.8396C31.5068 21.7242 31.6383 21.6158 31.7753 21.5148C31.8687 21.4466 31.962 21.3813 32.0553 21.3206C32.2059 21.2281 32.3618 21.1442 32.522 21.0696C32.6209 21.022 32.7171 20.9716 32.8197 20.9305C33.0026 20.8612 33.1896 20.8034 33.3797 20.7578C33.4731 20.7336 33.5599 20.7018 33.6551 20.6832C34.2402 20.5636 34.8433 20.5636 35.4284 20.6832C35.5217 20.7018 35.6151 20.7336 35.7037 20.7578C35.8939 20.8034 36.0809 20.8612 36.2637 20.9305C36.3664 20.9716 36.4625 21.0238 36.5615 21.0696C36.7217 21.1442 36.8775 21.2281 37.0281 21.3206C37.1215 21.3813 37.2148 21.4476 37.3081 21.5148C37.4452 21.6158 37.5767 21.7242 37.702 21.8396C37.786 21.917 37.8672 21.9945 37.9456 22.0776C38.0631 22.2048 38.1733 22.3384 38.276 22.478C38.3423 22.5657 38.4104 22.6516 38.4701 22.744C38.5697 22.9036 38.6594 23.0691 38.7389 23.2396C38.7809 23.3264 38.8323 23.4085 38.8668 23.4981C38.97 23.7494 39.0509 24.0092 39.1085 24.2746C39.1085 24.2914 39.1197 24.3073 39.1235 24.3241H41.16C41.16 24.3073 41.1712 24.2914 41.1749 24.2746C41.2326 24.0092 41.3134 23.7494 41.4167 23.4981C41.4531 23.4048 41.5025 23.3264 41.5445 23.2396C41.6241 23.0691 41.7138 22.9036 41.8133 22.744C41.8731 22.6506 41.9412 22.5657 42.0075 22.478C42.1101 22.3384 42.2204 22.2048 42.3379 22.0776C42.4163 21.9945 42.4975 21.917 42.5815 21.8396C42.7068 21.7242 42.8383 21.6158 42.9753 21.5148C43.0687 21.4466 43.162 21.3813 43.2553 21.3206C43.406 21.2281 43.5618 21.1442 43.722 21.0696C43.8209 21.022 43.9171 20.9716 44.0197 20.9305C44.2025 20.8612 44.3896 20.8034 44.5797 20.7578C44.6731 20.7336 44.7599 20.7018 44.8551 20.6832C45.4402 20.5636 46.0433 20.5636 46.6284 20.6832C46.7217 20.7018 46.8151 20.7336 46.9037 20.7578C47.0939 20.8034 47.2809 20.8612 47.4637 20.9305C47.5664 20.9716 47.6625 21.0238 47.7615 21.0696C47.9216 21.1442 48.0775 21.2281 48.2281 21.3206C48.3215 21.3813 48.4148 21.4476 48.5081 21.5148C48.6452 21.6158 48.7767 21.7242 48.902 21.8396C48.986 21.917 49.0672 21.9945 49.1456 22.0776C49.2631 22.2048 49.3733 22.3384 49.476 22.478C49.5423 22.5657 49.6104 22.6516 49.6701 22.744C49.7696 22.9036 49.8594 23.0691 49.9389 23.2396C49.9809 23.3264 50.0323 23.4085 50.0668 23.4981C50.1701 23.7494 50.2509 24.0092 50.3085 24.2746C50.3085 24.2914 50.3197 24.3073 50.3235 24.3241H54.1333V22.464H51.3333C50.8179 22.464 50.4 22.0461 50.4 21.5306V17.7973C50.4 17.2819 50.8179 16.864 51.3333 16.864H54.1333V5.66396H52.2667V14.064C52.2667 14.5794 51.8488 14.9973 51.3333 14.9973H14.0653L1.86666 16.7398V20.5973ZM2.42667 14.7742L13.0667 13.2548V5.66396H6.22253L2.42667 14.7742Z"/>
</svg>
