<svg viewBox="0 0 55 51" xmlns="http://www.w3.org/2000/svg">
<path d="M50.3115 37.9634C53.0108 37.5291 54.9966 35.201 54.9998 32.467V26.8935C54.9998 26.3805 54.5838 25.9645 54.0709 25.9645H28.0454C27.5324 25.9645 27.1165 26.3805 27.1165 26.8935V35.2537H25.2744V12.9597C25.2747 12.8342 25.249 12.7099 25.1992 12.5946L22.4877 6.27151V1.81271C22.4877 1.29971 22.0718 0.883789 21.5588 0.883789H4.83827C4.32527 0.883789 3.90935 1.29971 3.90935 1.81271V6.27151L1.19784 12.5974C1.14838 12.7118 1.12283 12.8351 1.1226 12.9597V44.8708C-0.152804 45.8724 -0.374699 47.7183 0.626906 48.9937C1.18449 49.7037 2.0377 50.1178 2.94049 50.1164H48.4974C48.8512 50.1183 49.1752 49.9191 49.3334 49.6027L50.9293 46.4007H54.9998V44.5429H46.6051C48.7166 42.9735 50.0635 40.5824 50.3115 37.9634ZM50.3552 27.8224H53.1419V32.467C53.1355 34.1561 51.9908 35.6284 50.3552 36.0507V27.8224ZM22.9373 12.0308H20.1803L21.5588 8.81581L22.9373 12.0308ZM23.4166 13.8886V35.2537H19.7009V13.8886H23.4166ZM5.76718 2.74162H20.6298V5.52837H5.76718V2.74162ZM5.45042 7.38621H20.1505L18.1599 12.0308H3.45975L5.45042 7.38621ZM2.98043 13.8886H17.8431V35.2537H15.8692C15.02 35.2535 14.2123 35.6203 13.6537 36.2597C13.4159 36.5376 13.2324 36.8577 13.1131 37.2035L8.59295 38.4947C7.4426 38.8325 6.61075 39.8325 6.48802 41.0251L2.98043 43.5304V13.8886ZM2.94049 48.2585C2.47313 48.2591 2.05837 47.9593 1.91218 47.5154C1.75972 47.064 1.92135 46.5661 2.30975 46.2902L6.75834 43.1123L7.78758 48.2585H2.94049ZM9.68164 48.2585L8.33749 41.535C8.22997 40.9818 8.56183 40.4378 9.10292 40.2801L13.0304 39.1579L14.2621 48.2585H9.68164ZM16.1376 48.2585L14.7944 38.3386C14.7154 37.7452 15.1324 37.2 15.7259 37.1211C15.7734 37.1148 15.8212 37.1115 15.8692 37.1115H27.1174C27.1253 40.0412 28.5148 42.7956 30.8665 44.5429H23.4166V46.4007H27.4871L28.416 48.2585H16.1376ZM48.8522 46.4007L47.9233 48.2585H30.4931L29.5642 46.4007H48.8522ZM41.0502 44.5429H36.4214C32.3106 44.5378 28.9794 41.2066 28.9743 37.0957V27.8224H48.4974V37.0957C48.4928 41.2068 45.1613 44.5382 41.0502 44.5429Z"/>
</svg>
