<svg viewBox="0 0 25 48" xmlns="http://www.w3.org/2000/svg">
<path d="M8.79091 11.8616V14.9678C8.79091 17.1407 10.5587 18.9085 12.7316 18.9085C14.9044 18.9085 16.6721 17.1407 16.6721 14.9678C16.6721 14.4219 17.1145 13.9795 17.6604 13.9795C18.2063 13.9795 18.6487 14.4219 18.6487 14.9678C18.6487 18.2306 15.9943 20.8852 12.7316 20.8852C9.46879 20.8852 6.81425 18.2307 6.81425 14.9678V11.8616C6.81425 11.3157 7.25669 10.8733 7.80258 10.8733C8.34846 10.8733 8.79091 11.3157 8.79091 11.8616ZM3.50653 17.015C4.05241 17.015 4.49486 16.5725 4.49486 16.0266V10.2133C4.49486 5.67159 8.18967 1.97666 12.7317 1.97666C17.1057 1.97666 20.6942 5.40397 20.9531 9.71418C20.963 9.87935 20.968 10.4572 20.968 10.4572C19.6007 9.62666 17.7701 9.33423 16.075 9.06331C12.7051 8.52489 11.2388 8.09574 11.3392 6.24734C11.3689 5.70233 10.951 5.23639 10.4059 5.20685C9.86028 5.17808 9.395 5.59516 9.36546 6.14016C9.27179 7.86348 10.0011 9.13535 11.5331 9.92053C12.7204 10.5291 14.2671 10.7762 15.7631 11.0153C18.5761 11.4647 20.4742 11.8782 20.968 13.4003V16.0268C20.968 17.3578 20.109 19.2537 18.9255 20.5346C18.5551 20.9356 18.5798 21.5609 18.9807 21.9313C19.1707 22.107 19.4113 22.1937 19.6511 22.1937C19.9172 22.1937 20.1825 22.0869 20.3772 21.876C21.9127 20.214 22.9446 17.8633 22.9446 16.0268V13.2751C22.9448 13.2639 22.9448 13.2527 22.9446 13.2414V10.2133C22.9447 4.58168 18.3632 0 12.7314 0C7.09977 0 2.5182 4.58168 2.5182 10.2133V16.0266C2.5182 16.5725 2.96064 17.015 3.50653 17.015ZM23.8542 28.5141C22.9731 27.0096 21.3787 25.8987 19.6933 25.6149L16.4321 25.0656C15.9184 24.9792 15.4249 25.3066 15.3058 25.8143L11.7692 40.8818C11.6444 41.4132 11.9741 41.9452 12.5055 42.0698C13.0371 42.1948 13.5688 41.8649 13.6935 41.3335L17.0181 27.1686L19.3648 27.564C20.4884 27.7533 21.5551 28.5 22.1484 29.513C22.5986 30.2817 22.7031 31.1054 22.4425 31.8322L17.3535 46.0231H7.30424L2.21533 31.8325C1.95474 31.1055 2.05917 30.2817 2.50952 29.513C3.10274 28.5 4.16926 27.7534 5.2931 27.5641L7.6518 27.1668L9.58333 32.8444C9.75925 33.3613 10.3208 33.6377 10.8373 33.4618C11.3541 33.286 11.6305 32.7246 11.4547 32.2078L9.25235 25.7342C9.0963 25.2753 8.63047 24.9976 8.15245 25.0779L4.96464 25.6149C3.27932 25.8987 1.68504 27.0096 0.803775 28.5139C0.523968 28.9916 0.326302 29.4876 0.212204 29.9887C0.11414 30.4193 0.0966797 32.6752 0.0966797 32.6752V47.0114C0.0966797 47.5573 0.539122 47.9998 1.08501 47.9998C1.6309 47.9998 2.07334 47.5573 2.07334 47.0114V37.2921L5.67833 47.3451C5.81911 47.7378 6.19149 47.9998 6.60868 47.9998H18.0491C18.4663 47.9998 18.8386 47.7378 18.9795 47.3451L22.5845 37.2923V47.0114C22.5845 47.5573 23.0269 47.9998 23.5728 47.9998C24.1187 47.9998 24.5611 47.5573 24.5611 47.0114V32.8949C24.5611 32.8949 24.5648 30.9667 24.5575 30.8076C24.5222 30.0323 24.2858 29.2513 23.8542 28.5141ZM4.5267 31.016V31.7874C4.5267 32.3333 4.96915 32.7758 5.51503 32.7758C6.06092 32.7758 6.50336 32.3333 6.50336 31.7874V31.016C6.50336 30.4701 6.06092 30.0277 5.51503 30.0277C4.96915 30.0277 4.5267 30.4702 4.5267 31.016Z" />
</svg>
