<svg viewBox="0 0 16 14" xmlns="http://www.w3.org/2000/svg">
<path d="M14.5712 13.2856C14.9309 13.2856 15.2425 13.1669 15.5075 12.9324L10.9744 8.39917C10.8656 8.47705 10.7602 8.55278 10.6606 8.62479C10.3214 8.87473 10.0461 9.06976 9.83467 9.20952C9.62328 9.34959 9.34203 9.49237 8.99094 9.63813C8.63963 9.78408 8.31233 9.85682 8.00871 9.85682H7.99982H7.99094C7.68729 9.85682 7.35999 9.78411 7.0087 9.63813C6.65741 9.49237 6.37616 9.34959 6.16498 9.20952C5.95359 9.06976 5.67841 8.87476 5.339 8.62479C5.24442 8.55545 5.13952 8.47937 5.02611 8.39795L0.492188 12.9324C0.757085 13.1669 1.06892 13.2856 1.42855 13.2856H14.5712Z" />
<path d="M0.901882 5.54495C0.562678 5.3188 0.261876 5.0598 0 4.76807V11.665L3.99542 7.66959C3.19611 7.11156 2.16624 6.40416 0.901882 5.54495Z" />
<path d="M15.1071 5.54495C13.891 6.36808 12.8573 7.0767 12.0061 7.67119L15.9999 11.6652V4.76807C15.7439 5.05394 15.4463 5.31276 15.1071 5.54495Z" />
<path d="M14.5714 0.714355H1.42872C0.970217 0.714355 0.617708 0.869186 0.370763 1.17853C0.123615 1.48802 0.000244141 1.87506 0.000244141 2.33924C0.000244141 2.71417 0.163964 3.12042 0.491258 3.5581C0.818552 3.9956 1.16682 4.33925 1.53589 4.58922C1.73821 4.73217 2.34836 5.15634 3.36632 5.86159C3.91584 6.24239 4.39372 6.57431 4.80438 6.86073C5.15442 7.10462 5.4563 7.31584 5.70554 7.49112C5.73415 7.51119 5.77915 7.54338 5.83887 7.58608C5.90322 7.6323 5.98464 7.69095 6.08509 7.76348C6.27853 7.90338 6.43923 8.01647 6.56722 8.10286C6.69503 8.18928 6.84989 8.28581 7.03156 8.393C7.21309 8.50005 7.38431 8.58054 7.545 8.63408C7.70573 8.68759 7.85452 8.71443 7.9914 8.71443H8.00029H8.00918C8.14603 8.71443 8.29484 8.68759 8.4556 8.63408C8.61627 8.58054 8.78734 8.50022 8.96901 8.393C9.15051 8.28581 9.30517 8.18908 9.43339 8.10286C9.56138 8.01647 9.72208 7.90341 9.91554 7.76348C10.0158 7.69095 10.0972 7.63227 10.1616 7.58623C10.2213 7.54335 10.2663 7.51137 10.2951 7.49112C10.4892 7.35601 10.7918 7.14567 11.1986 6.8632C11.9388 6.34889 13.029 5.5919 14.4736 4.58922C14.9081 4.28575 15.2711 3.91953 15.5629 3.49108C15.8541 3.06264 16.0001 2.61322 16.0001 2.14298C16.0001 1.75009 15.8585 1.41391 15.576 1.13391C15.2932 0.854255 14.9583 0.714355 14.5714 0.714355Z" />
</svg>
