<svg viewBox="0 0 11 18"  xmlns="http://www.w3.org/2000/svg">
<path d="M4.51825 12.6785C3.12283 12.5329 1.86465 12.1893 0.787451 11.3468C0.653791 11.242 0.515795 11.1409 0.393823 11.0238C-0.0776639 10.571 -0.125171 10.0524 0.247909 9.51795C0.567072 9.0606 1.10284 8.93826 1.65973 9.20086C1.76756 9.25176 1.87031 9.31529 1.96871 9.38354C3.97625 10.7629 6.7341 10.801 8.74918 9.44556C8.94883 9.29248 9.16223 9.16768 9.40957 9.10396C9.89048 8.98048 10.339 9.15713 10.5971 9.5779C10.8919 10.0584 10.8881 10.5275 10.5248 10.9006C9.96758 11.4725 9.2974 11.8863 8.55275 12.1751C7.84863 12.4481 7.0774 12.5855 6.31408 12.6768C6.42927 12.8021 6.48356 12.8638 6.55557 12.9362C7.59205 13.9776 8.63306 15.0146 9.66614 16.0592C10.0181 16.4151 10.0916 16.8564 9.89783 17.2704C9.68594 17.7229 9.21162 18.0205 8.74655 17.9887C8.45189 17.9683 8.22208 17.8217 8.01792 17.616C7.23575 16.8289 6.43888 16.0564 5.67255 15.2544C5.44953 15.0212 5.34226 15.0653 5.14545 15.2678C4.35857 16.0779 3.55887 16.8755 2.75446 17.6686C2.39326 18.0247 1.96343 18.0888 1.54454 17.8854C1.09926 17.6695 0.815917 17.215 0.837786 16.7582C0.852867 16.4492 1.00481 16.2132 1.2169 16.0015C2.24263 14.9773 3.26554 13.9504 4.28882 12.9245C4.3565 12.8562 4.41965 12.7839 4.51825 12.6785Z" />
<path d="M5.36829 9.11096C2.8789 9.10248 0.837612 7.03876 0.852128 4.5454C0.866455 2.02453 2.90906 -0.0069573 5.42297 1.79086e-05C7.94196 0.0068046 9.96383 2.06751 9.9512 4.61459C9.93838 7.10285 7.88295 9.11963 5.36829 9.11096ZM7.63071 4.55144C7.62638 3.31343 6.64042 2.32785 5.40487 2.32672C4.15894 2.3254 3.16413 3.32889 3.17374 4.57821C3.18298 5.8115 4.17742 6.7901 5.41637 6.78558C6.65155 6.78124 7.63486 5.78925 7.63071 4.55144Z"/>
</svg>
