<svg viewBox="0 0 16 16" xmlns="http://www.w3.org/2000/svg">
<path d="M15.8829 12.8229L12.5484 9.48856C12.395 9.33517 12.1463 9.33517 11.993 9.48856L10.2413 11.2403C9.76505 11.1087 8.49929 10.6454 7.043 9.18966C5.5321 7.6786 4.91994 6.17249 4.76809 5.74658L6.50958 4.00509C6.58336 3.93148 6.62479 3.83151 6.62479 3.72726C6.62479 3.623 6.58336 3.5232 6.50958 3.44959L3.17503 0.115038C3.02164 -0.0383459 2.77291 -0.0383459 2.61953 0.115038L0.670389 2.06435C0.645053 2.08951 0.623655 2.11793 0.606023 2.14908L0.602428 2.15319C-0.949383 4.06039 0.603969 8.32363 4.13915 11.859C6.65492 14.3746 9.70308 16 11.9051 16C12.6911 16 13.3384 15.8009 13.8295 15.408L13.8754 15.3765C13.8954 15.3628 13.9139 15.3476 13.9309 15.3303L15.8829 13.3783C15.9567 13.3045 15.9981 13.2045 15.9981 13.1006C15.9981 12.9965 15.9565 12.8967 15.8829 12.8229Z"/>
</svg>
