<svg viewBox="0 0 20 13" fill="none" xmlns="http://www.w3.org/2000/svg">
<path d="M19.8591 4.6711C19.821 4.62475 18.905 3.52201 17.2409 2.41883C15.0293 0.952573 12.5255 0.177612 10.0001 0.177612C7.4748 0.177612 4.97096 0.952573 2.75931 2.41877C1.09507 3.52201 0.178973 4.62475 0.140859 4.6711C-0.0469529 4.89938 -0.0469529 5.21317 0.140859 5.44145C0.174327 5.48215 0.882879 6.33489 2.1787 7.2881L1.23635 9.00597C1.06241 9.32301 1.20342 9.70862 1.55136 9.86711C1.65244 9.91321 1.75985 9.935 1.86571 9.935C2.12402 9.935 2.37271 9.80499 2.49608 9.58002L3.33305 8.05435C4.04988 8.4817 4.79359 8.83901 5.55588 9.12315L4.72227 10.6429C4.54833 10.9599 4.68934 11.3455 5.03729 11.5041C5.13837 11.5501 5.24584 11.5719 5.35163 11.5719C5.60995 11.5719 5.8587 11.4419 5.98207 11.2169L6.89998 9.5435C7.68786 9.74398 8.48948 9.86883 9.29581 9.91474V11.4113C9.29581 11.7658 9.61116 12.0533 10.0001 12.0533C10.3889 12.0533 10.7043 11.7658 10.7043 11.4113V9.91474C11.5108 9.86883 12.3122 9.74398 13.1001 9.5435L14.018 11.2169C14.1415 11.4419 14.3901 11.5719 14.6485 11.5719C14.7543 11.5719 14.8618 11.5501 14.9628 11.5041C15.3108 11.3455 15.4518 10.9599 15.2778 10.6429L14.4442 9.12321C15.2066 8.83901 15.9502 8.4817 16.6671 8.05429L17.504 9.58002C17.6274 9.80499 17.876 9.935 18.1344 9.935C18.2403 9.935 18.3477 9.91321 18.4488 9.86711C18.7967 9.70862 18.9377 9.32301 18.7638 9.00597L17.8215 7.28804C19.1174 6.33488 19.8257 5.48215 19.8592 5.44145C20.0469 5.21317 20.0469 4.89938 19.8591 4.6711ZM16.3749 6.68023C14.3874 7.98799 12.2427 8.65105 10.0001 8.65105C7.75749 8.65105 5.61278 7.98793 3.62517 6.68023C2.68928 6.06449 2.00914 5.4417 1.62645 5.05628C2.00934 4.67061 2.68941 4.04788 3.62517 3.43226C5.61278 2.1245 7.75749 1.4615 10.0001 1.4615C12.2427 1.4615 14.3874 2.12456 16.3749 3.43226C17.3108 4.048 17.9909 4.67079 18.3736 5.05628C17.9907 5.44188 17.3106 6.06462 16.3749 6.68023Z"/>
</svg>
