<svg viewBox="0 0 14 16" xmlns="http://www.w3.org/2000/svg">
<path d="M7.00031 7.82505C8.77924 7.82505 10.2215 6.07337 10.2215 3.91255C10.2215 1.75168 9.74797 0 7.00031 0C4.25265 0 3.77905 1.75168 3.77905 3.91255C3.77905 6.07337 5.22129 7.82505 7.00031 7.82505Z" />
<path d="M13.0849 13.7991C13.0843 13.6673 13.0838 13.7619 13.0849 13.7991V13.7991Z" />
<path d="M0.915283 13.9019C0.917003 13.8659 0.915872 13.6517 0.915283 13.9019V13.9019Z" />
<path d="M13.0775 13.641C13.0178 9.87682 12.5262 8.80422 8.76426 8.12527C8.76426 8.12527 8.2347 8.80006 7.00042 8.80006C5.76613 8.80006 5.23649 8.12527 5.23649 8.12527C1.51557 8.79682 0.994065 9.85351 0.925494 13.5187C0.919871 13.818 0.917265 13.8338 0.91626 13.799C0.916488 13.8641 0.916763 13.9845 0.916763 14.1945C0.916763 14.1945 1.8124 16 7.00042 16C12.1884 16 13.0841 14.1945 13.0841 14.1945C13.0841 14.0596 13.0842 13.9658 13.0843 13.902C13.0833 13.9235 13.0813 13.8818 13.0775 13.641Z" />
</svg>
