<svg viewBox="0 0 10 10" xmlns="http://www.w3.org/2000/svg">
<path d="M5 2.5C4.655 2.5 4.375 2.78 4.375 3.125C4.375 3.47 4.655 3.75 5 3.75C5.345 3.75 5.625 3.47031 5.625 3.125C5.625 2.77969 5.34531 2.5 5 2.5ZM5 4.375C4.655 4.375 4.375 4.65469 4.375 5V6.875C4.375 7.22 4.655 7.5 5 7.5C5.345 7.5 5.625 7.22 5.625 6.875V5C5.625 4.655 5.34531 4.375 5 4.375ZM5 0C2.24312 0 0 2.24312 0 5C0 7.75688 2.24312 10 5 10C7.75688 10 10 7.75688 10 5C10 2.24312 7.75688 0 5 0ZM5 9.0625C2.75969 9.0625 0.9375 7.24 0.9375 5C0.9375 2.76 2.75969 0.9375 5 0.9375C7.24 0.9375 9.0625 2.76 9.0625 5C9.0625 7.24 7.24 9.0625 5 9.0625Z" />
</svg>
