<svg viewBox="0 0 16 12" xmlns="http://www.w3.org/2000/svg">
<path fill-rule="evenodd" clip-rule="evenodd" d="M15.7203 9.99998C15.5245 10.9094 14.8284 11.5799 13.9909 11.6797C12.0071 11.9165 9.99949 11.9181 7.99949 11.9165C6 11.9181 3.99192 11.9165 2.00757 11.6797C1.17012 11.5799 0.474508 10.9094 0.279152 9.99998C0 8.70489 0 7.29167 0 5.95883C0 4.62544 0.00302878 3.21168 0.282181 1.91713C0.478041 1.00825 1.17314 0.337243 2.01111 0.236915C3.99546 0.000120442 6.00353 -0.000958339 8.00303 0.000120452C10.002 -0.000958339 12.0101 0.000120442 13.9939 0.236915C14.8319 0.337243 15.528 1.00771 15.7234 1.91713C16.0025 3.21222 16 4.62544 16 5.95883C16 7.29167 15.9995 8.70489 15.7203 9.99998ZM5.93539 8.61212C7.63554 7.67033 9.32105 6.73664 11.0222 5.79431C9.316 4.84282 7.63099 3.90373 5.93539 2.95817C5.93539 4.84929 5.93539 6.72153 5.93539 8.61212Z" />
</svg>
