<svg xmlns="http://www.w3.org/2000/svg" xmlns:xlink="http://www.w3.org/1999/xlink" width="0" height="0" style="position:absolute">
	
		<symbol id="icon-arrow" viewBox="0 0 306 306">
			<path d="M94.35 0l-35.7 35.7L175.95 153 58.65 270.3l35.7 35.7 153-153z"></path>
		</symbol>
	
		<symbol id="icon-bed" viewBox="0 0 56 50">
			<path d="M55.067 28.733h-.934v-2.8a4.666 4.666 0 0 0-2.8-4.27V7.267a.933.933 0 0 0-.56-.855 3.694 3.694 0 0 0 .56-1.945 3.733 3.733 0 0 0-7.466 0c.004.657.183 1.301.519 1.866H11.614c.336-.565.515-1.209.52-1.866a3.733 3.733 0 1 0-7.467 0c.002.688.196 1.361.56 1.945a.933.933 0 0 0-.56.855v14.396a4.666 4.666 0 0 0-2.8 4.27v2.8H.933a.933.933 0 0 0-.933.934v13.066c0 .516.418.934.933.934h.934v4.666c0 .516.418.934.933.934h3.733a.933.933 0 0 0 .934-.934v-4.666h41.066v4.666c0 .516.418.934.934.934H53.2a.933.933 0 0 0 .933-.934v-4.666h.934a.933.933 0 0 0 .933-.934V29.667a.933.933 0 0 0-.933-.934zM47.6 2.6a1.867 1.867 0 1 1 0 3.733 1.867 1.867 0 0 1 0-3.733zm-39.2 0a1.867 1.867 0 1 1 0 3.733 1.867 1.867 0 0 1 0-3.733zM6.533 8.2h42.934v13.067h-3.758a4.618 4.618 0 0 0 .958-2.8V16.6A4.672 4.672 0 0 0 42 11.933h-7.467a4.672 4.672 0 0 0-4.666 4.667v1.867a4.618 4.618 0 0 0 .957 2.8h-5.648a4.618 4.618 0 0 0 .957-2.8V16.6a4.672 4.672 0 0 0-4.666-4.667H14A4.672 4.672 0 0 0 9.333 16.6v1.867a4.618 4.618 0 0 0 .958 2.8H6.533V8.2zM44.8 16.6v1.867a2.8 2.8 0 0 1-2.8 2.8h-7.467a2.8 2.8 0 0 1-2.8-2.8V16.6a2.8 2.8 0 0 1 2.8-2.8H42a2.8 2.8 0 0 1 2.8 2.8zm-20.533 0v1.867a2.8 2.8 0 0 1-2.8 2.8H14a2.8 2.8 0 0 1-2.8-2.8V16.6a2.8 2.8 0 0 1 2.8-2.8h7.467a2.8 2.8 0 0 1 2.8 2.8zM3.733 25.933a2.8 2.8 0 0 1 2.8-2.8h42.934a2.8 2.8 0 0 1 2.8 2.8v2.8H3.733v-2.8zM5.6 47.4H3.733v-3.733H5.6V47.4zm46.667 0H50.4v-3.733h1.867V47.4zm1.866-5.6H1.867V30.6h52.266v11.2z"></path>
		</symbol>
	
		<symbol id="icon-bus" viewBox="0 0 56 30">
			<path d="M0 7.53v-2.8c0-.515.418-.933.933-.933H26.68L30.414.064H46.12l3.733 3.733h5.214c.515 0 .933.418.933.934v20.533a.933.933 0 0 1-.933.933h-4.76a4.667 4.667 0 0 1-9.147 0h-2.053a4.667 4.667 0 0 1-9.147 0H14.84a4.667 4.667 0 0 1-9.147 0H.933A.933.933 0 0 1 0 25.264v-9.333c0-.013.007-.026.007-.04a.92.92 0 0 1 .065-.32L4.2 5.664H1.867v1.867H0zm22.4-1.866h-7.467v7.467H22.4V5.664zm1.867 0v7.467h7.466V5.664h-7.466zm21.08-3.733h-14.16L29.32 3.797h17.894l-1.867-1.866zM33.6 5.664v7.467h7.467V5.664H33.6zm16.8 0h-7.467v7.467H50.4V5.664zm3.733 13.067h-1.866v1.866h1.866v-1.866zm-8.4 9.333a2.8 2.8 0 1 0 0-5.6 2.8 2.8 0 0 0 0 5.6zm-11.2 0a2.8 2.8 0 1 0 0-5.6 2.8 2.8 0 0 0 0 5.6zm-24.266 0a2.8 2.8 0 1 0 0-5.6 2.8 2.8 0 0 0 0 5.6zm-8.4-7.467h1.866v1.867H1.867v1.867h3.826c0-.017.012-.033.015-.05.058-.265.139-.525.242-.776.036-.094.086-.172.128-.259.08-.173.169-.34.269-.502.06-.093.128-.178.194-.266.102-.14.213-.273.33-.4a4.84 4.84 0 0 1 .638-.563c.093-.068.186-.134.28-.194.15-.093.306-.177.466-.251.1-.048.195-.098.298-.14.183-.069.37-.127.56-.172.093-.024.18-.056.275-.075a4.427 4.427 0 0 1 1.774 0c.093.019.186.05.275.075.19.045.377.103.56.172.103.042.199.094.298.14.16.074.316.158.466.25.094.061.187.128.28.195a4.669 4.669 0 0 1 .968.963c.067.088.135.174.194.266.1.16.19.325.27.496.041.086.093.169.127.258.103.251.184.511.242.777 0 .016.011.032.015.05H29.96c0-.018.011-.034.015-.05.058-.266.138-.526.242-.777.036-.093.085-.172.128-.258.08-.17.169-.336.268-.496.06-.093.128-.178.195-.266.102-.14.212-.273.33-.4a4.84 4.84 0 0 1 .637-.563 6.34 6.34 0 0 1 .28-.194c.15-.093.307-.177.467-.251.099-.048.195-.098.298-.14.183-.069.37-.127.56-.172.093-.024.18-.056.275-.075a4.427 4.427 0 0 1 1.773 0c.094.019.187.05.276.075.19.045.377.103.56.172.102.042.198.094.297.14.16.074.316.158.467.25.093.061.187.128.28.195a4.67 4.67 0 0 1 .968.963c.066.088.134.174.194.266.1.16.19.325.269.496.042.086.093.169.128.258.103.251.184.511.242.777 0 .016.01.032.014.05h2.037c0-.018.011-.034.015-.05.058-.266.138-.526.242-.777.036-.093.085-.172.127-.258.08-.17.17-.336.27-.496.06-.093.127-.178.194-.266.102-.14.212-.273.33-.4a4.84 4.84 0 0 1 .637-.563 6.34 6.34 0 0 1 .28-.194c.151-.093.307-.177.467-.251.099-.048.195-.098.298-.14.182-.069.37-.127.56-.172.093-.024.18-.056.275-.075a4.427 4.427 0 0 1 1.773 0c.094.019.187.05.276.075.19.045.377.103.56.172.102.042.199.094.297.14.16.074.316.158.467.25.093.061.187.128.28.195a4.67 4.67 0 0 1 .968.963c.066.088.134.174.194.266.1.16.19.325.269.496.042.086.093.169.128.258.103.251.184.511.242.777 0 .016.01.032.015.05h3.81v-1.861h-2.8a.933.933 0 0 1-.934-.933v-3.734c0-.515.418-.933.933-.933h2.8v-11.2h-1.866v8.4a.933.933 0 0 1-.934.933H14.065L1.867 16.74v3.857zm.56-5.823l10.64-1.52v-7.59H6.223l-3.796 9.11z"></path>
		</symbol>
	
		<symbol id="icon-check" viewBox="0 0 442.533 442.533">
			<path d="M434.539 98.499l-38.828-38.828c-5.324-5.328-11.799-7.993-19.41-7.993-7.618 0-14.093 2.665-19.417 7.993L169.59 247.248l-83.939-84.225c-5.33-5.33-11.801-7.992-19.412-7.992-7.616 0-14.087 2.662-19.417 7.992L7.994 201.852C2.664 207.181 0 213.654 0 221.269c0 7.609 2.664 14.088 7.994 19.416l103.351 103.349 38.831 38.828c5.327 5.332 11.8 7.994 19.414 7.994 7.611 0 14.084-2.669 19.414-7.994l38.83-38.828L434.539 137.33c5.325-5.33 7.994-11.802 7.994-19.417.004-7.611-2.669-14.084-7.994-19.414z"></path>
		</symbol>
	
		<symbol id="icon-close" viewBox="0 0 612 612">
			<path d="M612 36.004L576.521.603 306 270.608 35.478.603 0 36.004l270.522 270.007L0 575.997l35.478 35.4L306 341.411l270.521 269.986 35.479-35.4-270.541-269.986z"></path>
		</symbol>
	
		<symbol id="icon-fb" viewBox="0 0 10 16">
			<path d="M9 .003L6.924 0C4.594 0 3.087 1.546 3.087 3.938v1.815H1.001a.326.326 0 0 0-.326.327v2.63c0 .18.146.326.326.326h2.086v6.638c0 .18.146.326.326.326h2.722c.18 0 .327-.146.327-.326V9.036H8.9c.18 0 .326-.146.326-.326l.001-2.63a.327.327 0 0 0-.326-.327h-2.44V4.214c0-.74.176-1.115 1.14-1.115h1.397c.18 0 .326-.147.326-.327V.33A.326.326 0 0 0 9 .003z"></path>
		</symbol>
	
		<symbol id="icon-food" viewBox="0 0 55 51">
			<path d="M50.312 37.963A5.574 5.574 0 0 0 55 32.467v-5.573a.93.93 0 0 0-.93-.93H28.046a.929.929 0 0 0-.929.93v8.36h-1.842V12.96a.916.916 0 0 0-.075-.365l-2.711-6.323v-4.46a.929.929 0 0 0-.93-.928H4.839a.929.929 0 0 0-.929.929v4.459l-2.711 6.325a.917.917 0 0 0-.075.363v31.91a2.936 2.936 0 0 0 1.817 5.246h45.557a.93.93 0 0 0 .836-.513L50.93 46.4H55v-1.858h-8.394a9.289 9.289 0 0 0 3.707-6.58zm.043-10.14h2.787v4.644a3.716 3.716 0 0 1-2.787 3.584v-8.229zM22.937 12.03H20.18l1.379-3.215 1.378 3.215zm.48 1.858v21.365H19.7V13.889h3.716zM5.767 2.742H20.63v2.786H5.767V2.742zM5.45 7.386h14.7l-1.99 4.645H3.46l1.99-4.645zM2.98 13.89h14.863v21.365H15.87a2.94 2.94 0 0 0-2.215 1.006 2.913 2.913 0 0 0-.54.944l-4.521 1.29a2.952 2.952 0 0 0-2.105 2.531L2.98 43.53V13.89zm-.04 34.37c-.467 0-.882-.3-1.028-.744a1.08 1.08 0 0 1 .398-1.225l4.448-3.178 1.03 5.146H2.94zm6.742 0l-1.345-6.724a1.09 1.09 0 0 1 .766-1.255l3.927-1.122 1.232 9.1h-4.58zm6.456 0l-1.344-9.92a1.084 1.084 0 0 1 1.075-1.227h11.248a9.29 9.29 0 0 0 3.75 7.43h-7.45v1.859h4.07l.929 1.857H16.138zM48.852 46.4l-.929 1.857h-17.43l-.929-1.857h19.288zm-7.802-1.858h-4.629a7.456 7.456 0 0 1-7.447-7.447v-9.274h19.523v9.274a7.456 7.456 0 0 1-7.447 7.447z"></path>
		</symbol>
	
		<symbol id="icon-girl" viewBox="0 0 25 48">
			<path d="M8.79 11.862v3.106a3.945 3.945 0 0 0 3.942 3.94 3.945 3.945 0 0 0 3.94-3.94.988.988 0 1 1 1.977 0 5.924 5.924 0 0 1-5.917 5.917 5.924 5.924 0 0 1-5.918-5.917v-3.106a.988.988 0 1 1 1.977 0zm-5.283 5.153a.988.988 0 0 0 .988-.988v-5.814c0-4.541 3.695-8.236 8.237-8.236 4.374 0 7.962 3.427 8.221 7.737.01.165.015.743.015.743-1.367-.83-3.198-1.123-4.893-1.394-3.37-.538-4.836-.967-4.736-2.816a.988.988 0 1 0-1.974-.107c-.093 1.723.636 2.995 2.168 3.78 1.187.61 2.734.856 4.23 1.095 2.813.45 4.711.863 5.205 2.385v2.627c0 1.33-.859 3.227-2.043 4.508a.988.988 0 0 0 1.452 1.341c1.536-1.662 2.568-4.013 2.568-5.85v-2.75-3.063C22.945 4.582 18.363 0 12.73 0 7.1 0 2.518 4.582 2.518 10.213v5.814c0 .546.443.988.989.988zm20.347 11.5c-.88-1.505-2.475-2.616-4.16-2.9l-3.262-.55a.989.989 0 0 0-1.126.75l-3.537 15.067a.988.988 0 1 0 1.925.452l3.324-14.165 2.347.395c1.123.19 2.19.936 2.783 1.949.45.769.555 1.592.294 2.32l-5.088 14.19H7.303l-5.089-14.19c-.26-.727-.156-1.551.295-2.32.593-1.013 1.66-1.76 2.783-1.949l2.359-.397 1.931 5.677a.988.988 0 1 0 1.872-.636l-2.203-6.474a.988.988 0 0 0-1.1-.656l-3.187.537c-1.686.284-3.28 1.395-4.161 2.899-.28.478-.478.974-.592 1.475-.098.43-.115 2.686-.115 2.686v14.336a.988.988 0 1 0 1.976 0v-9.719l3.605 10.053c.141.393.513.655.93.655H18.05c.417 0 .79-.262.93-.655l3.605-10.053v9.72a.988.988 0 1 0 1.977 0V32.894s.004-1.928-.003-2.087a4.988 4.988 0 0 0-.704-2.294zM4.527 31.015v.771a.988.988 0 1 0 1.976 0v-.771a.988.988 0 1 0-1.976 0z"></path>
		</symbol>
	
		<symbol id="icon-inst" viewBox="0 0 16 16">
			<path d="M11.584 0H4.415A4.42 4.42 0 0 0 0 4.415v7.17A4.42 4.42 0 0 0 4.415 16h7.17A4.42 4.42 0 0 0 16 11.585v-7.17A4.42 4.42 0 0 0 11.584 0zm2.996 11.585a3 3 0 0 1-2.995 2.995h-7.17a3 3 0 0 1-2.995-2.995v-7.17A3 3 0 0 1 4.415 1.42h7.17a3 3 0 0 1 2.995 2.995v7.17z"></path><path d="M8 3.877A4.127 4.127 0 0 0 3.877 8 4.127 4.127 0 0 0 8 12.123 4.127 4.127 0 0 0 12.123 8 4.127 4.127 0 0 0 8 3.877zm0 6.826A2.706 2.706 0 0 1 5.297 8 2.706 2.706 0 0 1 8 5.297 2.706 2.706 0 0 1 10.703 8 2.706 2.706 0 0 1 8 10.703zM12.296 2.674a1.045 1.045 0 0 0-1.041 1.04c0 .274.111.543.305.737.193.193.462.305.736.305.274 0 .542-.112.736-.305a1.046 1.046 0 0 0 0-1.473 1.046 1.046 0 0 0-.736-.304z"></path>
		</symbol>
	
		<symbol id="icon-mail" viewBox="0 0 16 14">
			<path d="M14.571 13.286c.36 0 .671-.12.937-.354L10.974 8.4l-.313.226c-.34.25-.615.445-.826.585-.212.14-.493.282-.844.428a2.571 2.571 0 0 1-.982.219H7.99a2.57 2.57 0 0 1-.982-.219 5.072 5.072 0 0 1-.844-.428c-.211-.14-.487-.335-.826-.585l-.313-.227-4.534 4.534c.265.235.577.354.937.354H14.57zM.902 5.545A4.734 4.734 0 0 1 0 4.768v6.897L3.995 7.67C3.196 7.112 2.166 6.404.902 5.545zM15.107 5.545c-1.216.823-2.25 1.532-3.1 2.126L16 11.665V4.768a4.925 4.925 0 0 1-.893.777z"></path><path d="M14.571.714H1.43C.97.714.618.87.37 1.18c-.247.309-.37.696-.37 1.16 0 .375.163.781.49 1.22a4.43 4.43 0 0 0 1.045 1.03c.202.143.812.567 1.83 1.273a590.267 590.267 0 0 1 2.34 1.63l.133.094.246.177c.194.14.354.253.482.34.128.086.283.183.465.29.181.107.352.188.513.241.16.054.31.08.446.08H8.01c.137 0 .286-.026.447-.08.16-.053.331-.134.513-.241.182-.107.336-.204.464-.29.128-.087.29-.2.483-.34a56.705 56.705 0 0 1 .38-.272l.903-.628 3.275-2.274c.434-.303.797-.67 1.089-1.098.291-.428.437-.878.437-1.348 0-.393-.142-.73-.424-1.01a1.38 1.38 0 0 0-1.005-.419z"></path>
		</symbol>
	
		<symbol id="icon-menu" viewBox="0 0 344.339 344.339">
			<path d="M0 46.06h344.339v29.52H0zM0 156.506h344.339v29.52H0zM0 268.748h344.339v29.531H0z"></path>
		</symbol>
	
		<symbol id="icon-next" viewBox="0 0 49.656 49.656">
			<path d="M14.535 48.242l-2.828-2.828 20.585-20.586L11.707 4.242l2.828-2.828 23.414 23.414z"></path><path d="M14.535 49.656l-4.242-4.242 20.585-20.586L10.293 4.242 14.535 0l24.829 24.828-24.829 24.828zm-1.414-4.242l1.414 1.414 22-22-22-22-1.414 1.414 20.585 20.586-20.585 20.586z"></path>
		</symbol>
	
		<symbol id="icon-odnoklassniki" viewBox="0 0 11 18">
			<path d="M4.518 12.678c-1.395-.145-2.653-.489-3.73-1.331-.134-.105-.272-.206-.394-.323-.472-.453-.52-.972-.146-1.506.32-.457.855-.58 1.412-.317.108.05.21.114.309.183 2.007 1.379 4.765 1.417 6.78.062.2-.154.413-.278.66-.342.481-.124.93.053 1.188.474.295.48.291.95-.072 1.323-.557.572-1.228.985-1.972 1.274-.704.273-1.476.41-2.239.502.115.125.17.187.242.26 1.036 1.04 2.077 2.078 3.11 3.122.352.356.426.797.232 1.211-.212.453-.686.75-1.151.719-.295-.02-.525-.167-.73-.373-.781-.787-1.578-1.56-2.344-2.362-.223-.233-.33-.189-.528.014-.786.81-1.586 1.607-2.39 2.4-.362.357-.792.42-1.21.217-.446-.216-.73-.67-.707-1.127.015-.309.167-.545.379-.756 1.026-1.025 2.049-2.052 3.072-3.077.067-.069.13-.141.23-.247z"></path><path d="M5.368 9.111C2.878 9.102.838 7.039.852 4.545A4.563 4.563 0 0 1 5.423 0c2.519.007 4.54 2.068 4.528 4.615C9.938 7.103 7.883 9.12 5.368 9.11zm2.263-4.56a2.219 2.219 0 0 0-2.226-2.224 2.222 2.222 0 0 0-2.231 2.251 2.219 2.219 0 0 0 2.242 2.208A2.214 2.214 0 0 0 7.631 4.55z"></path>
		</symbol>
	
		<symbol id="icon-ok" viewBox="0 0 16 16">
			<circle cx="8" cy="8" r="8" fill="#3EAE22"></circle><path d="M5 9l3 2 3-5" stroke="#fff" stroke-width="2"></path>
		</symbol>
	
		<symbol id="icon-phone" viewBox="0 0 16 16">
			<path d="M15.883 12.823l-3.335-3.334a.393.393 0 0 0-.555 0l-1.752 1.751c-.476-.131-1.742-.595-3.198-2.05-1.51-1.511-2.123-3.018-2.275-3.443L6.51 4.005a.392.392 0 0 0 0-.555L3.175.115a.393.393 0 0 0-.555 0L.67 2.065a.389.389 0 0 0-.064.084l-.004.004C-.949 4.06.604 8.323 4.14 11.86 6.655 14.375 9.703 16 11.905 16c.786 0 1.433-.2 1.925-.592l.045-.031a.372.372 0 0 0 .056-.047l1.952-1.952a.393.393 0 0 0 0-.555z"></path>
		</symbol>
	
		<symbol id="icon-search" viewBox="0 0 485.213 485.213">
			<path d="M363.909 181.955C363.909 81.473 282.44 0 181.956 0 81.474 0 .001 81.473.001 181.955s81.473 181.951 181.955 181.951c100.484 0 181.953-81.469 181.953-181.951zM181.956 318.416c-75.252 0-136.465-61.208-136.465-136.46 0-75.252 61.213-136.465 136.465-136.465 75.25 0 136.468 61.213 136.468 136.465 0 75.252-61.218 136.46-136.468 136.46zM471.882 407.567L360.567 296.243a214.267 214.267 0 0 1-64.331 64.321L407.56 471.888c17.772 17.768 46.587 17.768 64.321 0 17.773-17.739 17.773-46.554.001-64.321z"></path>
		</symbol>
	
		<symbol id="icon-show" viewBox="0 0 20 13">
			<path d="M19.86 4.671c-.039-.046-.955-1.149-2.62-2.252C15.03.953 12.527.178 10 .178c-2.525 0-5.029.775-7.24 2.24C1.094 3.523.178 4.626.14 4.672a.597.597 0 0 0 0 .77c.034.041.743.894 2.039 1.847l-.943 1.718c-.174.317-.033.703.315.861a.757.757 0 0 0 .315.068c.258 0 .507-.13.63-.355l.837-1.526c.717.428 1.46.785 2.223 1.07l-.834 1.519c-.174.317-.033.702.315.861a.759.759 0 0 0 .315.068c.258 0 .507-.13.63-.355L6.9 9.543c.788.201 1.59.326 2.396.372v1.496c0 .355.315.642.704.642.389 0 .704-.287.704-.642V9.915a12.62 12.62 0 0 0 2.396-.371l.918 1.673a.715.715 0 0 0 .63.355.758.758 0 0 0 .315-.068c.348-.159.489-.544.315-.861l-.834-1.52a13.658 13.658 0 0 0 2.223-1.069l.837 1.526a.714.714 0 0 0 .63.355.757.757 0 0 0 .315-.068c.348-.158.489-.544.315-.861l-.942-1.718c1.295-.953 2.004-1.806 2.037-1.847a.597.597 0 0 0 0-.77zm-3.485 2.01C14.387 7.987 12.243 8.65 10 8.65c-2.243 0-4.387-.663-6.375-1.97a12.667 12.667 0 0 1-1.999-1.625 12.662 12.662 0 0 1 2-1.624C5.612 2.124 7.756 1.462 10 1.462c2.243 0 4.387.663 6.375 1.97a12.662 12.662 0 0 1 1.999 1.624 12.668 12.668 0 0 1-2 1.624z"></path>
		</symbol>
	
		<symbol id="icon-user" viewBox="0 0 14 16">
			<path d="M7 7.825c1.78 0 3.222-1.752 3.222-3.912C10.222 1.752 9.748 0 7 0 4.253 0 3.78 1.752 3.78 3.913c0 2.16 1.442 3.912 3.221 3.912zM13.085 13.8c0-.133-.001-.038 0 0zM.915 13.902c.002-.036 0-.25 0 0zM13.078 13.641c-.06-3.764-.552-4.837-4.314-5.516 0 0-.53.675-1.764.675s-1.764-.675-1.764-.675C1.516 8.797.994 9.854.926 13.52c-.006.299-.009.315-.01.28v.396S1.813 16 7 16s6.084-1.806 6.084-1.806v-.292a2.439 2.439 0 0 1-.006-.261z"></path>
		</symbol>
	
		<symbol id="icon-vk" viewBox="0 0 16 10">
			<path d="M15.915 8.68a1.12 1.12 0 0 0-.054-.104c-.278-.5-.808-1.114-1.591-1.842l-.017-.016-.008-.008-.008-.009h-.009c-.355-.339-.58-.566-.675-.683-.172-.222-.21-.447-.116-.675.066-.172.316-.536.75-1.091.227-.294.408-.53.54-.708.962-1.277 1.378-2.094 1.25-2.45l-.05-.082c-.032-.05-.118-.096-.257-.138a1.312 1.312 0 0 0-.534-.02L12.738.87a.311.311 0 0 0-.166.004L12.462.9l-.041.021-.034.025a.37.37 0 0 0-.091.088.569.569 0 0 0-.083.145 13.603 13.603 0 0 1-.892 1.875c-.205.344-.394.643-.566.895a4.302 4.302 0 0 1-.434.558 3.02 3.02 0 0 1-.316.288c-.095.072-.167.103-.217.091a6.126 6.126 0 0 1-.141-.033.554.554 0 0 1-.188-.204.914.914 0 0 1-.096-.325 3.582 3.582 0 0 1-.029-.337 7.047 7.047 0 0 1 .005-.4c.005-.173.008-.29.008-.35 0-.211.004-.44.012-.687l.021-.588c.006-.144.008-.297.008-.458 0-.161-.01-.287-.029-.379a1.297 1.297 0 0 0-.087-.267.449.449 0 0 0-.17-.2.963.963 0 0 0-.28-.112A5.543 5.543 0 0 0 7.697.437c-1.032-.011-1.696.055-1.99.2a1.122 1.122 0 0 0-.317.25c-.1.122-.114.188-.042.2.333.05.57.169.708.358l.05.1c.04.072.078.2.117.383.039.183.064.386.075.608.028.405.028.752 0 1.041-.028.29-.054.514-.08.675a1.351 1.351 0 0 1-.212.575.143.143 0 0 1-.041.041.624.624 0 0 1-.225.042c-.078 0-.172-.039-.283-.117a1.999 1.999 0 0 1-.346-.32 4.287 4.287 0 0 1-.404-.57 9.957 9.957 0 0 1-.467-.867l-.133-.242a20.783 20.783 0 0 1-.341-.679 13.089 13.089 0 0 1-.384-.862.55.55 0 0 0-.2-.267L3.141.961a.884.884 0 0 0-.325-.125L.533.853C.3.853.142.906.058 1.011l-.033.05A.27.27 0 0 0 0 1.195c0 .06.017.136.05.224a27.49 27.49 0 0 0 1.087 2.266 25.46 25.46 0 0 0 1.02 1.758c.29.444.584.864.884 1.258.3.394.498.647.595.758.097.111.174.194.23.25l.208.2c.133.133.329.293.587.479.258.186.544.37.858.55.314.18.679.327 1.095.441.417.114.822.16 1.217.138h.958c.194-.017.341-.078.441-.184l.033-.041a.553.553 0 0 0 .063-.154c.02-.07.03-.146.03-.23a2.746 2.746 0 0 1 .053-.645c.042-.191.089-.336.142-.433a1.064 1.064 0 0 1 .32-.367.543.543 0 0 1 .067-.029c.133-.044.29-.001.471.13.18.13.35.291.508.483.159.191.349.407.57.645.223.24.417.417.584.533l.167.1c.11.067.255.128.433.184.177.055.333.07.466.041l2.133-.033c.21 0 .375-.035.491-.104.117-.07.186-.146.209-.23a.646.646 0 0 0 .004-.283 1.047 1.047 0 0 0-.059-.22z"></path>
		</symbol>
	
		<symbol id="icon-warning" viewBox="0 0 10 10">
			<path d="M5 2.5a.625.625 0 1 0 0 1.25.625.625 0 0 0 0-1.25zm0 1.875A.625.625 0 0 0 4.375 5v1.875a.625.625 0 0 0 1.25 0V5A.625.625 0 0 0 5 4.375zM5 0C2.243 0 0 2.243 0 5s2.243 5 5 5 5-2.243 5-5-2.243-5-5-5zm0 9.063A4.067 4.067 0 0 1 .937 5 4.067 4.067 0 0 1 5 .937 4.067 4.067 0 0 1 9.063 5 4.067 4.067 0 0 1 5 9.063z"></path>
		</symbol>
	
		<symbol id="icon-youtube" viewBox="0 0 16 12">
			<path fill-rule="evenodd" clip-rule="evenodd" d="M15.72 10c-.196.91-.892 1.58-1.73 1.68-1.983.236-3.99.238-5.99.236-2 .002-4.008 0-5.992-.236C1.17 11.58.475 10.91.279 10 0 8.705 0 7.292 0 5.959c0-1.334.003-2.747.282-4.042.196-.909.891-1.58 1.73-1.68C3.994 0 6.003-.001 8.002 0c1.999-.001 4.007 0 5.99.237.839.1 1.535.77 1.73 1.68.28 1.295.277 2.708.277 4.042 0 1.333 0 2.746-.28 4.041zM5.935 8.612l5.087-2.818-5.087-2.836v5.654z"></path>
		</symbol>
	
</svg>
