<svg xmlns="http://www.w3.org/2000/svg" xmlns:xlink="http://www.w3.org/1999/xlink" width="0" height="0" style="position:absolute">
	
		<symbol id="icon-500px" viewBox="0 0 97.75 97.75">
			<path d="M72.337 47.891c-1.588.21-2.897.996-4.133 1.942-1.376 1.056-2.53 2.344-3.718 3.595-.16.168-.09.256.027.387.836.936 1.697 1.845 2.676 2.631 1.623 1.308 3.381 2.313 5.522 2.512 2.412.225 4.365-.905 5.229-3.09.299-.756.424-1.547.428-2.471.01-.23-.029-.57-.071-.91-.38-3.034-2.934-4.996-5.96-4.596zM52.206 49.757c-1.028-.741-2.11-1.401-3.356-1.711-1.896-.469-3.621-.2-4.969 1.343-1.046 1.197-1.545 2.614-1.543 4.303.012.151.025.401.047.65.205 2.35 1.773 4.114 4.047 4.529 1.249.229 2.463.062 3.642-.396 2.515-.979 4.433-2.742 6.185-4.723.128-.146.064-.217-.036-.322-1.255-1.315-2.535-2.606-4.017-3.673z"></path><path d="M48.875 0C21.883 0 0 21.882 0 48.875S21.883 97.75 48.875 97.75 97.75 75.868 97.75 48.875 75.867 0 48.875 0zm24.121 65.65c-3.092-.036-5.729-1.234-8.137-3.06-1.571-1.192-2.918-2.624-4.215-4.101-.218-.248-.318-.303-.582-.028-1.324 1.375-2.582 2.819-4.07 4.03-1.881 1.531-3.957 2.682-6.389 3.012-4.3.584-8.014-.549-10.9-3.922-.654-.766-1.147-1.637-1.552-2.559-.052-.115-.066-.256-.198-.354-.566 1.223-1.268 2.348-2.188 3.325-2.317 2.464-5.176 3.749-8.549 3.868-2.438.086-4.826-.225-7.05-1.279-3.725-1.766-5.773-4.705-6.027-8.854-.02-.316.068-.396.382-.395 2.003.014 4.007.014 6.01 0 .301-.002.385.086.436.38.386 2.287 1.615 3.878 3.919 4.45 3.215.797 6.168-1.025 7.013-4.335.568-2.228.323-4.356-1.154-6.211-.979-1.231-2.311-1.831-3.874-1.941-2.249-.158-4.089.583-5.417 2.45-.123.176-.268.219-.467.217-1.806-.005-3.611-.01-5.417.004-.313.002-.378-.086-.324-.385.937-5.209 1.866-10.42 2.796-15.631.127-.713.258-1.426.374-2.14.038-.234.128-.321.381-.32 5.997.008 11.993.008 17.99 0 .286-.001.349.093.347.361-.013 1.607-.016 3.216.002 4.823.002.328-.081.417-.414.416-4.296-.011-8.592-.003-12.889-.015-.356-.001-.515.058-.582.459-.377 2.286-.795 4.566-1.195 6.849-.018.097-.086.229.02.292.116.071.182-.069.25-.136 1.969-1.896 4.37-2.475 7.019-2.333 2.548.136 4.723 1.092 6.517 2.904.749.756 1.331 1.63 1.801 2.582l.194.389c.507-1.337 1.133-2.503 2.021-3.513 1.947-2.214 4.408-3.408 7.333-3.678 4.122-.381 7.51 1.211 10.475 3.917 1.229 1.121 2.317 2.377 3.385 3.649.229.271.328.295.568.01 1.375-1.634 2.745-3.274 4.438-4.603 1.952-1.53 4.103-2.635 6.596-2.927 6.165-.722 11.317 2.635 12.63 8.999.551 2.677.383 5.324-.546 7.902-1.718 4.771-5.689 7.492-10.761 7.432z"></path>
		</symbol>
	
		<symbol id="icon-vk" viewBox="0 0 548.358 548.358">
			<path d="M545.451 400.298c-.664-1.431-1.283-2.618-1.858-3.569-9.514-17.135-27.695-38.167-54.532-63.102l-.567-.571-.284-.28-.287-.287h-.288c-12.18-11.611-19.893-19.418-23.123-23.415-5.91-7.614-7.234-15.321-4.004-23.13 2.282-5.9 10.854-18.36 25.696-37.397 7.807-10.089 13.99-18.175 18.556-24.267 32.931-43.78 47.208-71.756 42.828-83.939l-1.701-2.847c-1.143-1.714-4.093-3.282-8.846-4.712-4.764-1.427-10.853-1.663-18.278-.712l-82.224.568c-1.332-.472-3.234-.428-5.712.144l-3.713.859-1.431.715-1.136.859c-.952.568-1.999 1.567-3.142 2.995-1.137 1.423-2.088 3.093-2.848 4.996-8.952 23.031-19.13 44.444-30.553 64.238-7.043 11.803-13.511 22.032-19.418 30.693-5.899 8.658-10.848 15.037-14.842 19.126-4 4.093-7.61 7.372-10.852 9.849-3.237 2.478-5.708 3.525-7.419 3.142-1.715-.383-3.33-.763-4.859-1.143-2.663-1.714-4.805-4.045-6.42-6.995-1.622-2.95-2.714-6.663-3.285-11.136-.568-4.476-.904-8.326-1-11.563-.089-3.233-.048-7.806.145-13.706.198-5.903.287-9.897.287-11.991 0-7.234.141-15.085.424-23.555.288-8.47.521-15.181.716-20.125.194-4.949.284-10.185.284-15.705s-.336-9.849-1-12.991a44.442 44.442 0 0 0-2.99-9.137c-1.335-2.95-3.289-5.232-5.853-6.852-2.569-1.618-5.763-2.902-9.564-3.856-10.089-2.283-22.936-3.518-38.547-3.71-35.401-.38-58.148 1.906-68.236 6.855-3.997 2.091-7.614 4.948-10.848 8.562-3.427 4.189-3.905 6.475-1.431 6.851 11.422 1.711 19.508 5.804 24.267 12.275l1.715 3.429c1.334 2.474 2.666 6.854 3.999 13.134 1.331 6.28 2.19 13.227 2.568 20.837.95 13.897.95 25.793 0 35.689-.953 9.9-1.853 17.607-2.712 23.127-.859 5.52-2.143 9.993-3.855 13.418-1.715 3.426-2.856 5.52-3.428 6.28-.571.76-1.047 1.239-1.425 1.427a21.387 21.387 0 0 1-7.71 1.431c-2.667 0-5.901-1.334-9.707-4-3.805-2.666-7.754-6.328-11.847-10.992-4.093-4.665-8.709-11.184-13.85-19.558-5.137-8.374-10.467-18.271-15.987-29.691l-4.567-8.282c-2.855-5.328-6.755-13.086-11.704-23.267-4.952-10.185-9.329-20.037-13.134-29.554-1.521-3.997-3.806-7.04-6.851-9.134l-1.429-.859c-.95-.76-2.475-1.567-4.567-2.427a30.301 30.301 0 0 0-6.567-1.854l-78.229.568c-7.994 0-13.418 1.811-16.274 5.428l-1.143 1.711c-.571.953-.859 2.475-.859 4.57 0 2.094.571 4.664 1.714 7.707 11.42 26.84 23.839 52.725 37.257 77.659 13.418 24.934 25.078 45.019 34.973 60.237 9.897 15.229 19.985 29.602 30.264 43.112 10.279 13.515 17.083 22.176 20.412 25.981 3.333 3.812 5.951 6.662 7.854 8.565l7.139 6.851c4.568 4.569 11.276 10.041 20.127 16.416 8.853 6.379 18.654 12.659 29.408 18.85 10.756 6.181 23.269 11.225 37.546 15.126 14.275 3.905 28.169 5.472 41.684 4.716h32.834c6.659-.575 11.704-2.669 15.133-6.283l1.136-1.431c.764-1.136 1.479-2.901 2.139-5.276.668-2.379 1-5 1-7.851-.195-8.183.428-15.558 1.852-22.124 1.423-6.564 3.045-11.513 4.859-14.846 1.813-3.33 3.859-6.14 6.136-8.418 2.282-2.283 3.908-3.666 4.862-4.142.948-.479 1.705-.804 2.276-.999 4.568-1.522 9.944-.048 16.136 4.429 6.187 4.473 11.99 9.996 17.418 16.56 5.425 6.57 11.943 13.941 19.555 22.124 7.617 8.186 14.277 14.271 19.985 18.274l5.708 3.426c3.812 2.286 8.761 4.38 14.853 6.283 6.081 1.902 11.409 2.378 15.984 1.427l73.087-1.14c7.229 0 12.854-1.197 16.844-3.572 3.998-2.379 6.373-5 7.139-7.851.764-2.854.805-6.092.145-9.712-.677-3.611-1.344-6.136-2.008-7.563z"></path>
		</symbol>
	
</svg>
