<svg width="598" height="520" fill="none" xmlns="http://www.w3.org/2000/svg"><g clip-path="url(#clip0)"><path d="M587.515 209.693c-.757-7.212-6.558-13.109-13.754-14.046a15.59 15.59 0 0 0-8.77 1.375c.02-.498.059-.996.059-1.514 0-17.552-14.232-31.778-31.793-31.778a31.697 31.697 0 0 0-18.12 5.678c-5.262-21.597-25.494-37.316-49.076-35.543-22.464 1.694-40.763 19.605-42.956 42.019-.678 6.973.199 13.647 2.292 19.763a16.59 16.59 0 0 0-1.993-.139c-3.109 0-6 .917-8.432 2.431 0-.279.04-.558.04-.857 0-16.676-13.535-30.204-30.219-30.204-16.704 0-30.239 13.528-30.239 30.204 0 1.634.18 3.228.419 4.782h-50.75c-7.037 0-12.738 5.698-12.738 12.731 0 7.013 5.701 12.711 12.738 12.711H577.19v-.996c6.578-2.431 11.123-9.046 10.325-16.617zM0 436.74s75.308-142.831 165.048-141.316c129.048 2.171 209.679 125.636 209.679 125.636L0 436.74z" fill="#FFDAB4"/><path d="M188.39 436.74s106.464-181.741 196.203-180.227c82.106 1.375 183.188 107.228 197.321 181.841L188.39 436.74z" fill="#FFDAB4"/><path d="M598 460.688c0 31.618-141.367 31.419-300.953 52.936C47.72 547.255 0 436.74 0 436.74c11.98-29.965 164.271-69.353 312.634-69.353C460.998 367.387 598 429.09 598 460.688z" fill="#F18750"/><path d="M318.016 107.208H268.88c1.336-5.121 1.236-10.819-1.853-16.915-3.349-6.575-9.429-11.576-16.645-13.11-4.525-.936-8.83-.578-12.717.717 0-.259.02-.518.02-.797 0-23.888-19.395-43.253-43.295-43.253-21.15 0-38.751 15.161-42.538 35.205a27.96 27.96 0 0 0-5.362-.539c-15.169 0-27.508 11.855-28.385 26.777H51.328c-8.232 0-15.428 6.356-15.668 14.584-.259 8.528 6.579 15.521 15.05 15.521h267.306c5.023 0 9.11-4.065 9.11-9.105 0-5.021-4.087-9.085-9.11-9.085zm182.53-53.973h-29.242c.797-3.048.737-6.435-1.096-10.06-1.994-3.926-5.602-6.894-9.907-7.81a14.423 14.423 0 0 0-7.575.437c0-.159.02-.318.02-.478 0-14.225-11.541-25.74-25.754-25.74-12.598 0-23.063 9.024-25.315 20.939a16.816 16.816 0 0 0-3.19-.3c-9.029 0-16.365 7.034-16.883 15.92h-39.727c-4.904 0-9.189 3.785-9.329 8.686-.159 5.06 3.907 9.225 8.95 9.225h159.048a5.414 5.414 0 0 0 5.422-5.42c0-2.988-2.432-5.399-5.422-5.399z" fill="#FFDAB4"/><path d="M56.97 404.245c24.857 29.407 98.271 85.77 285.963 60.468 94.524-12.751 182.629-17.892 238.782-26.518-40.505-31.858-151.215-70.808-269.08-70.808-96.976 0-195.606 16.835-255.665 36.858z" fill="#DB5510"/><path d="M436.979 148.768c.757-3.646-2.392-7.651-3.947-10.978-1.236-2.61-2.492-5.2-3.708-7.83-.179-.398-.478-1.534-.638-1.215.279-.877 1.196-1.953 1.595-2.67 2.113-3.845 4.983-7.312 4.983-11.755v-9.663c0-1.852.519-4.662 0-6.455-.598-2.072-2.691-4.024-3.986-5.738-1.117-1.494-2.253-3.008-3.369-4.502-.658-.877-1.435-2.65-1.635-1.833.419-2.092 3.409-5.44 4.386-7.093 1.515-2.49 3.01-5 4.505-7.491.637-1.036-.818-1.614-1.535-1.614H321.903c.1-.16.18-.359.18-.558V2.988c.897-1.075-.08-3.287-1.914-2.948-15.588 2.77-29.7 10.36-45.089 13.906-.718.16-1.116.618-1.236 1.156-.199.18-.319.378-.319.578v54.25H171.088c-.738 0-1.894.618-1.894 1.474-.06 7.511-.1 15.022-.139 22.534-.02 2.39-.18 2.75 1.355 4.363 2.133 2.271 5.063 4.104 7.694 5.977-.02.02-.04.04-.059.08-2.711 1.434-5.422 2.849-8.133 4.283-.439.239-.977.677-.977 1.215-.06 8.109-.1 16.218-.159 24.327l-.1 16.596c-.02 2.61-.658 6.196-.06 8.766.698 3.009 3.807 6.157 5.522 8.667.199.279.478.618.777.976-.498.538-.658 1.156-.159 1.475a.818.818 0 0 0-.12.139c-1.694 1.654-3.229 3.945-4.605 5.838-1.953 2.709-1.554 4.741-1.574 8.128-.04 4.642-.06 9.305-.1 13.947 0 .936.837 1.235 1.654 1.255 29.701.956 59.422 1.893 89.142 2.829l17.123.558v221.906c-1.216.797-.877 3.228 1.017 3.328l42.398 2.091c1.236.06 1.814-.936 1.714-1.892.08-.199.12-.419.12-.658v-223.34c26.371.837 52.743 1.694 79.115 2.531l32.053 1.016c.319.059.658.059.977-.02.478-.06.857-.259 1.116-.558.339-.319.558-.737.458-1.215l-6.817-31.918c-.199-.876-.418-3.028-.558-2.57.359-2.171 1.814-4.622 2.611-6.654 2.073-5.3 5.342-11.078 6.499-16.636z" fill="#F9F5F1"/><path d="M436.979 148.768c.757-3.646-2.392-7.651-3.947-10.978-1.236-2.61-2.492-5.2-3.708-7.83-.179-.398-.478-1.534-.638-1.215.279-.877 1.196-1.953 1.595-2.67 2.113-3.845 4.983-7.312 4.983-11.755v-9.663c0-1.852.519-4.662 0-6.455-.598-2.072-2.691-4.024-3.986-5.738-1.117-1.494-2.253-3.008-3.369-4.502-.658-.877-1.435-2.65-1.635-1.833.419-2.092 3.409-5.44 4.386-7.093 1.515-2.49 3.01-5 4.505-7.491.637-1.036-.818-1.614-1.535-1.614H321.903c.1-.16.18-.359.18-.558V2.988c.897-1.075-.08-3.287-1.914-2.948-15.588 2.77-29.7 10.36-45.089 13.906-.718.16-1.116.618-1.236 1.156-.199.18-.319.378-.319.578v54.25H171.088c-.738 0-1.894.618-1.894 1.474-.06 7.511-.1 15.022-.139 22.534-.02 2.39-.18 2.75 1.355 4.363 2.133 2.271 5.063 4.104 7.694 5.977-.02.02-.04.04-.059.08-2.711 1.434-5.422 2.849-8.133 4.283-.439.239-.977.677-.977 1.215-.06 8.109-.1 16.218-.159 24.327l-.1 16.596c-.02 2.61-.658 6.196-.06 8.766.698 3.009 3.807 6.157 5.522 8.667.199.279.478.618.777.976-.498.538-.658 1.156-.159 1.475a.818.818 0 0 0-.12.139c-1.694 1.654-3.229 3.945-4.605 5.838-1.953 2.709-1.554 4.741-1.574 8.128-.04 4.642-.06 9.305-.1 13.947 0 .936.837 1.235 1.654 1.255 29.701.956 59.422 1.893 89.142 2.829l17.123.558v221.906c-1.216.797-.877 3.228 1.017 3.328l42.398 2.091c1.236.06 1.814-.936 1.714-1.892.08-.199.12-.419.12-.658v-223.34c26.371.837 52.743 1.694 79.115 2.531l32.053 1.016c.319.059.658.059.977-.02.478-.06.857-.259 1.116-.558.339-.319.558-.737.458-1.215l-6.817-31.918c-.199-.876-.418-3.028-.558-2.57.359-2.171 1.814-4.622 2.611-6.654 2.073-5.3 5.342-11.078 6.499-16.636zM277.014 17.174c14.152-3.427 27.288-10.121 41.561-13.17v65.648c0 .1 0 .2.019.279h-41.58V17.174zm40.903 409.824l-24.12-1.196c.698-.179 1.296-.737 1.296-1.673v-49.968c0-2.331-3.608-2.331-3.608 0v49.968c0 .856.498 1.394 1.096 1.613-4.225-.199-8.471-.418-12.697-.617V203.477l38.033 1.196v222.325zm106.942-251.812a422.057 422.057 0 0 1-39.528 1.096c-1.176-.02-3.747 1.713-1.415 1.753a433.024 433.024 0 0 0 41.302-1.215c1.176 5.519 2.352 11.017 3.528 16.536a7066.215 7066.215 0 0 1-171.965 1.036c-2.013 0-2.631 2.63-.279 2.65 57.607.339 115.215 0 172.802-1.056.678 3.208 1.356 6.396 2.053 9.583l-86.869-2.769a334149.91 334149.91 0 0 1-141.487-4.503c-10.365-.319-20.731-.657-31.076-.996.06-5.359.279-10.778.08-16.138-.08-2.809-.279-1.773 1.574-4.124 1.575-2.012 3.15-4.024 4.745-6.037a1270.1 1270.1 0 0 0 42.717 1.375c1.973.02 2.671-2.49.319-2.53-14.273-.2-28.545-.698-42.797-1.395-1.734-2.57-3.389-5.2-5.243-7.67-1.495-2.013-1.236-.957-1.156-3.507.18-6.316.12-12.631.14-18.947l40.943-1.973c2.013-.099 2.651-2.749.279-2.649-13.734.677-27.468 1.335-41.222 1.992v-.538c.06-7.591.099-15.162.159-22.752 0-.678.04-1.395 0-2.092.04 0 .06 0 .1-.02 2.432-.439 5.322-2.511 7.754-4.025.817.239 1.674.279 2.791.219.837-.059 1.534-.557 1.754-1.056 18.897.259 37.793.499 56.69.758 1.356.019 3.688-1.993 1.336-2.033-20.173-.259-40.345-.518-60.538-.797a.276.276 0 0 0-.08-.059c-2.81-2.172-5.541-4.742-8.551-6.595-.299-.18-.797-.478-1.156-.777-.259-1.136.02-2.79.04-3.905l.119-19.365h258.137c-2.691 4.462-5.362 8.925-8.053 13.408-.16.279-.1.777.1 1.036 2.711 3.626 6.558 7.372 8.571 11.416.179.398.259.458.259.398.14.738 0 1.674 0 2.411v9.265c0 5.339-.139 6.515-2.671 11.097-1.296 2.351-3.189 4.542-3.488 6.933a531.495 531.495 0 0 0-44.352 1.176c-1.794.139-2.831 2.271-.419 2.112 14.97-1.056 29.96-1.415 44.95-1.136 1.415 5.021 4.764 10.5 7.156 15.102.279.518.758 1.255.877 1.853v.139c-.139 1.853-1.674 4.284-2.352 6.017-2.093 5.34-4.226 10.679-6.259 16.038-.857 2.232-.777 3.069-.319 5.26z" fill="#DB5510"/><path d="M421.311 83.44a1627.763 1627.763 0 0 0-88.763.457c-1.814.06-2.811 2.192-.419 2.132a1595.162 1595.162 0 0 1 87.867-.438c1.435.02 3.667-2.112 1.315-2.152zm-207.167-3.129c-11.223-.239-22.425-.498-33.648-.737-1.993-.04-2.651 2.53-.299 2.59l33.648.717c1.993.06 2.651-2.53.299-2.57zm13.714 104.14c-14.013-.239-28.026-.498-42.059-.737-1.435-.02-3.648 2.131-1.296 2.171l42.059.717c1.436.02 3.648-2.111 1.296-2.151zm187.213.378h2.412c.738 0 1.834-.558 1.934-1.375.1-.896-.957-1.076-1.595-1.076h-2.412c-.737 0-1.834.558-1.913 1.375-.12.897.937 1.076 1.574 1.076zm-224.03-25.343c-3.787-.219-7.594-.438-11.402-.677-.717-.04-1.953.06-2.451.657-.379.439-.598.937.259.997l11.402.677c.717.04 1.973-.06 2.471-.657.359-.439.578-.937-.279-.997zm223.711-39.089c-5.82-.219-11.621-.458-17.421-.678-1.196-.039-3.748 1.694-1.416 1.774 5.801.239 11.622.458 17.422.677 1.196.06 3.748-1.693 1.415-1.773zm-5.58-20.94H388.74c-.718 0-3.927 1.375-2.253 1.375h20.412c.718 0 3.927-1.375 2.273-1.375zm-99.648 210.152c-.299-.976-.159-1.853.399-2.69 1.276-1.952-1.834-3.765-3.109-1.833-1.057 1.614-1.316 3.626-.778 5.479.658 2.212 4.146 1.255 3.488-.956zm-2.012 49.33v4.603a.953.953 0 0 0-.14.478v41.759c0 1.514 2.791 1.176 2.791-.159v-40.325c.538-.259.957-.777.957-1.554v-4.802c0-2.311-3.608-2.331-3.608 0z" fill="#DB5510"/><path d="M308.508 415.92c-2.312 0-2.312 3.606 0 3.606 2.332 0 2.332-3.606 0-3.606z" fill="#F7931D"/><path d="M309.345 259.382c-.259-13.607-.498-27.195-.757-40.803-.02-1.315-2.791-.817-2.771.259.259 13.608.498 27.216.757 40.803.02 1.335 2.791.817 2.771-.259zm-15.349 61.464V228.78c0-.837-2.75-.319-2.75.737v92.066c0 .837 2.75.319 2.75-.737zm7.615 3.108v-39.867c0-1.434-2.79-1.016-2.79.219v39.867c0 1.435 2.79 1.036 2.79-.219zM290.309 26.2c-.977 0-2.93 1.494-1.076 1.494.976 0 2.93-1.495 1.076-1.495zm5.681-4.583v35.125c0 .577 2.751.159 2.751-.738V20.88c0-.558-2.751-.14-2.751.737zm-6.657 14.026V62.22c0 1.295 2.77.777 2.77-.28V35.365c0-1.295-2.77-.797-2.77.279zm23.74-20.92v25.622c0 1.434 2.791 1.016 2.791-.2v-25.64c0-1.435-2.791-1.017-2.791.218zM293.06 357.186v-19.943c0-1.435-2.79-1.016-2.79.219v19.943c0 1.435 2.79 1.016 2.79-.219zm-4.744-133.885v-16.118c0-1.315-2.771-.817-2.771.259v16.138c0 1.315 2.771.797 2.771-.279zm-13.675-107.865v28.909h6.519v9.125h-6.558v7.849h-12v-7.849h-19.395v-9.444c3.408-3.945 6.797-8.487 10.185-13.667 3.369-5.181 6.12-10.161 8.233-14.923h13.016zm-12.059 28.909v-13.429c-1.974 4.324-4.665 8.807-8.113 13.429h8.113zm57.129-6.356c0 7.87-1.495 13.847-4.505 17.971-2.99 4.104-7.376 6.156-13.136 6.156-5.901 0-10.306-1.892-13.216-5.658-2.91-3.785-4.366-9.623-4.366-17.552 0-7.93 1.575-13.967 4.725-18.071 3.149-4.124 7.694-6.176 13.654-6.176 11.223 0 16.844 7.77 16.844 23.33zm-13.455.02c0-4.582-.319-7.949-.957-10.121-.638-2.172-1.675-3.267-3.11-3.267-2.79 0-4.186 4.682-4.186 14.006 0 4.602.319 8.009.977 10.22.638 2.192 1.674 3.308 3.09 3.308 2.79 0 4.186-4.722 4.186-14.146zm48.378-22.573v28.909h6.518v9.125h-6.538v7.849h-12.02v-7.849h-19.395v-9.444c3.409-3.945 6.797-8.487 10.186-13.667 3.369-5.181 6.12-10.161 8.232-14.923h13.017zm-12.06 28.909v-13.429c-1.973 4.324-4.664 8.807-8.093 13.429h8.093z" fill="#DB5510"/><path d="M123.606 409.645h29.801v-98.84c34.923-2.371 62.63-31.539 62.63-67.042 0-8.428-6.837-15.262-15.289-15.262-8.432 0-15.269 6.834-15.269 15.262 0 18.648-14.013 34.089-32.072 36.36v-41.919c0-8.228-6.678-14.883-14.911-14.883-8.212 0-14.89 6.655-14.89 14.883v76.526c-15.408-4.344-26.73-18.509-26.73-35.285 0-8.447-6.858-15.281-15.29-15.281-8.431 0-15.288 6.834-15.288 15.281 0 33.671 24.936 61.643 57.308 66.465v63.735z" fill="#F9F5F1"/><path d="M122.052 345.989c1.176 1.156 0 8.767 0 10.42v40.405c0 3.985-.419 8.487-.12 12.831h3.169c-.438-5.081.06-10.46.06-15.521V345.91c0-.618-.478-1.395-1.136-1.515-29.88-5.1-57.229-31.498-56.132-63.475.279-7.97 4.764-15.182 13.694-15.182 9.428 0 12.717 7.272 13.774 15.162.678 5.1 1.276 9.782 3.488 14.524 4.824 10.38 13.595 17.333 24.339 20.8.976.319 1.973-.518 1.973-1.494v-70.649c0-6.515-.119-13.468 6.618-17.393 9.608-5.578 19.056 2.271 20.073 12.014.179 1.853 0 3.845 0 5.698v35.723c0 1.095.977 1.673 1.973 1.494 11.542-1.913 21.688-8.109 27.787-18.25 2.552-4.244 4.206-8.965 4.964-13.827 1.056-6.734.239-13.528 7.255-17.612 9.628-5.618 19.734 1.773 20.631 11.835-.737 34.507-26.591 62.4-61.055 65.488-.838.059-1.555.637-1.555 1.554v95.034c0 1.255.06 2.55 0 3.806h3.349c.398-5.36-.24-11.078-.24-16.218v-67.022c0-3.846-1.235-9.982 0-13.628.24-.717.28-1.016.26-1.155.059.019.179-.02.418-.14 1.934-1.036 9.209-.777 12.259-1.654 9.17-2.649 17.701-7.252 25.036-13.368 15.748-13.13 24.219-32.376 24.658-52.697-1.196-13.389-15.967-22.374-27.468-13.03-5.402 4.383-5.621 9.603-6.339 15.938-.698 6.296-2.691 12.233-6.379 17.413-5.182 7.272-11.561 9.424-18.857 13.389-3.508 1.913-2.83 3.048-3.588.737-.558-1.753 0-4.762 0-6.634v-21.279c0-9.523 1.535-20.64-8.152-26.298-11.382-6.655-23.92 2.111-24.757 14.285-.598 8.607 0 17.452 0 26.079v39.907c0 2.092 1.076 7.909 0 9.822.757-1.355-5.422-3.785-7.755-5.319-6.617-4.324-11.68-10.919-14.132-18.43-2.432-7.451-.379-15.52-5.78-21.836-4.227-4.961-11.024-6.953-17.263-5.239-16.206 4.442-13.116 24.266-9.309 36.519 5.083 16.337 16.385 30.483 31.176 39.11a69.75 69.75 0 0 0 10.465 4.941c2.432.916 5.481 2.271 8.113 2.49-2.691-.239 5.7.857 4.485-.339z" fill="#DB5510"/><path d="M142.403 252.33v48.752c0 .837 1.715.558 1.715-.159V252.19c0-.857-1.715-.578-1.715.14zm2.931 69.453v12.91c0 .438 1.714.139 1.714-.458v-12.911c0-.438-1.714-.139-1.714.459zm-2.931 35.224v34.069c0 .379 1.695.1 1.695-.458v-34.069c0-.379-1.695-.1-1.695.458zm-7.654-81.208v50.506c0 .917 1.734.677 1.734-.12V275.7c0-.917-1.734-.678-1.734.099zm.02 63.596v8.806c0 .518 1.694.199 1.694-.458v-8.806c0-.518-1.694-.2-1.694.458z" fill="#DB5510"/><path d="M131.819 235.315v11.157c0 .797 1.714.498 1.714-.159v-11.157c0-.817-1.714-.499-1.714.159z" fill="#F7931D"/><path d="M113.301 322.779c-13.854-11.217-25.834-26.299-24.897-45.027.02-.339-1.674-.1-1.694.438-.957 18.828 11.102 33.95 24.996 45.186.379.319 1.914-.338 1.595-.597zm-14.491-1.594a32.272 32.272 0 0 1-8.752-11.018c-.319-.637-1.973-.119-1.694.458 2.133 4.383 5.103 8.169 8.89 11.257.499.418 2.093-.259 1.555-.697zm-11.781-2.929c-9.608-10.519-14.592-24.227-13.934-38.452.04-.897-1.694-.677-1.734.12-.658 14.444 4.365 28.41 14.113 39.089.538.598 2.133-.099 1.555-.757zm106.802-72.362c-2.192 10.221-6.598 19.585-13.076 27.794-.08.119 1.376.079 1.694-.319 6.479-8.189 10.864-17.553 13.057-27.773.08-.359-1.595-.12-1.675.298zm-27.806 37.217c-1.914 2.411-4.724 3.586-7.794 3.168-.837-.12-1.714 1.076-.578 1.235 3.747.518 7.455-.936 9.787-3.905.678-.837-.937-1.096-1.415-.498z" fill="#DB5510"/><path d="M203.938 235.614c-.04-.359-1.754-.02-1.695.438.738 6.177-.438 12.074-3.448 17.513-.14.259 1.435.159 1.694-.279 3.03-5.499 4.186-11.456 3.449-17.672z" fill="#F7931D"/><path d="M207.306 255.776c-7.136 21.936-26.412 38.831-49.195 42.756-.877.139-1.356 1.275-.2 1.076 23.621-4.045 43.694-21.179 51.109-44.011.22-.677-1.495-.458-1.714.179zm-76.404 125.02v22.194c0 .458 2.013.12 2.013-.538v-22.214c0-.439-2.013-.12-2.013.558zm3.549 18.727v11.795c0 .896 2.013.518 2.013-.219v-11.795c0-.896-2.013-.518-2.013.219z" fill="#DB5510"/><path d="M213.626 431.959c.04 2.351-2.233 4.084-3.867 5.359-.618.458-.638 1.694-.04 2.172 3.608 2.948 8.731 7.013 7.395 12.332-1.814 7.292-11.362 2.212-15.209-.139-.697-.419-1.375-.219-1.814.219l-65.76 15.998c-.737.18-1.096.758-1.116 1.335-.08.16-.12.359-.14.578-.299 6.276-5.88 10.998-12.199 9.324-3.847-1.036-7.036-4.403-5.561-8.607 1.176-3.387 4.545-5.319 7.455-7.072 1.276-.777.837-2.83-.698-2.889-2.93-.12-5.741-.797-8.212-2.451-3.847-2.57-4.804-7.372-.578-10.181 5.421-3.646 11.441.618 15.508 4.603-1.017.916-.259 3.068 1.395 2.649l67.654-16.456c.697.279 1.515.119 1.834-.678.358-.378.478-.896.378-1.394.937-3.228 2.99-5.977 6.16-7.392 2.432-1.096 7.315-1.853 7.415 2.69z" fill="#F9F5F1"/><path d="M197.101 435.744l-64.982 15.819c-5.602-5.857-16.565-12.591-22.984-3.905-5.481 7.392 1.735 13.349 8.751 15.301-2.99 2.152-5.581 4.842-6.04 8.707-.538 4.443 2.532 8.149 6.459 9.822 8.292 3.566 16.903-2.291 17.78-10.838l64.764-15.78a1.08 1.08 0 0 0 .239-.079c5.322 3.108 14.252 6.913 18.139.079 3.608-6.375-1.315-12.352-6.02-16.456 2.133-1.953 3.768-4.423 3.449-7.491-.319-2.989-2.611-4.961-5.482-5.44-6.518-1.075-12.299 4.344-14.073 10.261zm16.525-3.785c.04 2.351-2.233 4.084-3.867 5.359-.618.458-.638 1.693-.04 2.172 3.608 2.948 8.731 7.013 7.395 12.332-1.814 7.292-11.362 2.212-15.209-.139-.698-.419-1.375-.219-1.814.219l-65.76 15.998c-.737.18-1.096.757-1.116 1.335-.08.16-.12.359-.14.578-.299 6.276-5.88 10.998-12.199 9.324-3.847-1.036-7.036-4.403-5.561-8.607 1.176-3.387 4.545-5.319 7.455-7.073 1.276-.777.837-2.829-.698-2.888-2.93-.12-5.741-.797-8.212-2.451-3.848-2.57-4.804-7.372-.578-10.181 5.421-3.646 11.441.618 15.508 4.602-1.017.917-.259 3.069 1.395 2.65l67.654-16.456c.697.278 1.515.119 1.834-.678.358-.378.478-.896.378-1.395.937-3.227 2.99-5.977 6.16-7.391 2.432-1.096 7.315-1.853 7.415 2.69z" fill="#DB5510"/><path d="M130.663 460.987l44.352-10.799c.957-.239 0-2.311-.778-2.112l-44.351 10.799c-.957.219 0 2.291.777 2.112zm52.126-12.173l7.475-1.813c.359-.1-.479-2.192-1.116-2.033l-7.475 1.813c-.359.1.478 2.192 1.116 2.033zm23.561-129.921a5.834 5.834 0 0 1 5.841-5.837c3.209 0 5.84 2.61 5.84 5.837 0 7.113 5.342 13.01 12.239 13.887v-16.018c0-3.148 2.552-5.679 5.701-5.679a5.677 5.677 0 0 1 5.681 5.679v29.227c5.88-1.653 10.226-7.073 10.226-13.468 0-3.228 2.611-5.838 5.82-5.838 3.23 0 5.841 2.61 5.841 5.838 0 12.871-9.508 23.549-21.887 25.382v24.725c0 3.128-2.551 5.678-5.681 5.678-3.149 0-5.701-2.55-5.701-5.678v-38.133c-13.335-.897-23.92-12.034-23.92-25.602zm295.272 48.016a5.248 5.248 0 0 1 5.243-5.24 5.235 5.235 0 0 1 5.242 5.24c0 6.395 4.804 11.695 11.003 12.472v-14.385c0-2.809 2.293-5.1 5.103-5.1 2.831 0 5.123 2.291 5.123 5.1v26.239c5.282-1.474 9.169-6.335 9.169-12.093a5.248 5.248 0 0 1 5.243-5.24 5.247 5.247 0 0 1 5.242 5.24c0 11.555-8.551 21.158-19.654 22.792v22.195a5.12 5.12 0 0 1-5.123 5.12c-2.81 0-5.103-2.291-5.103-5.12V389.9c-11.98-.817-21.488-10.818-21.488-22.991z" fill="#DB5510"/><path d="M522.373 292.774c-6.897 0-12.498 5.598-12.498 12.512v.657c0 10.759-8.751 19.505-19.515 19.505h-7.336v-67.162c0-7.909-6.418-14.325-14.332-14.325-7.913 0-14.332 6.416-14.332 14.325v37.118c-7.515-.379-13.515-6.595-13.515-14.186v-1.932c0-6.914-5.601-12.512-12.498-12.512-6.917 0-12.518 5.598-12.518 12.512v1.932c0 21.378 17.223 38.811 38.531 39.209v33.013h-8.013c-10.744 0-19.495-8.746-19.495-19.505 0-6.893-5.601-12.492-12.518-12.492-6.897 0-12.498 5.599-12.498 12.492 0 24.526 19.973 44.489 44.511 44.489h8.013v27.534h28.664v-55.526h7.336c24.558 0 44.511-19.963 44.511-44.489v-.657c0-6.914-5.581-12.512-12.498-12.512z" fill="#F9F5F1"/><path d="M523.031 291.419c-.18-.08-.399-.12-.658-.1-.259-.02-.479.02-.658.1-5.402.697-10.086 3.267-12.259 8.607-1.415 3.467-.698 7.133-1.694 10.699-2.293 8.308-9.688 12.791-17.94 13.269-1.755.099-4.764-.737-5.482 0 .02-.717.12-1.514.139-1.873.399-5.32 0-10.818 0-16.138v-39.966c0-9.085-.059-18.808-10.405-22.573-11.302-4.125-20.79 5.02-21.169 15.958-.199 5.479 0 10.998 0 16.477 0 4.184 1.894 14.584 0 18.409-.04.08-.04.1-.08.159-.059 0-.119 0-.219.02-1.535.419-8.193-6.156-8.671-7.013-2.452-4.343-.877-9.025-2.671-13.428-2.113-5.18-7.316-8.707-12.917-8.707-16.824 0-15.309 20.681-10.883 31.38a40.931 40.931 0 0 0 12.597 16.556 40.897 40.897 0 0 0 8.891 5.28 40.984 40.984 0 0 0 7.236 2.371c.079.02 6.976.976 6.119.239.419.358.598 1.295.598 3.745v8.269c0 5.618 1.435 13.468 0 18.986-.877.04-1.933-.099-2.551-.159-4.665-.578-8.632.159-13.117-2.47-11.302-6.635-5.182-20.103-14.87-26.977-12.777-9.025-23.083 4.782-21.667 16.776 1.893 16.098 12.498 30.303 27.368 36.758 6.897 3.009 13.993 3.766 21.428 3.806 1.097.02 2.193.04 3.27 0 .119 0 .219 0 .338-.02.299 1.952-.199 4.702-.199 6.475 0 5.419-.977 12.811-.518 19.625h3.408c-.438-9.125.02-18.39.02-27.535 0-.777-.677-1.454-1.455-1.454-10.465 0-20.372-.398-29.72-5.877-12.578-7.372-25.934-26.1-19.734-41.062.857-4.663 4.006-7.053 9.428-7.133 6.737.618 10.425 4.303 11.063 11.038.578 2.271.379 4.462 1.156 6.773a21.065 21.065 0 0 0 6.997 9.803c6.259 4.821 13.375 4.383 20.81 4.383.778 0 1.455-.677 1.455-1.455v-33.013c0-.816-.677-1.414-1.455-1.454-18.637-.976-41.202-18.529-37.076-39.687 1.176-5.957 4.844-10.201 11.063-11.058 7.694-1.056 9.887 6.794 11.043 12.014.479 2.132.2 4.204.957 6.356 2.173 6.016 7.495 9.364 13.615 10.22.916.12 1.853-.358 1.853-1.414v-31.678c0-8.328 2.053-18.33 12.877-18.33 9.987 0 12.877 9.145 12.877 17.174v62.878c0 .777.678 1.435 1.455 1.435 7.276 0 14.233.279 20.273-4.483 3.508-2.75 6.099-6.615 7.275-10.898 2.093-7.611.219-16.098 11.801-17.274 23.342 2.351 5.282 36.121-3.429 43.852-10.425 9.264-22.584 10.898-35.92 10.898-.777 0-1.455.677-1.455 1.454v55.527h3.389c.737-9.245-.479-19.286-.479-28.192v-20.242c0-1.534-.358-3.786-.139-5.499.718.398 2.711-.12 4.126-.14 17.94-.159 34.425-8.686 42.817-25.003 6.12-11.934 9.588-33.153-8.252-35.464z" fill="#DB5510"/><path d="M474.253 305.286v43.951c0 .498 1.874.159 1.874-.498v-43.951c0-.498-1.874-.18-1.874.498zm-9.069 16.656v12.611c0 .817 1.894.438 1.894-.219v-12.612c0-.816-1.894-.438-1.894.22zm.977 35.702v28.75c0 .299 1.873.04 1.873-.498v-28.75c0-.299-1.873-.04-1.873.498zm5.182-103.741v20.362c0 .359 1.874.08 1.874-.518v-20.342c0-.378-1.874-.079-1.874.498zm-8.75 10.5v5.818c0 .856 1.893.498 1.893-.2v-5.817c0-.857-1.893-.498-1.893.199zm56.789 45.863c-2.511 5.838-5.083 12.014-9.667 16.557-6.339 6.276-14.153 6.515-22.525 6.017-.877-.06-1.933 1.215-.678 1.295 7.276.418 14.751.597 21.03-3.666 6.917-4.722 10.425-12.592 13.634-20.043.399-.937-1.475-.897-1.794-.16zm4.805 9.942c-1.535 3.945-3.927 7.352-7.076 10.181-.459.399 1.335.259 1.714-.079a27.116 27.116 0 0 0 7.236-10.4c.159-.439-1.655-.239-1.874.298zm-48.059 85.75v-27.295c0-1.016-1.894-.777-1.894.12v27.175h1.894zm-.918-40.265v3.886c0 .996 1.894.737 1.894-.14v-3.885c0-.996-1.894-.737-1.894.139zm-31.474-5.339c-13.515-1.853-23.502-12.054-25.216-25.522-.1-.657-1.973-.219-1.874.498 1.774 13.807 12.16 24.187 25.954 26.06.598.1 2.192-.877 1.136-1.036zm-1.954 7.471c-1.694.06-3.309-.259-4.864-.916-.837-.359-2.172.856-1.076 1.314a13.44 13.44 0 0 0 5.801 1.036c1.096-.039 1.415-1.474.139-1.434zm-1.575-59.71c-4.146-.1-9.288-7.153-11.581-10.221-3.588-4.782-5.701-10.221-4.784-16.238.1-.657-1.774-.318-1.874.259-.976 6.476 1.436 12.293 5.402 17.314 2.791 3.526 7.156 9.742 12.08 9.862.658.02 2.013-.956.757-.976zm1.336-11.317c-3.07-.518-5.402-3.008-5.84-6.056-.04-.339-1.934.039-1.874.498.458 3.207 2.99 5.718 6.159 6.276.399.059.957-.06 1.316-.259.12-.06.658-.379.239-.459zm18.159-7.511v17.453c0 .458 1.874.14 1.874-.498v-17.453c0-.458-1.874-.159-1.874.498zm15.03-4.502v6.774c0 .816 1.874.438 1.874-.22v-6.774c0-.816-1.874-.438-1.874.22z" fill="#DB5510"/><path d="M63.149 373.523a4.291 4.291 0 0 0-4.286 4.284v.239a6.676 6.676 0 0 1-6.678 6.674h-2.511v-23.011c0-2.71-2.213-4.901-4.924-4.901a4.898 4.898 0 0 0-4.904 4.901v12.731c-2.57-.14-4.624-2.271-4.624-4.861v-.678a4.29 4.29 0 0 0-4.286-4.283 4.29 4.29 0 0 0-4.285 4.283v.678c0 7.311 5.9 13.288 13.195 13.428v11.296h-2.75c-3.668 0-6.678-2.988-6.678-6.674a4.277 4.277 0 0 0-4.286-4.283 4.29 4.29 0 0 0-4.285 4.283c0 8.408 6.857 15.241 15.249 15.241h2.75v10.44a4.903 4.903 0 0 0 4.904 4.921 4.92 4.92 0 0 0 4.924-4.921v-20.023h2.511c8.412 0 15.25-6.833 15.25-15.241v-.239a4.291 4.291 0 0 0-4.286-4.284z" fill="#F18750"/><path d="M519.642 455.408a13.205 13.205 0 0 0-5.98.359c-.239.06-.518.139-.817.219 1.136-3.028 1.794-6.276 2.611-9.463.14-.538-.399-1.096-.957-.817a41.598 41.598 0 0 0-6.638 4.383c-.378-4.941-3.528-9.543-5.76-13.847-.22-.438-.897-.518-1.176-.08a34.316 34.316 0 0 0-4.505 10.64 15.822 15.822 0 0 0-1.515-1.933c-1.116-1.235-3.608-3.746-5.462-3.327-2.013.438-1.136 3.805-1.017 5.22.2 2.63.559 5.259 1.177 7.83-2.691.259-5.283.896-7.735 2.052-2.571 1.195-3.488 1.992-1.176 4.084 5.123 4.582 10.804 9.065 18 9.145 0 0 .02 0 .02.02a.62.62 0 0 0 .279.139c.18.12.439.16.678.08.359-.02.737-.16 1.096-.359 8.033-1.574 15.05-6.156 21.548-10.898 2.751-1.972-.598-3.088-2.671-3.447z" fill="#F9F8F1"/><path d="M519.642 455.408a13.205 13.205 0 0 0-5.98.359c-.239.06-.518.139-.817.219 1.136-3.028 1.794-6.276 2.611-9.463.14-.538-.399-1.096-.957-.817a41.598 41.598 0 0 0-6.638 4.383c-.378-4.941-3.528-9.543-5.76-13.847-.22-.438-.897-.518-1.176-.08a34.316 34.316 0 0 0-4.505 10.64 15.822 15.822 0 0 0-1.515-1.933c-1.116-1.235-3.608-3.746-5.462-3.327-2.013.438-1.136 3.805-1.017 5.22.2 2.63.559 5.259 1.177 7.83-2.691.259-5.283.896-7.735 2.052-2.571 1.195-3.488 1.992-1.176 4.084 5.123 4.582 10.804 9.065 18 9.145 0 0 .02 0 .02.02a.62.62 0 0 0 .279.139c.18.12.439.16.678.08.359-.02.737-.16 1.096-.359 8.033-1.574 15.05-6.156 21.548-10.898 2.751-1.972-.598-3.088-2.671-3.447zm-34.923 7.033c-1.077-.876-2.452-1.793-3.309-2.889-.479-.617-.698-.358-.219-1.055.259-.379 1.216-.618 1.614-.797 2.253-1.017 4.665-1.594 7.136-1.794.04.08.06.16.08.259.977 3.348 2.452 6.476 4.485 9.245a23.331 23.331 0 0 1-7.933-6.276c-.12-.139-.638 0-.519.179a23.767 23.767 0 0 0 8.97 6.774 25.177 25.177 0 0 0 2.054 2.331c-4.645-.518-8.731-2.988-12.359-5.977zm14.531 5.28a427.35 427.35 0 0 1-6.059-17.891c-.06-.239-.618-.14-.539.099a441.263 441.263 0 0 0 6.14 18.151c.04.099.159.139.299.139-.06.04-.1.06-.14.12a27.422 27.422 0 0 1-1.714-1.694c.02-.06.02-.099-.08-.119-.02-.02-.04-.02-.06-.02-2.232-2.491-3.926-5.419-5.083-8.587a35.004 35.004 0 0 1-.897-2.869c0-.1-.019-.18-.059-.279a44.46 44.46 0 0 1-.818-3.925 54.095 54.095 0 0 1-.418-3.566c-.08-.737-.12-1.475-.16-2.212-.04-.797-.418-1.474.459-1.733 1.874-.538 4.584 3.247 5.422 4.562 1.255 1.973 2.053 4.184 2.631 6.436.438 1.713.857 3.526 1.156 5.379-.02.099 0 .199.04.279.379 2.61.458 5.26-.12 7.73zm1.715-10.739v-2.61c.019-1.075.059-2.131.119-3.207.12-2.132.339-4.244.598-6.356.04-.299-.518-.259-.538-.02a92.822 92.822 0 0 0-.658 7.432c-.04 1.076-.06 2.171-.08 3.247 0 .518-.119 1.235-.039 1.853a50.653 50.653 0 0 0-1.635-5.838 24.521 24.521 0 0 0-1.296-2.988 32.76 32.76 0 0 1 4.027-10.579c2.232 4.104 5.143 8.587 5.063 13.289-2.033 1.793-3.867 3.805-5.522 5.996 0-.079-.02-.139-.039-.219zm-.459 11.377c.199-.758.319-1.535.419-2.331a87.006 87.006 0 0 0 8.372-11.217c.159-.279-.379-.339-.519-.12-2.312 3.706-4.923 7.192-7.774 10.5.14-1.753.04-3.567-.199-5.38a39.52 39.52 0 0 1 6.618-7.59.582.582 0 0 0 .419-.359 38.006 38.006 0 0 1 5.94-4.204c-.718 3.048-1.376 6.216-2.612 9.085-.239.199-.418.439-.498.718-.02.099-.02.239 0 .358a22.084 22.084 0 0 1-1.096 1.873c-1.296 1.893-2.911 3.526-4.645 5.021a42.3 42.3 0 0 1-2.352 1.892c-.239.2-1.296 1.156-2.073 1.754zm20.332-10.102c-.478.359-.977.698-1.475 1.036a110.998 110.998 0 0 1-4.046 2.73c-3.768 2.391-7.715 4.463-11.98 5.718.059-.04.099-.08.139-.12a47.573 47.573 0 0 0 3.289-2.729 97.536 97.536 0 0 1 9.429-6.097c.239-.139-.299-.139-.419-.059a97.578 97.578 0 0 0-7.615 4.781c.419-.418.818-.857 1.216-1.315a19.674 19.674 0 0 0 2.512-3.945.533.533 0 0 0 .239-.338c.02-.04.02-.08.02-.12.02-.04.02-.099.02-.159.02-.02.02-.04.04-.04.877-.677 3.927-.996 4.605-1.016 1.275-.06 3.528-.1 4.584.677.2.06.419.12.618.18-.399.259-.777.538-1.176.816z" fill="#F18750"/><path d="M92.95 471.486c-1.994-.338-4.047-.239-5.98.339-.24.06-.52.14-.818.219 1.136-3.028 1.794-6.276 2.611-9.443.14-.538-.398-1.116-.957-.817a39.005 39.005 0 0 0-6.637 4.383c-.38-4.961-3.529-9.563-5.761-13.867-.22-.438-.897-.498-1.176-.079a34.303 34.303 0 0 0-4.505 10.639 15.753 15.753 0 0 0-1.515-1.933c-1.116-1.235-3.608-3.746-5.462-3.327-1.993.458-1.136 3.825-1.016 5.22.199 2.63.558 5.26 1.176 7.83-2.671.259-5.283.916-7.734 2.052-2.572 1.195-3.489 1.992-1.157 4.084 5.103 4.602 10.804 9.085 17.98 9.145l.02.02c.1.08.18.119.28.139.179.14.438.16.677.08.359-.02.737-.159 1.096-.339 8.034-1.594 15.05-6.176 21.568-10.898 2.731-1.992-.618-3.108-2.69-3.447z" fill="#F9F5F1"/><path d="M92.95 471.485c-1.994-.339-4.047-.239-5.98.339-.24.059-.52.139-.818.219 1.136-3.029 1.794-6.276 2.611-9.444.14-.538-.398-1.116-.957-.817a39.065 39.065 0 0 0-6.637 4.383c-.38-4.961-3.529-9.563-5.761-13.866-.22-.439-.897-.498-1.176-.06a34.005 34.005 0 0 0-4.505 10.619 15.83 15.83 0 0 0-1.515-1.933c-1.116-1.235-3.608-3.745-5.462-3.327-1.993.458-1.136 3.826-1.016 5.22.199 2.63.558 5.26 1.176 7.83-2.671.259-5.283.917-7.734 2.052-2.572 1.196-3.489 1.992-1.157 4.084 5.103 4.603 10.804 9.085 17.98 9.145l.02.02c.1.08.18.12.28.14.179.139.438.159.677.079.359-.02.737-.159 1.096-.338 8.034-1.594 15.05-6.177 21.568-10.898 2.731-1.993-.618-3.108-2.69-3.447zm-34.924 7.033c-1.057-.897-2.452-1.813-3.309-2.889-.478-.618-.698-.379-.22-1.076.26-.359 1.217-.618 1.615-.797 2.273-1.016 4.665-1.594 7.156-1.793.02.08.04.179.06.259.977 3.347 2.452 6.495 4.485 9.244a23.543 23.543 0 0 1-7.933-6.275c-.12-.14-.638.019-.499.179a23.556 23.556 0 0 0 8.95 6.774 22.784 22.784 0 0 0 2.074 2.331c-4.665-.518-8.751-2.989-12.379-5.957zm14.531 5.26a401.495 401.495 0 0 1-6.04-17.892c-.08-.239-.637-.139-.558.1a441.062 441.062 0 0 0 6.14 18.15c.04.12.18.14.299.14-.04.039-.1.079-.12.119a23.326 23.326 0 0 1-1.734-1.693c.02-.04.02-.1-.08-.12-.02 0-.04-.02-.04-.02-2.252-2.49-3.946-5.419-5.102-8.567a29.955 29.955 0 0 1-.877-2.889c-.02-.079-.04-.179-.08-.259a46.219 46.219 0 0 1-.817-3.945 52.674 52.674 0 0 1-.42-3.566c-.079-.737-.119-1.474-.159-2.211-.04-.797-.398-1.475.459-1.714 1.874-.538 4.585 3.228 5.422 4.543 1.256 1.972 2.053 4.204 2.631 6.455.439 1.693.877 3.506 1.156 5.359-.02.1 0 .2.04.279.379 2.61.458 5.26-.12 7.731zm1.715-10.739v-.538c0-.697 0-1.375.02-2.072.02-1.076.06-2.132.12-3.188.099-2.132.318-4.263.577-6.375.04-.279-.518-.259-.538-.02a93.434 93.434 0 0 0-.658 7.431 89.274 89.274 0 0 0-.06 3.268c-.02.498-.14 1.215-.06 1.833a49.028 49.028 0 0 0-1.634-5.818 23.635 23.635 0 0 0-1.296-3.009 32.946 32.946 0 0 1 4.027-10.579c2.252 4.104 5.143 8.587 5.083 13.309-2.053 1.793-3.887 3.805-5.541 5.977 0-.06-.02-.139-.04-.219zm-.459 11.376c.2-.757.34-1.534.419-2.331a86.777 86.777 0 0 0 8.372-11.217c.16-.259-.379-.339-.498-.119a87.562 87.562 0 0 1-7.794 10.519c.139-1.773.04-3.586-.2-5.399a38.844 38.844 0 0 1 6.618-7.571.68.68 0 0 0 .419-.359 40.58 40.58 0 0 1 5.94-4.223c-.718 3.048-1.376 6.236-2.611 9.105a1.33 1.33 0 0 0-.499.697c-.02.12-.02.239 0 .359a14.785 14.785 0 0 1-1.096 1.872c-1.296 1.893-2.91 3.547-4.645 5.041-.757.657-1.554 1.275-2.352 1.893-.239.179-1.275 1.135-2.073 1.733zm20.332-10.101c-.478.359-.977.697-1.475 1.036a110.212 110.212 0 0 1-4.046 2.729c-3.768 2.391-7.715 4.463-11.98 5.718.06-.039.1-.079.14-.099 1.135-.877 2.252-1.773 3.288-2.75a93.839 93.839 0 0 1 9.429-6.076c.239-.14-.3-.14-.419-.08a91.833 91.833 0 0 0-7.614 4.802c.418-.439.817-.877 1.215-1.335a19.677 19.677 0 0 0 2.512-3.945c.12-.06.22-.179.24-.319.02-.04.02-.08.04-.119 0-.06.02-.12.02-.16 0-.02 0-.04.02-.06.876-.677 3.926-.976 4.624-1.016 1.255-.059 3.528-.099 4.564.678.2.06.419.119.618.179-.398.279-.777.558-1.176.817z" fill="#F18750"/><path d="M335.697 419.746a21.03 21.03 0 0 0-9.647.259c-.379.099-.837.199-1.316.318 1.974-4.841 3.189-10.021 4.665-15.102.239-.856-.598-1.793-1.495-1.354a65.524 65.524 0 0 0-10.924 6.714c-.359-7.97-5.183-15.54-8.571-22.573-.339-.718-1.416-.857-1.874-.18-3.568 5.22-6.179 10.839-7.794 16.895-.698-1.115-1.455-2.191-2.332-3.187-1.754-2.033-5.621-6.197-8.631-5.619-3.249.618-2.014 6.077-1.894 8.328.199 4.264.638 8.507 1.515 12.671-4.346.299-8.551 1.196-12.558 2.929-4.206 1.793-5.701 3.028-2.073 6.515 7.973 7.631 16.923 15.142 28.485 15.6.02 0 .04.02.04.04a.915.915 0 0 0 .438.219c.299.239.718.299 1.076.179.598-.02 1.196-.219 1.794-.518 12.997-2.131 24.518-9.184 35.243-16.456 4.485-3.069-.838-5.021-4.147-5.678z" fill="#F9F5F1"/><path d="M335.697 419.746a21.03 21.03 0 0 0-9.647.259c-.379.099-.837.199-1.316.318 1.974-4.841 3.189-10.021 4.665-15.102.239-.856-.598-1.793-1.495-1.354a65.524 65.524 0 0 0-10.924 6.714c-.359-7.97-5.183-15.54-8.571-22.573-.339-.718-1.416-.857-1.874-.18-3.568 5.22-6.179 10.839-7.794 16.895-.698-1.115-1.455-2.191-2.332-3.187-1.754-2.033-5.621-6.197-8.631-5.619-3.249.618-2.014 6.077-1.894 8.328.199 4.264.638 8.507 1.515 12.671-4.346.299-8.551 1.196-12.558 2.929-4.206 1.793-5.701 3.028-2.073 6.515 7.973 7.631 16.923 15.142 28.485 15.6.02 0 .04.02.04.04a.915.915 0 0 0 .438.219c.299.239.718.299 1.076.179.598-.02 1.196-.219 1.794-.518 12.997-2.131 24.518-9.184 35.243-16.456 4.485-3.069-.838-5.021-4.147-5.678zm-56.55 9.583c-1.675-1.475-3.848-3.009-5.183-4.822-.758-1.016-1.116-.637-.299-1.713.438-.578 1.993-.937 2.611-1.196 3.708-1.534 7.615-2.331 11.601-2.55.04.14.08.279.1.419 1.415 5.439 3.628 10.559 6.757 15.102a37.711 37.711 0 0 1-12.438-10.48c-.199-.239-1.037-.02-.837.259a38.362 38.362 0 0 0 14.073 11.356 41.897 41.897 0 0 0 3.209 3.845c-7.475-1.076-13.894-5.259-19.594-10.22zm23.122 9.204a670.279 670.279 0 0 1-8.85-29.088c-.12-.398-.997-.259-.897.12a730.335 730.335 0 0 0 8.99 29.526c.06.159.259.239.458.219-.06.06-.139.12-.199.2a39.582 39.582 0 0 1-2.691-2.81c.04-.079.02-.159-.12-.219-.04 0-.059-.02-.079-.02-3.509-4.104-6.08-8.906-7.774-14.046-.519-1.534-.917-3.108-1.296-4.682 0-.139-.04-.299-.1-.438a63.682 63.682 0 0 1-1.096-6.376 79.898 79.898 0 0 1-.518-5.757 71.798 71.798 0 0 1-.14-3.567c-.04-1.275-.578-2.39.837-2.749 3.03-.777 7.196 5.419 8.472 7.591 1.934 3.247 3.11 6.853 3.927 10.499.618 2.77 1.216 5.718 1.595 8.707-.02.159 0 .319.059.458.479 4.204.479 8.487-.578 12.432zm3.289-17.214c0-.278.02-.557.02-.856.02-1.116.06-2.232.12-3.347.08-1.714.199-3.427.359-5.121.279-3.426.717-6.833 1.255-10.22.08-.459-.817-.459-.877-.06a150.835 150.835 0 0 0-1.395 11.934 114.98 114.98 0 0 0-.299 5.24c-.02.817-.259 1.972-.179 2.948-.578-3.327-1.416-6.534-2.333-9.463a39.183 39.183 0 0 0-1.933-4.861c1.375-6.057 3.688-11.656 6.996-16.856 3.409 6.715 7.854 14.086 7.515 21.657a63.97 63.97 0 0 0-9.189 9.384c-.02-.12-.02-.239-.06-.379zm-1.315 18.29c.358-1.215.618-2.45.797-3.726a140.875 140.875 0 0 0 14.033-17.652c.279-.418-.598-.538-.817-.199-3.907 5.838-8.273 11.337-13.037 16.537.299-2.83.24-5.778-.079-8.687a62.556 62.556 0 0 1 11.043-11.874.998.998 0 0 0 .677-.558 62.683 62.683 0 0 1 9.788-6.495c-1.316 4.861-2.512 9.961-4.665 14.504-.378.299-.677.677-.817 1.116-.06.179-.06.378-.04.577-.558 1.017-1.156 2.013-1.854 2.969-2.152 2.989-4.863 5.539-7.714 7.87-1.256 1.016-2.551 1.972-3.867 2.928-.418.299-2.133 1.774-3.448 2.69zm33.229-15.241a172.69 172.69 0 0 1-2.412 1.594c-2.193 1.434-4.406 2.849-6.658 4.184-6.179 3.665-12.638 6.813-19.555 8.626l.239-.179a79.07 79.07 0 0 0 5.422-4.244 155.92 155.92 0 0 1 15.449-9.344c.398-.199-.459-.219-.658-.119a159.408 159.408 0 0 0-12.478 7.332 39.62 39.62 0 0 0 1.993-2.072c1.734-1.933 3.09-4.025 4.246-6.217a.784.784 0 0 0 .418-.518c.02-.079.04-.139.04-.199.04-.08.04-.179.04-.259.02-.02.04-.06.04-.08 1.475-1.055 6.399-1.394 7.495-1.394 2.033-.04 5.681.02 7.335 1.315.319.099.658.199.977.299-.638.438-1.276.856-1.933 1.275z" fill="#DB5510"/><path d="M305.937 414.565a17.065 17.065 0 0 0-7.136 2.849c-.259.18-.578.379-.897.598.139-4.144-.379-8.368-.678-12.552-.04-.717-.937-1.175-1.475-.617a52.806 52.806 0 0 0-6.319 8.029c-2.472-5.858-8.153-10.181-12.598-14.504-.458-.439-1.295-.259-1.455.378-1.236 4.881-1.634 9.783-1.176 14.763-.837-.637-1.694-1.235-2.631-1.753-1.854-1.036-5.9-3.068-7.993-1.813-2.253 1.355.179 5.101.877 6.754 1.315 3.108 2.83 6.176 4.624 9.045-3.169 1.395-6.06 3.248-8.591 5.639-2.631 2.49-3.409 3.825.259 5.419 8.073 3.526 16.804 6.654 25.575 3.825.019 0 .019.02.039.02.14.06.279.06.379.06.279.079.618.02.857-.18.439-.159.837-.478 1.216-.876 9.11-5.16 15.767-13.588 21.767-21.976 2.512-3.526-1.993-3.526-4.644-3.108z" fill="#F9F5F1"/><path d="M305.937 414.565a17.065 17.065 0 0 0-7.136 2.849c-.259.18-.578.379-.897.598.139-4.144-.379-8.368-.678-12.552-.04-.717-.937-1.175-1.475-.617a52.806 52.806 0 0 0-6.319 8.029c-2.472-5.858-8.153-10.181-12.598-14.504-.458-.439-1.295-.259-1.455.378-1.236 4.881-1.634 9.783-1.176 14.763-.837-.637-1.694-1.235-2.631-1.753-1.854-1.036-5.9-3.068-7.993-1.813-2.253 1.355.179 5.101.877 6.754 1.315 3.108 2.83 6.176 4.624 9.045-3.169 1.395-6.06 3.248-8.591 5.639-2.631 2.49-3.409 3.825.259 5.419 8.073 3.526 16.804 6.654 25.575 3.825.019 0 .019.02.039.02.14.06.279.06.379.06.279.079.618.02.857-.18.439-.159.837-.478 1.216-.876 9.11-5.16 15.767-13.588 21.767-21.976 2.512-3.526-1.993-3.526-4.644-3.108zm-39.608 22.713c-1.654-.638-3.707-1.195-5.202-2.172-.837-.558-.997-.179-.698-1.215.18-.538 1.236-1.235 1.635-1.614 2.352-2.152 5.043-3.825 7.973-5.08.06.099.12.199.179.279 2.552 3.686 5.622 6.893 9.21 9.423a29.93 29.93 0 0 1-12.18-4.403c-.219-.139-.797.259-.558.419a30.201 30.201 0 0 0 13.635 4.602c1.116.737 2.252 1.415 3.468 1.992-5.88 1.256-11.84-.079-17.462-2.231zm19.794.518a577.007 577.007 0 0 1-14.611-19.306c-.179-.259-.817.08-.618.339a568.317 568.317 0 0 0 14.831 19.585c.079.119.259.099.398.039-.04.06-.08.12-.099.2a27.53 27.53 0 0 1-2.771-1.355c0-.06-.02-.12-.16-.12h-.059c-3.748-2.112-6.997-4.98-9.668-8.367-.817-.997-1.555-2.053-2.253-3.128a.767.767 0 0 0-.199-.299 58.935 58.935 0 0 1-2.591-4.463 61.032 61.032 0 0 1-1.954-4.164 82.19 82.19 0 0 1-1.096-2.63c-.379-.936-1.076-1.614-.12-2.271 2.053-1.415 6.857 2.072 8.412 3.347 2.332 1.893 4.226 4.263 5.841 6.754 1.216 1.913 2.471 3.945 3.568 6.057.02.139.079.239.159.338 1.535 3.009 2.711 6.196 2.99 9.444zm-2.272-13.767c-.06-.219-.14-.418-.219-.638-.28-.836-.559-1.693-.818-2.53a90.513 90.513 0 0 1-1.156-3.945 122.486 122.486 0 0 1-1.874-7.969c-.059-.359-.717-.12-.657.199a114.834 114.834 0 0 0 2.232 9.304c.379 1.335.778 2.67 1.216 3.985.199.618.359 1.534.678 2.251a59.186 59.186 0 0 0-4.346-6.415c-.857-1.096-1.774-2.152-2.79-3.108a42.162 42.162 0 0 1 .598-14.504c4.405 4.064 9.747 8.368 11.581 14.106a51.281 51.281 0 0 0-4.306 9.523c-.02-.08-.079-.159-.139-.259zm4.066 14.026a22.894 22.894 0 0 0-.438-3.008 110.673 110.673 0 0 0 5.621-17.035c.1-.378-.578-.239-.658.06-1.316 5.459-3.07 10.758-5.203 15.939-.558-2.192-1.395-4.364-2.431-6.476 1.156-4.183 2.81-8.188 4.963-11.894a.792.792 0 0 0 .359-.597 50.673 50.673 0 0 1 5.521-7.532c.359 3.985.857 8.129.519 12.114-.2.339-.319.677-.319 1.056.02.139.059.299.139.438a25.398 25.398 0 0 1-.558 2.73c-.797 2.829-2.113 5.479-3.608 7.989-.658 1.116-1.375 2.191-2.093 3.247-.219.339-1.096 1.933-1.814 2.969zm20.631-20.521l-1.375 1.853c-1.256 1.673-2.512 3.347-3.827 4.961-3.608 4.443-7.555 8.567-12.239 11.814.059-.06.099-.139.139-.199a62.021 62.021 0 0 0 2.87-4.662 124.485 124.485 0 0 1 8.99-11.217c.24-.259-.418-.06-.538.08a124.426 124.426 0 0 0-7.295 8.906c.319-.678.637-1.395.917-2.092.757-1.913 1.196-3.846 1.455-5.818a.621.621 0 0 0 .179-.498c-.02-.06-.02-.1-.02-.159-.02-.08-.02-.14-.04-.2v-.079c.798-1.176 4.386-2.79 5.203-3.108 1.515-.578 4.246-1.535 5.84-1.017.279-.019.539-.039.818-.039-.359.498-.718.976-1.077 1.474z" fill="#DB5510"/><path d="M435.584 391.674c-1.635 11.057-7.914 21.059-17.163 27.354-.339-.079-.678.06-.897.279-2.811-1.135-4.106-4.562-5.781-6.973-1.375-1.992-3.01-3.208-5.222-4.164-.419-.179-.857-.358-1.276-.558a72.456 72.456 0 0 0 30.339-15.938zm-87.647 5.299c-.399-5.738-.26-13.11 2.87-18.23.458 1.295.319 3.706.438 4.642.14 1.196.339 2.411.618 3.587.618 2.729 1.615 5.399 3.07 7.79 2.452 3.984 6.14 7.033 10.645 8.367-3.549 2.969-6.519 6.515-8.851 10.44-5.701-3.566-8.312-10.061-8.79-16.596zm68.47 39.747c-1.216 1.833-3.368 5.4-5.481 6.376-2.173 1.016-2.99-1.156-5.004-.877-3.807.538-3.488 5.838-4.724 8.408-2.252 4.662-6.996 8.447-10.863 11.755-1.296 1.135-5.801 5.897-7.276 4.582-.16-.119-.319-1.215-.479-1.494-.259-.439-.657-.797-1.076-1.076-2.193-1.534-5.103-.677-6.717 1.215-1.176 1.375-1.695 3.088-2.233 4.762-.718 2.152-1.296 2.55-3.668 2.749-1.435.12-2.97-.079-4.405-.099-2.83-.08-5.701-.06-8.551-.199-1.615-.1-5.442-.977-6.558-2.77.079-.119.159-.259.159-.438.1-.877.259-1.733.459-2.59.019 0 .019 0 .019-.02.24-.259.28-.538.2-.797 1.315-4.622 3.986-8.826 4.525-13.667.717-6.236-2.113-12.333-2.053-18.589.159-11.854 5.82-23.191 15.129-30.483.279-.199.339-.458.279-.697 2.173-1.733 4.784-2.749 7.595-2.829 2.89-.08 5.102 1.096 7.694 2.171 4.565 1.873 9.468-.179 13.973 1.395 2.372.817 3.269 3.307 5.262 4.642 2.452 1.634 5.283 2.032 7.216 4.463 2.632 3.327 4.027 7.989 8.651 8.707 3.927 4.443.818 11.057-2.073 15.4z" fill="#F9F5F1"/><path d="M437.537 389.522c.08-.777-.957-1.056-1.455-.598a70.676 70.676 0 0 1-33.01 17.453 3.337 3.337 0 0 1-.418-.359c-.957-.916-1.535-2.092-2.572-2.928-1.535-1.236-3.488-1.654-5.402-1.754-2.611-.119-5.242.319-7.833-.02-2.751-.378-5.024-2.091-7.715-2.729-4.425-1.016-8.99.239-12.418 3.108a.29.29 0 0 0-.14-.04c-6.059-1.594-10.285-6.515-12.279-12.312-.976-2.869-1.435-5.878-1.614-8.886-.1-1.574-.06-2.969-1.475-3.905-.419-.259-.917-.04-1.176.299-4.286 5.777-4.485 15.321-3.588 22.154.837 6.456 3.827 12.552 9.448 16.059a41.413 41.413 0 0 0-4.784 16.357 37.74 37.74 0 0 0 .239 8.208c.519 3.825 1.914 7.591 1.794 11.496-.179 5.339-3.189 9.981-4.624 15.042-1.396 1.913-1.037 4.483.658 6.216 2.77 2.809 7.913 2.172 11.461 2.251 2.751.06 5.502.14 8.253.18 1.435.02 2.95.199 4.006-.976 1.097-1.196 1.256-3.128 1.814-4.583.518-1.355 1.196-2.65 2.472-3.407.717-.418 1.296-.597 2.133-.458 1.574.259 1.574.857 2.073 2.371 1.016 3.108 3.508 1.155 5.362-.279 4.046-3.108 7.913-6.455 11.462-10.121 3.129-3.228 4.784-6.276 5.88-10.599.139-.498.279-1.335.598-1.734 2.81-3.347 2.073-.637 3.169-.159.359.179.658.498 1.057.618 1.734.478 3.189-1.116 4.265-2.172 5.163-5.1 12.598-15.999 6.858-22.832-.02-.14-.08-.279-.14-.399a42.104 42.104 0 0 0 17.641-30.562zm-89.6 7.451c-.399-5.738-.259-13.109 2.87-18.23.459 1.295.319 3.706.439 4.642a31.05 31.05 0 0 0 .618 3.587c.617 2.729 1.614 5.399 3.069 7.79 2.452 3.984 6.14 7.033 10.645 8.367a40.687 40.687 0 0 0-8.851 10.44c-5.701-3.566-8.312-10.061-8.79-16.596zm68.471 39.767c-1.216 1.813-3.369 5.38-5.482 6.356-2.173 1.016-2.99-1.156-5.003-.877-3.808.538-3.489 5.838-4.724 8.408-2.253 4.662-6.997 8.447-10.864 11.755-1.296 1.135-5.801 5.897-7.276 4.582-.159-.12-.319-1.215-.478-1.494-.259-.439-.658-.797-1.077-1.076-2.192-1.534-5.103-.678-6.717 1.215-1.176 1.375-1.694 3.088-2.233 4.762-.418 1.275-.817 1.913-1.535 2.291-.099-.119-.418-.199-.697-.1-.897-.199-1.794-.378-2.691-.577-.02-.618-.02-1.216.02-1.813-.04-.797.079-.04-.12-1.196-.06-.358-1.156-.099-1.096.299.02.478.04.956.04 1.415-1.535 2.371-2.791 2.689-3.728.976-.957-1.136-.777-1.395-.737-2.809 0-.459-.997-.2-1.097.139-.418 1.514-1.256 4.463-3.667 3.606-2.074-.717-.977-2.809-.519-4.164.14-.458-.937-.079-1.056.06-.439.498-.439 1.096-.798 1.554-2.033 2.57-3.647 2.271-4.883-.179-.06-.14-.259-.18-.479-.14 0-.04.02-.079.02-.119a22.6 22.6 0 0 1 .459-2.59c.02 0 .02 0 .02-.02.239-.259.279-.538.199-.797 1.316-4.622 3.987-8.826 4.525-13.668.718-6.236-2.113-12.332-2.053-18.588.159-11.854 5.82-23.191 15.129-30.483.279-.199.339-.458.279-.697 2.173-1.733 4.784-2.75 7.595-2.829 2.89-.08 5.103 1.096 7.694 2.171 4.565 1.873 9.468-.179 13.973 1.395 2.372.817 3.269 3.307 5.263 4.642 2.452 1.634 5.282 2.032 7.216 4.463 2.631 3.327 4.026 7.989 8.651 8.707 3.927 4.442.817 11.057-2.073 15.42zm2.013-17.712c-.339-.079-.678.06-.897.279-2.811-1.135-4.106-4.562-5.781-6.973-1.375-1.992-3.01-3.208-5.222-4.164-.419-.179-.857-.359-1.276-.558a72.462 72.462 0 0 0 30.339-15.938c-1.635 11.057-7.914 21.059-17.163 27.354z" fill="#DB5510"/><path d="M400.9 425.185c-.319-6.017-5.004-11.038-11.203-11.038-6.119 0-11.222 5.1-11.222 11.217 0 6.076 5.103 11.237 11.222 11.217 6.199-.04 10.884-5.021 11.203-11.038 0-.06.02-.119 0-.179.02-.08 0-.12 0-.179zm-8.95 3.825a10.286 10.286 0 0 0 1.315-4.204.84.84 0 0 0-.119-.518l.179-.837a11.542 11.542 0 0 1-1.595 6.216c.08-.219.16-.438.22-.657zm-2.253-13.448c.419 0 .817.039 1.216.079-.1.219-.1.478.08.737l.119.18a.612.612 0 0 0-.199.299c-.399-.578-.917-1.036-1.615-1.276.14 0 .26-.019.399-.019zm.419 13.009l.02.02c-.04.14-.08.279-.14.399a5.294 5.294 0 0 1-.837.936c.339-.438.658-.896.957-1.355zm-8.133-5.917c-.04.14-.1.279-.14.419a.824.824 0 0 0-.219.538v.079c-.02.02-.02.02-.02.04-.08-.02-.159-.02-.239-.02.179-.378.399-.757.638-1.116 0 .02-.02.04-.02.06zm-1.196-1.315a9.833 9.833 0 0 1 3.528-4.124c-1.415 1.235-2.631 2.889-3.528 4.124zm4.166-2.072c-.02 0-.04.02-.06.02.16-.179.339-.339.538-.498.02.12.02.239.04.359-.08.04-.139.079-.219.119-.1 0-.199-.02-.299 0zm1.096 14.325a3.873 3.873 0 0 1-.717-.339c.099-.139.199-.298.219-.478.199 0 .399 0 .598-.04-.04.18-.06.359-.1.558-.02.1-.02.2 0 .299zm2.99 1.534c2.532-1.335 4.565-4.921 5.342-7.152 1.376-4.025.678-8.328-1.534-11.875a9.196 9.196 0 0 1 2.75 1.495c0 .079 0 .179.02.259 1.695 5.678.778 11.555-2.551 16.436-.06.1-.08.2-.08.279a9.506 9.506 0 0 1-3.289.578c-.239 0-.438-.02-.658-.02zm5.761-1.454c2.611-4.443 3.409-9.603 2.292-14.624a10.357 10.357 0 0 1 2.392 6.316c-.119 3.486-1.933 6.575-4.684 8.308z" fill="#DB5510"/><path d="M388.381 440.486c-7.574-1.873-12.418-8.587-11.94-16.337.04-.538-1.076-.339-1.096.099-.518 8.069 4.545 14.963 12.379 16.915.418.1 1.295-.518.657-.677zm8.073 8.905c-1.515 1.694-2.611 3.666-3.847 5.559-1.734 2.61-3.927 4.383-6.518 6.117-.439.298.638.159.837.019 1.974-1.315 3.927-2.669 5.462-4.522 1.874-2.311 3.07-5.041 5.063-7.252.199-.259-.817-.12-.997.079zm6.818-8.009c-.24-.079-.598.04-.778.2-.399.338-.817.697-1.216 1.036-.179.159-.1.298.1.358.239.08.598-.04.777-.199.399-.359.798-.697 1.216-1.036.18-.159.1-.299-.099-.359zm12.797-8.467c-.738 2.849-2.332 5.26-4.684 7.033-.479.358.617.338.877.139a13.322 13.322 0 0 0 4.903-7.312c.08-.378-1.016-.219-1.096.14z" fill="#F18750"/><path d="M366.774 457.461c-.917-2.013-1.296-4.005-1.336-6.237 0-1.374.379-3.207-.379-4.462-.857-1.395-2.77-1.574-4.166-.977-2.152.917-2.83 3.268-3.169 5.38-.678 4.323-1.595 8.109-3.847 11.814-.2-.04-.419-.02-.578.08-1.376.837-.658 2.231.697 2.61 3.03.837 6.06-.877 8.95-.578 1.834.199 3.688 2.132 5.343.179 1.913-2.251-.578-5.718-1.515-7.809z" fill="#DB5510"/><path d="M355.212 407.473c-2.93-2.331-4.345-5.957-3.767-9.663.04-.259-1.037-.08-1.096.179-.578 3.806.837 7.471 3.847 9.862.219.2 1.196-.239 1.016-.378zm61.714 6.794c-2.791-1.236-3.289-5.658-6.658-5.838-.259 0-1.256.458-.697.478 3.029.16 3.827 4.642 6.478 5.818.239.1 1.236-.299.877-.458zM376.9 437.378a17.648 17.648 0 0 1-3.349-8.189c-.06-.438-1.176-.179-1.096.299.438 3.068 1.594 5.858 3.428 8.348.259.359 1.316-.04 1.017-.458zm-11.581 2.57l-.359-.359c-.239-.239-1.276.16-1.017.399l.359.358c.239.24 1.256-.159 1.017-.398zm5.441 16.875c-1.415-1.674-2.192-3.666-2.212-5.877 0-.598-1.116-.459-1.097.059.02 2.351.798 4.523 2.313 6.316.339.398 1.375-.04.996-.498zm-5.262-46.461c-5.821 5.977-9.708 13.388-11.303 21.577 0 .079 1.037.039 1.097-.279 1.574-8.129 5.422-15.481 11.182-21.418.2-.199-.797-.06-.976.12zm16.684-5.958c-2.093-1.454-4.525-1.972-7.036-1.633-.259.04-1.176.498-.479.398 2.333-.299 4.545.259 6.479 1.594.239.159 1.156-.279 1.036-.359zm46.425-1.035l-4.007 5.02c-.299.399.797.339 1.037.06l4.006-5.021c.319-.398-.797-.358-1.036-.059zm-10.086 3.147l-.718.717c-.458.439.618.419.877.18.239-.259.479-.498.718-.737.438-.439-.618-.419-.877-.16z" fill="#F18750"/></g><defs><clipPath id="clip0"><path fill="#fff" d="M0 0h598v520H0z"/></clipPath></defs></svg>