<svg width="598" height="520" viewBox="0 0 598 520" fill="none" xmlns="http://www.w3.org/2000/svg">
<g clip-path="url(#clip0)">
<path d="M587.515 209.693C586.758 202.481 580.957 196.584 573.761 195.647C570.592 195.229 567.602 195.787 564.991 197.022C565.011 196.524 565.05 196.026 565.05 195.508C565.05 177.956 550.818 163.73 533.257 163.73C526.519 163.73 520.28 165.842 515.137 169.408C509.875 147.811 489.643 132.092 466.061 133.865C443.597 135.559 425.298 153.47 423.105 175.884C422.427 182.857 423.304 189.531 425.397 195.647C424.74 195.568 424.082 195.508 423.404 195.508C420.295 195.508 417.404 196.425 414.972 197.939C414.972 197.66 415.012 197.381 415.012 197.082C415.012 180.406 401.477 166.878 384.793 166.878C368.089 166.878 354.554 180.406 354.554 197.082C354.554 198.716 354.734 200.31 354.973 201.864H304.223C297.186 201.864 291.485 207.562 291.485 214.595C291.485 221.608 297.186 227.306 304.223 227.306H577.19V226.31C583.768 223.879 588.313 217.264 587.515 209.693Z" fill="#FFDAB4"/>
<path d="M0 436.74C0 436.74 75.3081 293.909 165.048 295.424C294.096 297.595 374.727 421.06 374.727 421.06L0 436.74Z" fill="#FFDAB4"/>
<path d="M188.39 436.74C188.39 436.74 294.854 254.999 384.593 256.513C466.699 257.888 567.781 363.741 581.914 438.354L188.39 436.74Z" fill="#FFDAB4"/>
<path d="M598 460.688C598 492.306 456.633 492.107 297.047 513.624C47.7204 547.255 0 436.74 0 436.74C11.9799 406.775 164.271 367.387 312.634 367.387C460.998 367.387 598 429.09 598 460.688Z" fill="#F18750"/>
<path d="M318.016 107.208H268.88C270.216 102.087 270.116 96.3893 267.027 90.2928C263.678 83.7181 257.598 78.7173 250.382 77.1832C245.857 76.2468 241.552 76.6054 237.665 77.9004C237.665 77.6414 237.685 77.3824 237.685 77.1035C237.685 53.2154 218.29 33.8499 194.39 33.8499C173.24 33.8499 155.639 49.0115 151.852 69.0545C150.118 68.7158 148.324 68.5165 146.49 68.5165C131.321 68.5165 118.982 80.3709 118.105 95.2935H51.3281C43.0956 95.2935 35.8997 101.649 35.6605 109.877C35.4013 118.405 42.2385 125.398 50.7101 125.398H318.016C323.039 125.398 327.126 121.333 327.126 116.293C327.126 111.272 323.039 107.208 318.016 107.208Z" fill="#FFDAB4"/>
<path d="M500.546 53.2354H471.304C472.101 50.1871 472.041 46.8001 470.208 43.1741C468.214 39.2492 464.606 36.2806 460.301 35.3641C457.61 34.8062 455.058 35.0254 452.726 35.8024C452.726 35.643 452.746 35.4836 452.746 35.3242C452.746 21.099 441.205 9.58325 426.992 9.58325C414.394 9.58325 403.929 18.6085 401.677 30.5227C400.64 30.3235 399.584 30.2239 398.487 30.2239C389.458 30.2239 382.122 37.2568 381.604 46.1426H341.877C336.973 46.1426 332.688 49.9281 332.548 54.8292C332.389 59.8898 336.455 64.0538 341.498 64.0538H500.546C503.536 64.0538 505.968 61.643 505.968 58.6346C505.968 55.6461 503.536 53.2354 500.546 53.2354Z" fill="#FFDAB4"/>
<path d="M56.9697 404.245C81.8266 433.652 155.241 490.015 342.933 464.713C437.457 451.962 525.562 446.821 581.715 438.195C541.21 406.337 430.5 367.387 312.635 367.387C215.659 367.387 117.029 384.222 56.9697 404.245Z" fill="#DB5510"/>
<path d="M436.979 148.768C437.736 145.122 434.587 141.117 433.032 137.79C431.796 135.18 430.54 132.59 429.324 129.96C429.145 129.562 428.846 128.426 428.686 128.745C428.965 127.868 429.882 126.792 430.281 126.075C432.394 122.23 435.264 118.763 435.264 114.32V104.657C435.264 102.805 435.783 99.9953 435.264 98.2022C434.666 96.1302 432.573 94.1777 431.278 92.4643C430.161 90.9701 429.025 89.4559 427.909 87.9616C427.251 87.085 426.474 85.3118 426.274 86.1287C426.693 84.0367 429.683 80.6896 430.66 79.036C432.175 76.5455 433.67 74.0352 435.165 71.5448C435.802 70.5088 434.347 69.931 433.63 69.931H321.903C322.003 69.7716 322.083 69.5724 322.083 69.3731V2.98844C322.98 1.91258 322.003 -0.298912 320.169 0.0397857C304.581 2.80913 290.469 10.3999 275.08 13.9463C274.362 14.1057 273.964 14.5639 273.844 15.1019C273.645 15.2812 273.525 15.4804 273.525 15.6796V69.931H171.088C170.35 69.931 169.194 70.5486 169.194 71.4053C169.134 78.9164 169.094 86.4275 169.055 93.9386C169.035 96.3294 168.875 96.6881 170.41 98.3019C172.543 100.573 175.473 102.406 178.104 104.279C178.084 104.299 178.064 104.319 178.045 104.359C175.334 105.793 172.623 107.208 169.912 108.642C169.473 108.881 168.935 109.319 168.935 109.857C168.875 117.966 168.835 126.075 168.776 134.184L168.676 150.78C168.656 153.39 168.018 156.976 168.616 159.546C169.314 162.555 172.423 165.703 174.138 168.213C174.337 168.492 174.616 168.831 174.915 169.189C174.417 169.727 174.257 170.345 174.756 170.664C174.716 170.703 174.676 170.743 174.636 170.803C172.942 172.457 171.407 174.748 170.031 176.641C168.078 179.35 168.477 181.382 168.457 184.769C168.417 189.411 168.397 194.074 168.357 198.716C168.357 199.652 169.194 199.951 170.011 199.971C199.712 200.927 229.433 201.864 259.153 202.8L276.276 203.358V425.264C275.06 426.061 275.399 428.492 277.293 428.592L319.691 430.683C320.927 430.743 321.505 429.747 321.405 428.791C321.485 428.592 321.525 428.372 321.525 428.133V204.792C347.896 205.629 374.268 206.486 400.64 207.323C411.324 207.661 422.009 208 432.693 208.339C433.012 208.398 433.351 208.398 433.67 208.319C434.148 208.259 434.527 208.06 434.786 207.761C435.125 207.442 435.344 207.024 435.244 206.546C432.972 195.906 430.7 185.267 428.427 174.628C428.228 173.752 428.009 171.6 427.869 172.058C428.228 169.887 429.683 167.436 430.48 165.404C432.553 160.104 435.822 154.326 436.979 148.768Z" fill="#F9F5F1"/>
<path d="M436.979 148.768C437.736 145.122 434.587 141.117 433.032 137.79C431.796 135.18 430.54 132.59 429.324 129.96C429.145 129.562 428.846 128.426 428.686 128.745C428.965 127.868 429.882 126.792 430.281 126.075C432.394 122.23 435.264 118.763 435.264 114.32V104.657C435.264 102.805 435.783 99.9953 435.264 98.2022C434.666 96.1302 432.573 94.1777 431.278 92.4643C430.161 90.9701 429.025 89.4559 427.909 87.9616C427.251 87.085 426.474 85.3118 426.274 86.1287C426.693 84.0367 429.683 80.6896 430.66 79.036C432.175 76.5455 433.67 74.0352 435.165 71.5448C435.802 70.5088 434.347 69.931 433.63 69.931H321.903C322.003 69.7716 322.083 69.5724 322.083 69.3731V2.98844C322.98 1.91258 322.003 -0.298912 320.169 0.0397857C304.581 2.80913 290.469 10.3999 275.08 13.9463C274.362 14.1057 273.964 14.5639 273.844 15.1019C273.645 15.2812 273.525 15.4804 273.525 15.6796V69.931H171.088C170.35 69.931 169.194 70.5486 169.194 71.4053C169.134 78.9164 169.094 86.4275 169.055 93.9386C169.035 96.3294 168.875 96.6881 170.41 98.3019C172.543 100.573 175.473 102.406 178.104 104.279C178.084 104.299 178.064 104.319 178.045 104.359C175.334 105.793 172.623 107.208 169.912 108.642C169.473 108.881 168.935 109.319 168.935 109.857C168.875 117.966 168.835 126.075 168.776 134.184L168.676 150.78C168.656 153.39 168.018 156.976 168.616 159.546C169.314 162.555 172.423 165.703 174.138 168.213C174.337 168.492 174.616 168.831 174.915 169.189C174.417 169.727 174.257 170.345 174.756 170.664C174.716 170.703 174.676 170.743 174.636 170.803C172.942 172.457 171.407 174.748 170.031 176.641C168.078 179.35 168.477 181.382 168.457 184.769C168.417 189.411 168.397 194.074 168.357 198.716C168.357 199.652 169.194 199.951 170.011 199.971C199.712 200.927 229.433 201.864 259.153 202.8L276.276 203.358V425.264C275.06 426.061 275.399 428.492 277.293 428.592L319.691 430.683C320.927 430.743 321.505 429.747 321.405 428.791C321.485 428.592 321.525 428.372 321.525 428.133V204.792C347.896 205.629 374.268 206.486 400.64 207.323C411.324 207.661 422.009 208 432.693 208.339C433.012 208.398 433.351 208.398 433.67 208.319C434.148 208.259 434.527 208.06 434.786 207.761C435.125 207.442 435.344 207.024 435.244 206.546C432.972 195.906 430.7 185.267 428.427 174.628C428.228 173.752 428.009 171.6 427.869 172.058C428.228 169.887 429.683 167.436 430.48 165.404C432.553 160.104 435.822 154.326 436.979 148.768ZM277.014 17.1739C291.166 13.7471 304.302 7.05281 318.575 4.00454V69.6521C318.575 69.7517 318.575 69.8513 318.594 69.931H277.014V17.1739ZM317.917 426.998C309.884 426.599 301.831 426.201 293.797 425.802C294.495 425.623 295.093 425.065 295.093 424.129V374.161C295.093 371.83 291.485 371.83 291.485 374.161V424.129C291.485 424.985 291.983 425.523 292.581 425.742C288.356 425.543 284.11 425.324 279.884 425.125V203.477C292.562 203.876 305.239 204.274 317.917 204.673V426.998ZM424.859 175.186C411.703 176.162 398.527 176.541 385.331 176.282C384.155 176.262 381.584 177.995 383.916 178.035C397.69 178.294 411.464 177.876 425.218 176.82C426.394 182.339 427.57 187.837 428.746 193.356C371.438 194.392 314.109 194.751 256.781 194.392C254.768 194.392 254.15 197.022 256.502 197.042C314.109 197.381 371.717 197.042 429.304 195.986C429.982 199.194 430.66 202.382 431.357 205.569L344.488 202.8C297.326 201.306 250.163 199.811 203.001 198.297C192.636 197.978 182.27 197.64 171.925 197.301C171.985 191.942 172.204 186.523 172.005 181.163C171.925 178.354 171.726 179.39 173.579 177.039C175.154 175.027 176.729 173.015 178.324 171.002C192.556 171.7 206.788 172.158 221.041 172.377C223.014 172.397 223.712 169.887 221.36 169.847C207.087 169.647 192.815 169.149 178.563 168.452C176.829 165.882 175.174 163.252 173.32 160.782C171.825 158.769 172.084 159.825 172.164 157.275C172.344 150.959 172.284 144.644 172.304 138.328C185.958 137.67 199.592 137.013 213.247 136.355C215.26 136.256 215.898 133.606 213.526 133.706C199.792 134.383 186.058 135.041 172.304 135.698C172.304 135.519 172.304 135.339 172.304 135.16C172.364 127.569 172.403 119.998 172.463 112.408C172.463 111.73 172.503 111.013 172.463 110.316C172.503 110.316 172.523 110.316 172.563 110.296C174.995 109.857 177.885 107.785 180.317 106.271C181.134 106.51 181.991 106.55 183.108 106.49C183.945 106.431 184.642 105.933 184.862 105.434C203.759 105.693 222.655 105.933 241.552 106.192C242.908 106.211 245.24 104.199 242.888 104.159C222.715 103.9 202.543 103.641 182.35 103.362C182.33 103.342 182.31 103.323 182.27 103.303C179.46 101.131 176.729 98.5609 173.719 96.708C173.42 96.5287 172.922 96.2298 172.563 95.931C172.304 94.7953 172.583 93.1417 172.603 92.026C172.643 85.5708 172.682 79.1157 172.722 72.6605H430.859C428.168 77.1233 425.497 81.5862 422.806 86.0689C422.646 86.3478 422.706 86.8459 422.906 87.1049C425.617 90.731 429.464 94.4766 431.477 98.521C431.656 98.9195 431.736 98.9793 431.736 98.9195C431.876 99.6566 431.736 100.593 431.736 101.33V110.595C431.736 115.934 431.597 117.11 429.065 121.692C427.769 124.043 425.876 126.234 425.577 128.625C410.786 128.406 395.996 128.785 381.225 129.801C379.431 129.94 378.394 132.072 380.806 131.913C395.776 130.857 410.766 130.498 425.756 130.777C427.171 135.798 430.52 141.277 432.912 145.879C433.191 146.397 433.67 147.134 433.789 147.732C433.789 147.752 433.789 147.752 433.789 147.772C433.789 147.811 433.789 147.831 433.789 147.871C433.65 149.724 432.115 152.155 431.437 153.888C429.344 159.228 427.211 164.567 425.178 169.926C424.321 172.158 424.401 172.995 424.859 175.186Z" fill="#DB5510"/>
<path d="M421.311 83.4392C391.73 82.7817 362.129 82.9411 332.548 83.8974C330.734 83.9572 329.737 86.089 332.129 86.0292C361.411 85.0729 390.713 84.9335 419.996 85.5909C421.431 85.6109 423.663 83.4791 421.311 83.4392Z" fill="#DB5510"/>
<path d="M214.144 80.3111C202.921 80.072 191.719 79.813 180.496 79.5739C178.503 79.5341 177.845 82.1042 180.197 82.164C191.42 82.4031 202.622 82.6421 213.845 82.8812C215.838 82.941 216.496 80.351 214.144 80.3111Z" fill="#DB5510"/>
<path d="M227.858 184.451C213.845 184.212 199.832 183.953 185.799 183.714C184.364 183.694 182.151 185.845 184.503 185.885C198.516 186.124 212.529 186.363 226.562 186.602C227.998 186.622 230.21 184.491 227.858 184.451Z" fill="#DB5510"/>
<path d="M415.071 184.829H417.483C418.221 184.829 419.317 184.271 419.417 183.454C419.517 182.558 418.46 182.378 417.822 182.378H415.41C414.673 182.378 413.576 182.936 413.497 183.753C413.377 184.65 414.434 184.829 415.071 184.829Z" fill="#DB5510"/>
<path d="M191.041 159.486C187.254 159.267 183.447 159.048 179.639 158.809C178.922 158.769 177.686 158.869 177.188 159.466C176.809 159.905 176.59 160.403 177.447 160.463L188.849 161.14C189.566 161.18 190.822 161.08 191.32 160.483C191.679 160.044 191.898 159.546 191.041 159.486Z" fill="#DB5510"/>
<path d="M414.752 120.397C408.932 120.178 403.131 119.939 397.331 119.719C396.135 119.68 393.583 121.413 395.915 121.493C401.716 121.732 407.537 121.951 413.337 122.17C414.533 122.23 417.085 120.477 414.752 120.397Z" fill="#DB5510"/>
<path d="M409.172 99.4573H388.74C388.022 99.4573 384.813 100.832 386.487 100.832H406.899C407.617 100.832 410.826 99.4573 409.172 99.4573Z" fill="#DB5510"/>
<path d="M309.524 309.609C309.225 308.633 309.365 307.756 309.923 306.919C311.199 304.967 308.089 303.154 306.814 305.086C305.757 306.7 305.498 308.712 306.036 310.565C306.694 312.777 310.182 311.82 309.524 309.609Z" fill="#DB5510"/>
<path d="M307.512 358.939V363.542C307.432 363.681 307.372 363.84 307.372 364.02V405.779C307.372 407.293 310.163 406.955 310.163 405.62V365.295C310.701 365.036 311.12 364.518 311.12 363.741V358.939C311.12 356.628 307.512 356.608 307.512 358.939Z" fill="#DB5510"/>
<path d="M308.508 415.92C306.196 415.92 306.196 419.526 308.508 419.526C310.84 419.526 310.84 415.92 308.508 415.92Z" fill="#F7931D"/>
<path d="M309.345 259.382C309.086 245.775 308.847 232.187 308.588 218.579C308.568 217.264 305.797 217.762 305.817 218.838C306.076 232.446 306.315 246.054 306.574 259.641C306.594 260.976 309.365 260.458 309.345 259.382Z" fill="#DB5510"/>
<path d="M293.996 320.846V228.78C293.996 227.943 291.246 228.461 291.246 229.517V321.583C291.246 322.42 293.996 321.902 293.996 320.846Z" fill="#DB5510"/>
<path d="M301.611 323.954V284.087C301.611 282.653 298.821 283.071 298.821 284.306V324.173C298.821 325.608 301.611 325.209 301.611 323.954Z" fill="#DB5510"/>
<path d="M290.309 26.1992C289.332 26.1992 287.379 27.6935 289.233 27.6935C290.209 27.6935 292.163 26.1992 290.309 26.1992Z" fill="#DB5510"/>
<path d="M295.99 21.6167V56.7416C295.99 57.3193 298.741 56.901 298.741 56.0044V20.8795C298.741 20.3216 295.99 20.74 295.99 21.6167Z" fill="#DB5510"/>
<path d="M289.333 35.6429V62.2206C289.333 63.5156 292.103 62.9976 292.103 61.9417V35.3639C292.103 34.0689 289.333 34.567 289.333 35.6429Z" fill="#DB5510"/>
<path d="M313.073 14.7234V40.3449C313.073 41.7794 315.864 41.361 315.864 40.1456V14.5043C315.864 13.0698 313.073 13.4882 313.073 14.7234Z" fill="#DB5510"/>
<path d="M293.06 357.186V337.243C293.06 335.808 290.27 336.227 290.27 337.462V357.405C290.27 358.84 293.06 358.421 293.06 357.186Z" fill="#DB5510"/>
<path d="M288.316 223.301V207.183C288.316 205.868 285.545 206.366 285.545 207.442V223.58C285.545 224.895 288.316 224.377 288.316 223.301Z" fill="#DB5510"/>
<path d="M274.641 115.436V144.345H281.16V153.47H274.602V161.319H262.602V153.47H243.207V144.026C246.615 140.081 250.004 135.539 253.392 130.359C256.761 125.178 259.512 120.198 261.625 115.436H274.641ZM262.582 144.345V130.916C260.608 135.24 257.917 139.723 254.469 144.345H262.582ZM319.711 137.989C319.711 145.859 318.216 151.836 315.206 155.96C312.216 160.064 307.83 162.116 302.07 162.116C296.169 162.116 291.764 160.224 288.854 156.458C285.944 152.673 284.488 146.835 284.488 138.906C284.488 130.976 286.063 124.939 289.213 120.835C292.362 116.711 296.907 114.659 302.867 114.659C314.09 114.659 319.711 122.429 319.711 137.989ZM306.256 138.009C306.256 133.427 305.937 130.06 305.299 127.888C304.661 125.716 303.624 124.621 302.189 124.621C299.399 124.621 298.003 129.303 298.003 138.627C298.003 143.229 298.322 146.636 298.98 148.847C299.618 151.039 300.654 152.155 302.07 152.155C304.86 152.155 306.256 147.433 306.256 138.009ZM354.634 115.436V144.345H361.152V153.47H354.614V161.319H342.594V153.47H323.199V144.026C326.608 140.081 329.996 135.539 333.385 130.359C336.754 125.178 339.505 120.198 341.617 115.436H354.634ZM342.574 144.345V130.916C340.601 135.24 337.91 139.723 334.481 144.345H342.574Z" fill="#DB5510"/>
<path d="M123.606 409.645H153.407V310.805C188.33 308.434 216.037 279.266 216.037 243.763C216.037 235.335 209.2 228.501 200.748 228.501C192.316 228.501 185.479 235.335 185.479 243.763C185.479 262.411 171.466 277.852 153.407 280.123V238.204C153.407 229.976 146.729 223.321 138.496 223.321C130.284 223.321 123.606 229.976 123.606 238.204V314.73C108.198 310.386 96.8756 296.221 96.8756 279.445C96.8756 270.998 90.0185 264.164 81.5867 264.164C73.1549 264.164 66.2979 270.998 66.2979 279.445C66.2979 313.116 91.2345 341.088 123.606 345.91V409.645Z" fill="#F9F5F1"/>
<path d="M122.052 345.989C123.228 347.145 122.052 354.756 122.052 356.409V396.814C122.052 400.799 121.633 405.301 121.932 409.645H125.101C124.663 404.564 125.161 399.185 125.161 394.124V345.91C125.161 345.292 124.683 344.515 124.025 344.395C94.1449 339.295 66.7964 312.897 67.8927 280.92C68.1718 272.95 72.6568 265.738 81.5869 265.738C91.0154 265.738 94.3044 273.01 95.3608 280.9C96.0386 286 96.6366 290.682 98.8492 295.424C103.673 305.804 112.444 312.757 123.188 316.224C124.164 316.543 125.161 315.706 125.161 314.73V244.081C125.161 237.566 125.042 230.613 131.779 226.688C141.387 221.11 150.835 228.959 151.852 238.702C152.031 240.555 151.852 242.547 151.852 244.4V280.123C151.852 281.218 152.829 281.796 153.825 281.617C165.367 279.704 175.513 273.508 181.612 263.367C184.164 259.123 185.818 254.402 186.576 249.54C187.632 242.806 186.815 236.012 193.831 231.928C203.459 226.31 213.565 233.701 214.462 243.763C213.725 278.27 187.871 306.163 153.407 309.251C152.569 309.31 151.852 309.888 151.852 310.805V405.839C151.852 407.094 151.912 408.389 151.852 409.645H155.201C155.599 404.285 154.961 398.567 154.961 393.427V326.405C154.961 322.559 153.726 316.423 154.961 312.777C155.201 312.06 155.241 311.761 155.221 311.622C155.28 311.641 155.4 311.602 155.639 311.482C157.573 310.446 164.848 310.705 167.898 309.828C177.068 307.179 185.599 302.576 192.934 296.46C208.682 283.33 217.153 264.084 217.592 243.763C216.396 230.374 201.625 221.389 190.124 230.733C184.722 235.116 184.503 240.336 183.785 246.671C183.087 252.967 181.094 258.904 177.406 264.084C172.224 271.356 165.845 273.508 158.549 277.473C155.041 279.386 155.719 280.521 154.961 278.21C154.403 276.457 154.961 273.448 154.961 271.576V250.297C154.961 240.774 156.496 229.657 146.809 223.999C135.427 217.344 122.889 226.11 122.052 238.284C121.454 246.891 122.052 255.736 122.052 264.363V304.27C122.052 306.362 123.128 312.179 122.052 314.092C122.809 312.737 116.63 310.307 114.297 308.773C107.68 304.449 102.617 297.854 100.165 290.343C97.7329 282.892 99.786 274.823 94.3841 268.507C90.1582 263.546 83.361 261.554 77.1218 263.268C60.916 267.71 64.0057 287.534 67.813 299.787C72.896 316.124 84.1982 330.27 98.9887 338.897C102.337 340.829 105.826 342.483 109.454 343.838C111.886 344.754 114.935 346.109 117.567 346.328C114.876 346.089 123.267 347.185 122.052 345.989Z" fill="#DB5510"/>
<path d="M142.403 252.33V301.082C142.403 301.919 144.118 301.64 144.118 300.923V252.19C144.118 251.333 142.403 251.612 142.403 252.33Z" fill="#DB5510"/>
<path d="M145.334 321.783V334.693C145.334 335.131 147.048 334.832 147.048 334.235V321.324C147.048 320.886 145.334 321.185 145.334 321.783Z" fill="#DB5510"/>
<path d="M142.403 357.007V391.076C142.403 391.455 144.098 391.176 144.098 390.618V356.549C144.098 356.17 142.403 356.449 142.403 357.007Z" fill="#DB5510"/>
<path d="M134.749 275.799V326.305C134.749 327.222 136.483 326.982 136.483 326.185V275.7C136.483 274.783 134.749 275.022 134.749 275.799Z" fill="#DB5510"/>
<path d="M134.769 339.395V348.201C134.769 348.719 136.463 348.4 136.463 347.743V338.937C136.463 338.419 134.769 338.737 134.769 339.395Z" fill="#DB5510"/>
<path d="M131.819 235.315V246.472C131.819 247.269 133.533 246.97 133.533 246.313V235.156C133.533 234.339 131.819 234.657 131.819 235.315Z" fill="#F7931D"/>
<path d="M113.301 322.779C99.447 311.562 87.467 296.48 88.4039 277.752C88.4238 277.413 86.7295 277.652 86.7096 278.19C85.7528 297.018 97.8124 312.14 111.706 323.376C112.085 323.695 113.62 323.038 113.301 322.779Z" fill="#DB5510"/>
<path d="M98.8092 321.185C95.1016 318.176 92.1514 314.471 90.0584 310.167C89.7395 309.53 88.085 310.048 88.3641 310.625C90.497 315.008 93.467 318.794 97.2544 321.882C97.7527 322.3 99.3474 321.623 98.8092 321.185Z" fill="#DB5510"/>
<path d="M87.0286 318.256C77.4208 307.737 72.4374 294.029 73.0952 279.804C73.1351 278.907 71.4009 279.127 71.361 279.924C70.7032 294.368 75.7264 308.334 85.4738 319.013C86.012 319.611 87.6067 318.914 87.0286 318.256Z" fill="#DB5510"/>
<path d="M193.831 245.894C191.639 256.115 187.233 265.479 180.755 273.688C180.675 273.807 182.131 273.767 182.449 273.369C188.928 265.18 193.313 255.816 195.506 245.596C195.586 245.237 193.911 245.476 193.831 245.894Z" fill="#DB5510"/>
<path d="M166.025 283.111C164.111 285.522 161.301 286.697 158.231 286.279C157.394 286.159 156.517 287.355 157.653 287.514C161.4 288.032 165.108 286.578 167.44 283.609C168.118 282.772 166.503 282.513 166.025 283.111Z" fill="#DB5510"/>
<path d="M203.938 235.614C203.898 235.255 202.184 235.594 202.243 236.052C202.981 242.229 201.805 248.126 198.795 253.565C198.655 253.824 200.23 253.724 200.489 253.286C203.519 247.787 204.675 241.83 203.938 235.614Z" fill="#F7931D"/>
<path d="M207.306 255.776C200.17 277.712 180.894 294.607 158.111 298.532C157.234 298.671 156.755 299.807 157.911 299.608C181.532 295.563 201.605 278.429 209.02 255.597C209.24 254.92 207.525 255.139 207.306 255.776Z" fill="#DB5510"/>
<path d="M130.902 380.796V402.99C130.902 403.448 132.915 403.11 132.915 402.452V380.238C132.915 379.799 130.902 380.118 130.902 380.796Z" fill="#DB5510"/>
<path d="M134.451 399.523V411.318C134.451 412.214 136.464 411.836 136.464 411.099V399.304C136.464 398.408 134.451 398.786 134.451 399.523Z" fill="#DB5510"/>
<path d="M213.626 431.959C213.666 434.31 211.393 436.043 209.759 437.318C209.141 437.776 209.121 439.012 209.719 439.49C213.327 442.438 218.45 446.503 217.114 451.822C215.3 459.114 205.752 454.034 201.905 451.683C201.208 451.264 200.53 451.464 200.091 451.902L134.331 467.9C133.594 468.08 133.235 468.658 133.215 469.235C133.135 469.395 133.095 469.594 133.075 469.813C132.776 476.089 127.195 480.811 120.876 479.137C117.029 478.101 113.84 474.734 115.315 470.53C116.491 467.143 119.86 465.211 122.77 463.458C124.046 462.681 123.607 460.628 122.072 460.569C119.142 460.449 116.331 459.772 113.86 458.118C110.013 455.548 109.056 450.746 113.282 447.937C118.703 444.291 124.723 448.555 128.79 452.54C127.773 453.456 128.531 455.608 130.185 455.189L197.839 438.733C198.536 439.012 199.354 438.852 199.673 438.055C200.031 437.677 200.151 437.159 200.051 436.661C200.988 433.433 203.041 430.684 206.211 429.269C208.643 428.173 213.526 427.416 213.626 431.959Z" fill="#F9F5F1"/>
<path d="M197.101 435.744L132.119 451.563C126.517 445.706 115.554 438.972 109.135 447.658C103.654 455.05 110.87 461.007 117.886 462.959C114.896 465.111 112.305 467.801 111.846 471.666C111.308 476.109 114.378 479.815 118.305 481.488C126.597 485.054 135.208 479.197 136.085 470.65L200.849 454.87C200.928 454.851 201.008 454.831 201.088 454.791C206.41 457.899 215.34 461.704 219.227 454.87C222.835 448.495 217.912 442.518 213.207 438.414C215.34 436.461 216.975 433.991 216.656 430.923C216.337 427.934 214.045 425.962 211.174 425.483C204.656 424.408 198.875 429.827 197.101 435.744ZM213.626 431.959C213.666 434.31 211.393 436.043 209.759 437.318C209.141 437.776 209.121 439.011 209.719 439.49C213.327 442.438 218.45 446.503 217.114 451.822C215.3 459.114 205.752 454.034 201.905 451.683C201.207 451.264 200.53 451.464 200.091 451.902L134.331 467.9C133.594 468.08 133.235 468.657 133.215 469.235C133.135 469.395 133.095 469.594 133.075 469.813C132.776 476.089 127.195 480.811 120.876 479.137C117.029 478.101 113.84 474.734 115.315 470.53C116.491 467.143 119.86 465.211 122.77 463.457C124.046 462.68 123.607 460.628 122.072 460.569C119.142 460.449 116.331 459.772 113.86 458.118C110.012 455.548 109.056 450.746 113.282 447.937C118.703 444.291 124.723 448.555 128.79 452.539C127.773 453.456 128.531 455.608 130.185 455.189L197.839 438.733C198.536 439.011 199.354 438.852 199.673 438.055C200.031 437.677 200.151 437.159 200.051 436.66C200.988 433.433 203.041 430.683 206.211 429.269C208.643 428.173 213.526 427.416 213.626 431.959Z" fill="#DB5510"/>
<path d="M130.663 460.987L175.015 450.188C175.972 449.949 175.015 447.877 174.237 448.076L129.886 458.875C128.929 459.094 129.886 461.166 130.663 460.987Z" fill="#DB5510"/>
<path d="M182.789 448.814L190.264 447.001C190.623 446.901 189.785 444.809 189.148 444.968L181.673 446.781C181.314 446.881 182.151 448.973 182.789 448.814Z" fill="#DB5510"/>
<path d="M206.35 318.893C206.35 315.666 208.961 313.056 212.191 313.056C215.4 313.056 218.031 315.666 218.031 318.893C218.031 326.006 223.373 331.903 230.27 332.78V316.762C230.27 313.614 232.822 311.083 235.971 311.083C239.101 311.083 241.652 313.614 241.652 316.762V345.989C247.532 344.336 251.878 338.916 251.878 332.521C251.878 329.293 254.489 326.683 257.698 326.683C260.928 326.683 263.539 329.293 263.539 332.521C263.539 345.392 254.031 356.07 241.652 357.903V382.628C241.652 385.756 239.101 388.306 235.971 388.306C232.822 388.306 230.27 385.756 230.27 382.628V344.495C216.935 343.598 206.35 332.461 206.35 318.893Z" fill="#DB5510"/>
<path d="M501.622 366.909C501.622 364.02 503.974 361.669 506.865 361.669C509.775 361.669 512.107 364.02 512.107 366.909C512.107 373.304 516.911 378.604 523.11 379.381V364.996C523.11 362.187 525.403 359.896 528.213 359.896C531.044 359.896 533.336 362.187 533.336 364.996V391.235C538.618 389.761 542.505 384.9 542.505 379.142C542.505 376.253 544.858 373.902 547.748 373.902C550.638 373.902 552.99 376.253 552.99 379.142C552.99 390.697 544.439 400.3 533.336 401.934V424.129C533.336 426.958 531.044 429.249 528.213 429.249C525.403 429.249 523.11 426.958 523.11 424.129V389.9C511.13 389.083 501.622 379.082 501.622 366.909Z" fill="#DB5510"/>
<path d="M522.373 292.774C515.476 292.774 509.875 298.372 509.875 305.286V305.943C509.875 316.702 501.124 325.448 490.36 325.448H483.024V258.286C483.024 250.377 476.606 243.961 468.692 243.961C460.779 243.961 454.36 250.377 454.36 258.286V295.404C446.845 295.025 440.845 288.809 440.845 281.218V279.286C440.845 272.372 435.244 266.774 428.347 266.774C421.43 266.774 415.829 272.372 415.829 279.286V281.218C415.829 302.596 433.052 320.029 454.36 320.427V353.44H446.347C435.603 353.44 426.852 344.694 426.852 333.935C426.852 327.042 421.251 321.443 414.334 321.443C407.437 321.443 401.836 327.042 401.836 333.935C401.836 358.461 421.809 378.424 446.347 378.424H454.36V405.958H483.024V350.432H490.36C514.918 350.432 534.871 330.469 534.871 305.943V305.286C534.871 298.372 529.29 292.774 522.373 292.774Z" fill="#F9F5F1"/>
<path d="M523.031 291.419C522.851 291.339 522.632 291.299 522.373 291.319C522.114 291.299 521.894 291.339 521.715 291.419C516.313 292.116 511.629 294.686 509.456 300.026C508.041 303.493 508.758 307.159 507.762 310.725C505.469 319.033 498.074 323.516 489.822 323.994C488.067 324.093 485.058 323.257 484.34 323.994C484.36 323.277 484.46 322.48 484.479 322.121C484.878 316.801 484.479 311.303 484.479 305.983V266.017C484.479 256.932 484.42 247.209 474.074 243.444C462.772 239.319 453.284 248.464 452.905 259.402C452.706 264.881 452.905 270.4 452.905 275.879C452.905 280.063 454.799 290.463 452.905 294.288C452.865 294.368 452.865 294.388 452.825 294.447C452.766 294.447 452.706 294.447 452.606 294.467C451.071 294.886 444.413 288.311 443.935 287.454C441.483 283.111 443.058 278.429 441.264 274.026C439.151 268.846 433.948 265.319 428.347 265.319C411.523 265.319 413.038 286 417.464 296.699C420.155 303.194 424.52 308.932 430.061 313.255C432.792 315.387 435.782 317.16 438.952 318.535C441.304 319.551 443.716 320.348 446.188 320.906C446.267 320.926 453.164 321.882 452.307 321.145C452.726 321.503 452.905 322.44 452.905 324.89V333.159C452.905 338.777 454.34 346.627 452.905 352.145C452.028 352.185 450.972 352.046 450.354 351.986C445.689 351.408 441.722 352.145 437.237 349.516C425.935 342.881 432.055 329.413 422.367 322.539C409.59 313.514 399.284 327.321 400.7 339.315C402.593 355.413 413.198 369.618 428.068 376.073C434.965 379.082 442.061 379.839 449.496 379.879C450.593 379.899 451.689 379.919 452.766 379.879C452.885 379.879 452.985 379.879 453.104 379.859C453.403 381.811 452.905 384.561 452.905 386.334C452.905 391.753 451.928 399.145 452.387 405.959H455.795C455.357 396.834 455.815 387.569 455.815 378.424C455.815 377.647 455.138 376.97 454.36 376.97C443.895 376.97 433.988 376.572 424.64 371.093C412.062 363.721 398.706 344.993 404.906 330.031C405.763 325.368 408.912 322.978 414.334 322.898C421.071 323.516 424.759 327.201 425.397 333.936C425.975 336.207 425.776 338.398 426.553 340.709C427.889 344.595 430.301 347.981 433.55 350.512C439.809 355.333 446.925 354.895 454.36 354.895C455.138 354.895 455.815 354.218 455.815 353.44V320.427C455.815 319.611 455.138 319.013 454.36 318.973C435.723 317.997 413.158 300.444 417.284 279.286C418.46 273.329 422.128 269.085 428.347 268.228C436.041 267.172 438.234 275.022 439.39 280.242C439.869 282.374 439.59 284.446 440.347 286.598C442.52 292.614 447.842 295.962 453.962 296.818C454.878 296.938 455.815 296.46 455.815 295.404V263.726C455.815 255.398 457.868 245.396 468.692 245.396C478.679 245.396 481.569 254.541 481.569 262.57V325.448C481.569 326.225 482.247 326.883 483.024 326.883C490.3 326.883 497.257 327.162 503.297 322.4C506.805 319.65 509.396 315.785 510.572 311.502C512.665 303.891 510.791 295.404 522.373 294.228C545.715 296.579 527.655 330.349 518.944 338.08C508.519 347.344 496.36 348.978 483.024 348.978C482.247 348.978 481.569 349.655 481.569 350.432V404.763C481.569 405.162 481.569 405.56 481.569 405.959H484.958C485.695 396.714 484.479 386.673 484.479 377.767V357.525C484.479 355.991 484.121 353.739 484.34 352.026C485.058 352.424 487.051 351.906 488.466 351.886C506.406 351.727 522.891 343.2 531.283 326.883C537.403 314.949 540.871 293.73 523.031 291.419Z" fill="#DB5510"/>
<path d="M474.253 305.286V349.237C474.253 349.735 476.127 349.396 476.127 348.739V304.788C476.127 304.29 474.253 304.608 474.253 305.286Z" fill="#DB5510"/>
<path d="M465.184 321.942V334.553C465.184 335.37 467.078 334.991 467.078 334.334V321.722C467.078 320.906 465.184 321.284 465.184 321.942Z" fill="#DB5510"/>
<path d="M466.161 357.644V386.394C466.161 386.693 468.034 386.434 468.034 385.896V357.146C468.034 356.847 466.161 357.106 466.161 357.644Z" fill="#DB5510"/>
<path d="M471.343 253.903V274.265C471.343 274.624 473.217 274.345 473.217 273.747V253.405C473.217 253.027 471.343 253.326 471.343 253.903Z" fill="#DB5510"/>
<path d="M462.593 264.403V270.221C462.593 271.077 464.486 270.719 464.486 270.021V264.204C464.486 263.347 462.593 263.706 462.593 264.403Z" fill="#DB5510"/>
<path d="M519.382 310.266C516.871 316.104 514.299 322.28 509.715 326.823C503.376 333.099 495.562 333.338 487.19 332.84C486.313 332.78 485.257 334.055 486.512 334.135C493.788 334.553 501.263 334.732 507.542 330.469C514.459 325.747 517.967 317.877 521.176 310.426C521.575 309.489 519.701 309.529 519.382 310.266Z" fill="#DB5510"/>
<path d="M524.187 320.208C522.652 324.153 520.26 327.56 517.111 330.389C516.652 330.788 518.446 330.648 518.825 330.31C522.034 327.441 524.486 323.934 526.061 319.91C526.22 319.471 524.406 319.671 524.187 320.208Z" fill="#DB5510"/>
<path d="M476.128 405.958V378.663C476.128 377.647 474.234 377.886 474.234 378.783V405.958H476.128Z" fill="#DB5510"/>
<path d="M475.21 365.693V369.579C475.21 370.575 477.104 370.316 477.104 369.439V365.554C477.104 364.558 475.21 364.817 475.21 365.693Z" fill="#DB5510"/>
<path d="M443.736 360.354C430.221 358.501 420.234 348.3 418.52 334.832C418.42 334.175 416.547 334.613 416.646 335.33C418.42 349.137 428.806 359.517 442.6 361.39C443.198 361.49 444.792 360.513 443.736 360.354Z" fill="#DB5510"/>
<path d="M441.782 367.825C440.088 367.885 438.473 367.566 436.918 366.909C436.081 366.55 434.746 367.765 435.842 368.223C437.696 369 439.629 369.339 441.643 369.259C442.739 369.22 443.058 367.785 441.782 367.825Z" fill="#DB5510"/>
<path d="M440.207 308.115C436.061 308.015 430.919 300.962 428.626 297.894C425.038 293.112 422.925 287.673 423.842 281.656C423.942 280.999 422.068 281.338 421.968 281.915C420.992 288.391 423.404 294.208 427.37 299.229C430.161 302.755 434.526 308.971 439.45 309.091C440.108 309.111 441.463 308.135 440.207 308.115Z" fill="#DB5510"/>
<path d="M441.543 296.798C438.473 296.28 436.141 293.79 435.703 290.742C435.663 290.403 433.769 290.781 433.829 291.24C434.287 294.447 436.819 296.958 439.988 297.516C440.387 297.575 440.945 297.456 441.304 297.257C441.424 297.197 441.962 296.878 441.543 296.798Z" fill="#DB5510"/>
<path d="M459.702 289.287V306.74C459.702 307.198 461.576 306.88 461.576 306.242V288.789C461.576 288.331 459.702 288.63 459.702 289.287Z" fill="#DB5510"/>
<path d="M474.732 284.785V291.559C474.732 292.375 476.606 291.997 476.606 291.339V284.565C476.606 283.749 474.732 284.127 474.732 284.785Z" fill="#DB5510"/>
<path d="M63.1486 373.523C60.7765 373.523 58.8629 375.456 58.8629 377.807V378.046C58.8629 381.732 55.8729 384.72 52.1852 384.72H49.6736V361.709C49.6736 358.999 47.461 356.808 44.7501 356.808C42.0391 356.808 39.8465 358.999 39.8465 361.709V374.44C37.2751 374.3 35.2219 372.169 35.2219 369.579V368.901C35.2219 366.55 33.3083 364.618 30.9363 364.618C28.5642 364.618 26.6506 366.55 26.6506 368.901V369.579C26.6506 376.89 32.5509 382.867 39.8465 383.007V394.303H37.0957C33.4279 394.303 30.418 391.315 30.418 387.629C30.418 385.258 28.5044 383.346 26.1323 383.346C23.7802 383.346 21.8467 385.258 21.8467 387.629C21.8467 396.037 28.7037 402.87 37.0957 402.87H39.8465V413.31C39.8465 416.04 42.0391 418.231 44.7501 418.231C47.461 418.231 49.6736 416.04 49.6736 413.31V393.287H52.1852C60.5971 393.287 67.4342 386.454 67.4342 378.046V377.807C67.4342 375.456 65.5206 373.523 63.1486 373.523Z" fill="#F18750"/>
<path d="M519.642 455.408C517.649 455.07 515.596 455.189 513.662 455.767C513.423 455.827 513.144 455.906 512.845 455.986C513.981 452.958 514.639 449.71 515.456 446.523C515.596 445.985 515.057 445.427 514.499 445.706C512.127 446.961 509.915 448.435 507.861 450.089C507.483 445.148 504.333 440.546 502.101 436.242C501.881 435.804 501.204 435.724 500.925 436.162C498.812 439.47 497.317 443.016 496.42 446.802C495.961 446.124 495.463 445.467 494.905 444.869C493.789 443.634 491.297 441.123 489.443 441.542C487.43 441.98 488.307 445.347 488.426 446.762C488.626 449.392 488.985 452.021 489.603 454.592C486.912 454.851 484.32 455.488 481.868 456.644C479.297 457.839 478.38 458.636 480.692 460.728C485.815 465.31 491.496 469.793 498.692 469.873C498.692 469.873 498.712 469.873 498.712 469.893C498.812 469.972 498.891 470.012 498.991 470.032C499.171 470.152 499.43 470.192 499.669 470.112C500.028 470.092 500.406 469.952 500.765 469.753C508.798 468.179 515.815 463.597 522.313 458.855C525.064 456.883 521.715 455.767 519.642 455.408Z" fill="#F9F8F1"/>
<path d="M519.642 455.408C517.649 455.07 515.596 455.189 513.662 455.767C513.423 455.827 513.144 455.906 512.845 455.986C513.981 452.958 514.639 449.71 515.456 446.523C515.596 445.985 515.057 445.427 514.499 445.706C512.127 446.961 509.915 448.435 507.861 450.089C507.483 445.148 504.333 440.546 502.101 436.242C501.881 435.804 501.204 435.724 500.925 436.162C498.812 439.47 497.317 443.016 496.42 446.802C495.961 446.124 495.463 445.467 494.905 444.869C493.789 443.634 491.297 441.123 489.443 441.542C487.43 441.98 488.307 445.347 488.426 446.762C488.626 449.392 488.985 452.021 489.603 454.592C486.912 454.851 484.32 455.488 481.868 456.644C479.297 457.839 478.38 458.636 480.692 460.728C485.815 465.31 491.496 469.793 498.692 469.873C498.692 469.873 498.712 469.873 498.712 469.893C498.812 469.972 498.891 470.012 498.991 470.032C499.171 470.152 499.43 470.192 499.669 470.112C500.028 470.092 500.406 469.952 500.765 469.753C508.798 468.179 515.815 463.597 522.313 458.855C525.064 456.883 521.715 455.767 519.642 455.408ZM484.719 462.441C483.642 461.565 482.267 460.648 481.41 459.552C480.931 458.935 480.712 459.194 481.191 458.497C481.45 458.118 482.407 457.879 482.805 457.7C485.058 456.683 487.47 456.106 489.941 455.906C489.981 455.986 490.001 456.066 490.021 456.165C490.998 459.513 492.473 462.641 494.506 465.41C491.436 463.916 488.745 461.804 486.573 459.134C486.453 458.995 485.935 459.134 486.054 459.313C488.486 462.282 491.536 464.573 495.024 466.087C495.662 466.904 496.34 467.681 497.078 468.418C492.433 467.9 488.347 465.43 484.719 462.441ZM499.25 467.721C497.097 461.804 495.084 455.847 493.191 449.83C493.131 449.591 492.573 449.69 492.652 449.929C494.566 456.026 496.619 462.083 498.792 468.08C498.832 468.179 498.951 468.219 499.091 468.219C499.031 468.259 498.991 468.279 498.951 468.339C498.353 467.801 497.775 467.223 497.237 466.645C497.257 466.585 497.257 466.546 497.157 466.526C497.137 466.506 497.117 466.506 497.097 466.506C494.865 464.015 493.171 461.087 492.014 457.919C491.676 456.982 491.377 456.026 491.117 455.05C491.117 454.95 491.098 454.87 491.058 454.771C490.719 453.476 490.46 452.161 490.24 450.846C490.061 449.651 489.921 448.475 489.822 447.28C489.742 446.543 489.702 445.805 489.662 445.068C489.622 444.271 489.244 443.594 490.121 443.335C491.995 442.797 494.705 446.582 495.543 447.897C496.798 449.87 497.596 452.081 498.174 454.333C498.612 456.046 499.031 457.859 499.33 459.712C499.31 459.811 499.33 459.911 499.37 459.991C499.749 462.601 499.828 465.251 499.25 467.721ZM500.965 456.982C500.965 456.803 500.965 456.624 500.965 456.444C500.965 455.747 500.965 455.05 500.965 454.372C500.984 453.297 501.024 452.241 501.084 451.165C501.204 449.033 501.423 446.921 501.682 444.809C501.722 444.51 501.164 444.55 501.144 444.789C500.825 447.26 500.606 449.73 500.486 452.221C500.446 453.297 500.426 454.392 500.406 455.468C500.406 455.986 500.287 456.703 500.367 457.321C499.928 455.269 499.35 453.277 498.732 451.483C498.373 450.467 497.935 449.471 497.436 448.495C498.174 444.71 499.509 441.203 501.463 437.916C503.695 442.02 506.606 446.503 506.526 451.205C504.493 452.998 502.659 455.01 501.004 457.201C501.004 457.122 500.984 457.062 500.965 456.982ZM500.506 468.359C500.705 467.601 500.825 466.824 500.925 466.028C504.014 462.521 506.805 458.775 509.297 454.811C509.456 454.532 508.918 454.472 508.778 454.691C506.466 458.397 503.855 461.883 501.004 465.191C501.144 463.438 501.044 461.624 500.805 459.811C502.699 456.982 504.911 454.452 507.423 452.221C507.602 452.181 507.762 452.061 507.842 451.862C509.675 450.288 511.649 448.874 513.782 447.658C513.064 450.706 512.406 453.874 511.17 456.743C510.931 456.942 510.752 457.182 510.672 457.461C510.652 457.56 510.652 457.7 510.672 457.819C510.333 458.457 509.974 459.094 509.576 459.692C508.28 461.585 506.665 463.218 504.931 464.713C504.174 465.37 503.376 466.008 502.579 466.605C502.34 466.805 501.283 467.761 500.506 468.359ZM520.838 458.257C520.36 458.616 519.861 458.955 519.363 459.293C518.027 460.23 516.692 461.146 515.317 462.023C511.549 464.414 507.602 466.486 503.337 467.741C503.396 467.701 503.436 467.661 503.476 467.621C504.612 466.765 505.709 465.848 506.765 464.892C509.795 462.68 512.925 460.648 516.194 458.795C516.433 458.656 515.895 458.656 515.775 458.736C513.164 460.21 510.632 461.804 508.16 463.517C508.579 463.099 508.978 462.66 509.376 462.202C510.393 460.967 511.21 459.652 511.888 458.257C512.008 458.178 512.087 458.078 512.127 457.919C512.147 457.879 512.147 457.839 512.147 457.799C512.167 457.759 512.167 457.7 512.167 457.64C512.187 457.62 512.187 457.6 512.207 457.6C513.084 456.923 516.134 456.604 516.812 456.584C518.087 456.524 520.34 456.484 521.396 457.261C521.596 457.321 521.815 457.381 522.014 457.441C521.615 457.7 521.237 457.979 520.838 458.257Z" fill="#F18750"/>
<path d="M92.9492 471.486C90.9559 471.148 88.9027 471.247 86.9692 471.825C86.73 471.885 86.4509 471.965 86.1519 472.044C87.2881 469.016 87.9459 465.768 88.7632 462.601C88.9027 462.063 88.3645 461.485 87.8064 461.784C85.4343 463.019 83.2217 464.493 81.1686 466.167C80.7899 461.206 77.6404 456.604 75.4079 452.3C75.1886 451.862 74.5109 451.802 74.2318 452.221C72.1189 455.528 70.6238 459.074 69.7268 462.86C69.2684 462.182 68.77 461.525 68.2119 460.927C67.0956 459.692 64.604 457.181 62.7502 457.6C60.7568 458.058 61.614 461.425 61.7336 462.82C61.9329 465.45 62.2917 468.08 62.9096 470.65C60.2386 470.909 57.6273 471.566 55.1755 472.702C52.6041 473.897 51.6872 474.694 54.0194 476.786C59.1223 481.388 64.8232 485.871 71.9992 485.931L72.0192 485.951C72.1188 486.031 72.1986 486.07 72.2982 486.09C72.4776 486.23 72.7368 486.25 72.976 486.17C73.3348 486.15 73.7135 486.011 74.0723 485.831C82.1055 484.237 89.122 479.655 95.6402 474.933C98.3711 472.941 95.0223 471.825 92.9492 471.486Z" fill="#F9F5F1"/>
<path d="M92.9492 471.485C90.9559 471.146 88.9027 471.246 86.9692 471.824C86.73 471.883 86.4509 471.963 86.1519 472.043C87.2881 469.014 87.9459 465.767 88.7632 462.599C88.9027 462.061 88.3645 461.483 87.8064 461.782C85.4343 463.017 83.2217 464.492 81.1686 466.165C80.7899 461.204 77.6404 456.602 75.4079 452.299C75.1886 451.86 74.5109 451.801 74.2318 452.239C72.1189 455.526 70.6238 459.073 69.7268 462.858C69.2684 462.181 68.77 461.523 68.2119 460.925C67.0956 459.69 64.604 457.18 62.7502 457.598C60.7568 458.056 61.614 461.424 61.7336 462.818C61.9329 465.448 62.2917 468.078 62.9096 470.648C60.2386 470.907 57.6273 471.565 55.1755 472.7C52.6041 473.896 51.6872 474.692 54.0194 476.784C59.1223 481.387 64.8232 485.869 71.9992 485.929L72.0192 485.949C72.1188 486.029 72.1986 486.069 72.2982 486.089C72.4776 486.228 72.7368 486.248 72.976 486.168C73.3348 486.148 73.7135 486.009 74.0723 485.83C82.1055 484.236 89.122 479.653 95.6402 474.932C98.3711 472.939 95.0223 471.824 92.9492 471.485ZM58.026 478.518C56.9695 477.621 55.5742 476.705 54.717 475.629C54.2386 475.011 54.0194 475.25 54.4978 474.553C54.7569 474.194 55.7137 473.935 56.1124 473.756C58.3848 472.74 60.7768 472.162 63.2684 471.963C63.2884 472.043 63.3083 472.142 63.3282 472.222C64.305 475.569 65.78 478.717 67.8132 481.466C64.7435 479.972 62.0724 477.86 59.8798 475.191C59.7602 475.051 59.2419 475.21 59.3814 475.37C61.7934 478.338 64.8432 480.63 68.3315 482.144C68.9694 482.961 69.6471 483.738 70.4046 484.475C65.7402 483.957 61.6538 481.486 58.026 478.518ZM72.5574 483.778C70.4046 477.86 68.3913 471.903 66.5176 465.886C66.4378 465.647 65.8797 465.747 65.9594 465.986C67.873 472.083 69.9262 478.139 72.0989 484.136C72.1388 484.256 72.2783 484.276 72.3979 484.276C72.358 484.315 72.2982 484.355 72.2783 484.395C71.6604 483.857 71.1022 483.299 70.5441 482.702C70.564 482.662 70.564 482.602 70.4644 482.582C70.4444 482.582 70.4245 482.562 70.4245 482.562C68.172 480.072 66.4777 477.143 65.3216 473.995C64.9827 473.039 64.6837 472.083 64.4445 471.106C64.4246 471.027 64.4046 470.927 64.3648 470.847C64.0259 469.532 63.7668 468.217 63.5475 466.902C63.3681 465.727 63.2286 464.532 63.1289 463.336C63.0492 462.599 63.0093 461.862 62.9694 461.125C62.9296 460.328 62.5708 459.65 63.4279 459.411C65.3016 458.873 68.0126 462.639 68.8498 463.954C70.1056 465.926 70.9029 468.158 71.481 470.409C71.9195 472.102 72.358 473.915 72.6371 475.768C72.6172 475.868 72.6371 475.968 72.677 476.047C73.0557 478.657 73.1354 481.307 72.5574 483.778ZM74.2717 473.039C74.2717 472.86 74.2717 472.68 74.2717 472.501C74.2717 471.804 74.2717 471.126 74.2916 470.429C74.3115 469.353 74.3514 468.297 74.4112 467.241C74.5109 465.109 74.7301 462.978 74.9893 460.866C75.0291 460.587 74.471 460.607 74.451 460.846C74.1321 463.316 73.9128 465.807 73.7933 468.277C73.7534 469.373 73.7334 470.449 73.7334 471.545C73.7135 472.043 73.5939 472.76 73.6737 473.378C73.2351 471.325 72.657 469.333 72.0391 467.56C71.6803 466.524 71.2418 465.528 70.7434 464.551C71.481 460.786 72.8165 457.26 74.77 453.972C77.0225 458.076 79.9128 462.559 79.853 467.281C77.7999 469.074 75.966 471.086 74.3115 473.258C74.3115 473.198 74.2916 473.119 74.2717 473.039ZM73.8132 484.415C74.0125 483.658 74.1521 482.881 74.2318 482.084C77.3215 478.578 80.1121 474.832 82.6038 470.867C82.7633 470.608 82.2251 470.528 82.1055 470.748C79.7733 474.453 77.162 477.96 74.3115 481.267C74.451 479.494 74.3514 477.681 74.1122 475.868C76.0058 473.039 78.2185 470.509 80.7301 468.297C80.9095 468.237 81.0689 468.118 81.1487 467.938C82.9825 466.365 84.9759 464.95 87.0888 463.715C86.3712 466.763 85.7134 469.951 84.4775 472.82C84.2383 472.999 84.0589 473.238 83.9792 473.517C83.9593 473.637 83.9593 473.756 83.9792 473.876C83.6603 474.513 83.3015 475.151 82.8829 475.748C81.5872 477.641 79.9726 479.295 78.2384 480.789C77.4809 481.446 76.6836 482.064 75.8863 482.682C75.6471 482.861 74.6105 483.817 73.8132 484.415ZM94.1452 474.314C93.6668 474.673 93.1685 475.011 92.6701 475.35C91.3346 476.286 89.9991 477.203 88.6237 478.079C84.8563 480.47 80.9095 482.542 76.6437 483.797C76.7035 483.758 76.7434 483.718 76.7833 483.698C77.9195 482.821 79.0357 481.925 80.0723 480.948C83.1021 478.737 86.2317 476.705 89.5007 474.872C89.7399 474.732 89.2017 474.732 89.0821 474.792C86.4709 476.266 83.9393 477.86 81.4676 479.594C81.8862 479.155 82.2849 478.717 82.6835 478.259C83.7001 477.024 84.5174 475.709 85.1951 474.314C85.3147 474.254 85.4144 474.135 85.4343 473.995C85.4543 473.955 85.4543 473.915 85.4742 473.876C85.4742 473.816 85.4941 473.756 85.4941 473.716C85.4941 473.696 85.4941 473.676 85.5141 473.656C86.3911 472.979 89.4409 472.68 90.1386 472.64C91.3944 472.581 93.6668 472.541 94.7033 473.318C94.9027 473.378 95.1219 473.437 95.3213 473.497C94.9226 473.776 94.5439 474.055 94.1452 474.314Z" fill="#F18750"/>
<path d="M335.697 419.746C332.508 419.088 329.179 419.168 326.05 420.005C325.671 420.104 325.213 420.204 324.734 420.323C326.708 415.482 327.923 410.302 329.399 405.221C329.638 404.365 328.801 403.428 327.904 403.867C324.017 405.759 320.369 408.011 316.98 410.581C316.621 402.611 311.797 395.041 308.409 388.008C308.07 387.29 306.993 387.151 306.535 387.828C302.967 393.048 300.356 398.667 298.741 404.723C298.043 403.608 297.286 402.532 296.409 401.536C294.655 399.503 290.788 395.339 287.778 395.917C284.529 396.535 285.764 401.994 285.884 404.245C286.083 408.509 286.522 412.752 287.399 416.916C283.053 417.215 278.848 418.112 274.841 419.845C270.635 421.638 269.14 422.873 272.768 426.36C280.741 433.991 289.691 441.502 301.253 441.96C301.273 441.96 301.293 441.98 301.293 442C301.432 442.119 301.592 442.199 301.731 442.219C302.03 442.458 302.449 442.518 302.807 442.398C303.405 442.378 304.003 442.179 304.601 441.88C317.598 439.749 329.119 432.696 339.844 425.424C344.329 422.355 339.006 420.403 335.697 419.746Z" fill="#F9F5F1"/>
<path d="M335.697 419.746C332.508 419.088 329.179 419.168 326.05 420.005C325.671 420.104 325.213 420.204 324.734 420.323C326.708 415.482 327.923 410.302 329.399 405.221C329.638 404.365 328.801 403.428 327.904 403.867C324.017 405.759 320.369 408.011 316.98 410.581C316.621 402.611 311.797 395.041 308.409 388.008C308.07 387.29 306.993 387.151 306.535 387.828C302.967 393.048 300.356 398.667 298.741 404.723C298.043 403.608 297.286 402.532 296.409 401.536C294.655 399.503 290.788 395.339 287.778 395.917C284.529 396.535 285.764 401.994 285.884 404.245C286.083 408.509 286.522 412.752 287.399 416.916C283.053 417.215 278.848 418.112 274.841 419.845C270.635 421.638 269.14 422.873 272.768 426.36C280.741 433.991 289.691 441.502 301.253 441.96C301.273 441.96 301.293 441.98 301.293 442C301.432 442.119 301.592 442.199 301.731 442.219C302.03 442.458 302.449 442.518 302.807 442.398C303.405 442.378 304.003 442.179 304.601 441.88C317.598 439.749 329.119 432.696 339.844 425.424C344.329 422.355 339.006 420.403 335.697 419.746ZM279.147 429.329C277.472 427.854 275.299 426.32 273.964 424.507C273.206 423.491 272.848 423.87 273.665 422.794C274.103 422.216 275.658 421.857 276.276 421.598C279.984 420.064 283.891 419.267 287.877 419.048C287.917 419.188 287.957 419.327 287.977 419.467C289.392 424.906 291.605 430.026 294.734 434.569C289.891 432.018 285.665 428.492 282.296 424.089C282.097 423.85 281.259 424.069 281.459 424.348C285.206 429.229 290.01 433.094 295.532 435.704C296.528 437.039 297.585 438.334 298.741 439.549C291.266 438.473 284.847 434.29 279.147 429.329ZM302.269 438.533C299.1 428.91 296.15 419.208 293.419 409.445C293.299 409.047 292.422 409.186 292.522 409.565C295.313 419.467 298.303 429.309 301.512 439.091C301.572 439.25 301.771 439.33 301.97 439.31C301.91 439.37 301.831 439.43 301.771 439.51C300.814 438.613 299.937 437.677 299.08 436.7C299.12 436.621 299.1 436.541 298.96 436.481C298.92 436.481 298.901 436.461 298.881 436.461C295.372 432.357 292.801 427.555 291.107 422.415C290.588 420.881 290.19 419.307 289.811 417.733C289.811 417.594 289.771 417.434 289.711 417.295C289.233 415.183 288.874 413.051 288.615 410.919C288.376 409.007 288.196 407.074 288.097 405.162C288.017 403.966 287.977 402.771 287.957 401.595C287.917 400.32 287.379 399.205 288.794 398.846C291.824 398.069 295.99 404.265 297.266 406.437C299.2 409.684 300.376 413.29 301.193 416.936C301.811 419.706 302.409 422.654 302.788 425.643C302.768 425.802 302.788 425.962 302.847 426.101C303.326 430.305 303.326 434.588 302.269 438.533ZM305.558 421.319C305.558 421.041 305.578 420.762 305.578 420.463C305.598 419.347 305.638 418.231 305.698 417.116C305.778 415.402 305.897 413.689 306.057 411.995C306.336 408.569 306.774 405.162 307.312 401.775C307.392 401.316 306.495 401.316 306.435 401.715C305.817 405.68 305.339 409.664 305.04 413.649C304.9 415.402 304.801 417.136 304.741 418.889C304.721 419.706 304.482 420.861 304.562 421.837C303.984 418.51 303.146 415.303 302.229 412.374C301.691 410.72 301.053 409.087 300.296 407.513C301.671 401.456 303.984 395.857 307.292 390.657C310.701 397.372 315.146 404.743 314.807 412.314C311.439 415.103 308.369 418.251 305.618 421.698C305.598 421.578 305.598 421.459 305.558 421.319ZM304.243 439.609C304.601 438.394 304.861 437.159 305.04 435.883C310.183 430.385 314.867 424.487 319.073 418.231C319.352 417.813 318.475 417.693 318.256 418.032C314.349 423.87 309.983 429.369 305.219 434.569C305.518 431.739 305.459 428.791 305.14 425.882C308.329 421.419 312.037 417.434 316.183 414.008C316.482 413.928 316.721 413.749 316.86 413.45C319.89 410.999 323.159 408.828 326.648 406.955C325.332 411.816 324.136 416.916 321.983 421.459C321.605 421.758 321.306 422.136 321.166 422.575C321.106 422.754 321.106 422.953 321.126 423.152C320.568 424.169 319.97 425.165 319.272 426.121C317.12 429.11 314.409 431.66 311.558 433.991C310.302 435.007 309.007 435.963 307.691 436.919C307.273 437.218 305.558 438.693 304.243 439.609ZM337.472 424.368C336.674 424.906 335.857 425.444 335.06 425.962C332.867 427.396 330.654 428.811 328.402 430.146C322.223 433.811 315.764 436.959 308.847 438.772C308.927 438.713 309.007 438.653 309.086 438.593C310.94 437.258 312.774 435.844 314.508 434.349C319.472 430.942 324.634 427.814 329.957 425.005C330.355 424.806 329.498 424.786 329.299 424.886C325.033 427.137 320.867 429.588 316.821 432.218C317.518 431.54 318.176 430.863 318.814 430.146C320.548 428.213 321.904 426.121 323.06 423.929C323.259 423.83 323.419 423.651 323.478 423.411C323.498 423.332 323.518 423.272 323.518 423.212C323.558 423.132 323.558 423.033 323.558 422.953C323.578 422.933 323.598 422.893 323.598 422.873C325.073 421.818 329.997 421.479 331.093 421.479C333.126 421.439 336.774 421.499 338.428 422.794C338.747 422.893 339.086 422.993 339.405 423.093C338.767 423.531 338.129 423.949 337.472 424.368Z" fill="#DB5510"/>
<path d="M305.937 414.565C303.366 414.964 300.914 415.94 298.801 417.414C298.542 417.594 298.223 417.793 297.904 418.012C298.043 413.868 297.525 409.644 297.226 405.46C297.186 404.743 296.289 404.285 295.751 404.843C293.359 407.333 291.266 410.023 289.432 412.872C286.96 407.014 281.279 402.691 276.834 398.368C276.376 397.929 275.539 398.109 275.379 398.746C274.143 403.627 273.745 408.529 274.203 413.509C273.366 412.872 272.509 412.274 271.572 411.756C269.718 410.72 265.672 408.688 263.579 409.943C261.326 411.298 263.758 415.044 264.456 416.697C265.771 419.805 267.286 422.873 269.08 425.742C265.911 427.137 263.02 428.99 260.489 431.381C257.858 433.871 257.08 435.206 260.748 436.8C268.821 440.326 277.552 443.454 286.323 440.625C286.342 440.625 286.342 440.645 286.362 440.645C286.502 440.705 286.641 440.705 286.741 440.705C287.02 440.784 287.359 440.725 287.598 440.525C288.037 440.366 288.435 440.047 288.814 439.649C297.924 434.489 304.581 426.061 310.581 417.673C313.093 414.147 308.588 414.147 305.937 414.565Z" fill="#F9F5F1"/>
<path d="M305.937 414.565C303.366 414.964 300.914 415.94 298.801 417.414C298.542 417.594 298.223 417.793 297.904 418.012C298.043 413.868 297.525 409.644 297.226 405.46C297.186 404.743 296.289 404.285 295.751 404.843C293.359 407.333 291.266 410.023 289.432 412.872C286.96 407.014 281.279 402.691 276.834 398.368C276.376 397.929 275.539 398.109 275.379 398.746C274.143 403.627 273.745 408.529 274.203 413.509C273.366 412.872 272.509 412.274 271.572 411.756C269.718 410.72 265.672 408.688 263.579 409.943C261.326 411.298 263.758 415.044 264.456 416.697C265.771 419.805 267.286 422.873 269.08 425.742C265.911 427.137 263.02 428.99 260.489 431.381C257.858 433.871 257.08 435.206 260.748 436.8C268.821 440.326 277.552 443.454 286.323 440.625C286.342 440.625 286.342 440.645 286.362 440.645C286.502 440.705 286.641 440.705 286.741 440.705C287.02 440.784 287.359 440.725 287.598 440.525C288.037 440.366 288.435 440.047 288.814 439.649C297.924 434.489 304.581 426.061 310.581 417.673C313.093 414.147 308.588 414.147 305.937 414.565ZM266.329 437.278C264.675 436.64 262.622 436.083 261.127 435.106C260.29 434.548 260.13 434.927 260.429 433.891C260.609 433.353 261.665 432.656 262.064 432.277C264.416 430.125 267.107 428.452 270.037 427.197C270.097 427.296 270.157 427.396 270.216 427.476C272.768 431.162 275.838 434.369 279.426 436.899C275.1 436.342 270.974 434.847 267.246 432.496C267.027 432.357 266.449 432.755 266.688 432.915C270.834 435.545 275.479 437.099 280.323 437.517C281.439 438.254 282.575 438.932 283.791 439.509C277.911 440.765 271.951 439.43 266.329 437.278ZM286.123 437.796C281.12 431.46 276.256 425.045 271.512 418.49C271.333 418.231 270.695 418.57 270.894 418.829C275.698 425.463 280.642 431.998 285.725 438.414C285.804 438.533 285.984 438.513 286.123 438.453C286.083 438.513 286.043 438.573 286.024 438.653C285.067 438.254 284.15 437.796 283.253 437.298C283.253 437.238 283.233 437.178 283.093 437.178C283.073 437.178 283.053 437.178 283.034 437.178C279.286 435.066 276.037 432.198 273.366 428.811C272.549 427.814 271.811 426.758 271.113 425.683C271.074 425.563 270.994 425.463 270.914 425.384C269.977 423.929 269.12 422.435 268.323 420.921C267.625 419.566 266.967 418.171 266.369 416.757C265.991 415.9 265.632 415.024 265.273 414.127C264.894 413.191 264.197 412.513 265.153 411.856C267.206 410.441 272.01 413.928 273.565 415.203C275.897 417.096 277.791 419.466 279.406 421.957C280.622 423.87 281.877 425.902 282.974 428.014C282.994 428.153 283.053 428.253 283.133 428.352C284.668 431.361 285.844 434.548 286.123 437.796ZM283.851 424.029C283.791 423.81 283.711 423.611 283.632 423.391C283.352 422.555 283.073 421.698 282.814 420.861C282.396 419.546 282.017 418.251 281.658 416.916C280.941 414.286 280.323 411.617 279.784 408.947C279.725 408.588 279.067 408.827 279.127 409.146C279.745 412.274 280.482 415.382 281.359 418.45C281.738 419.785 282.137 421.12 282.575 422.435C282.774 423.053 282.934 423.969 283.253 424.686C281.897 422.375 280.402 420.184 278.907 418.271C278.05 417.175 277.133 416.119 276.117 415.163C275.479 410.262 275.678 405.44 276.715 400.659C281.12 404.723 286.462 409.027 288.296 414.765C286.542 417.773 285.107 420.961 283.99 424.288C283.97 424.208 283.911 424.129 283.851 424.029ZM287.917 438.055C287.837 437.059 287.698 436.063 287.479 435.047C289.811 429.528 291.685 423.85 293.1 418.012C293.2 417.634 292.522 417.773 292.442 418.072C291.126 423.531 289.372 428.83 287.239 434.011C286.681 431.819 285.844 429.647 284.808 427.535C285.964 423.352 287.618 419.347 289.771 415.641C289.97 415.502 290.11 415.303 290.13 415.044C291.724 412.374 293.578 409.863 295.651 407.512C296.01 411.497 296.508 415.641 296.17 419.626C295.97 419.965 295.851 420.303 295.851 420.682C295.871 420.821 295.91 420.981 295.99 421.12C295.851 422.037 295.671 422.953 295.432 423.85C294.635 426.679 293.319 429.329 291.824 431.839C291.166 432.955 290.449 434.03 289.731 435.086C289.512 435.425 288.635 437.019 287.917 438.055ZM308.548 417.534C308.09 418.152 307.631 418.769 307.173 419.387C305.917 421.06 304.661 422.734 303.346 424.348C299.738 428.791 295.791 432.915 291.107 436.162C291.166 436.102 291.206 436.023 291.246 435.963C292.263 434.449 293.239 432.895 294.116 431.301C296.887 427.396 299.897 423.65 303.106 420.084C303.346 419.825 302.688 420.024 302.568 420.164C299.997 423.013 297.565 426.001 295.273 429.07C295.592 428.392 295.91 427.675 296.19 426.978C296.947 425.065 297.386 423.132 297.645 421.16C297.764 421.04 297.844 420.861 297.824 420.662C297.804 420.602 297.804 420.562 297.804 420.503C297.784 420.423 297.784 420.363 297.764 420.303C297.764 420.283 297.764 420.263 297.764 420.224C298.562 419.048 302.15 417.434 302.967 417.116C304.482 416.538 307.213 415.581 308.807 416.099C309.086 416.08 309.346 416.06 309.625 416.06C309.266 416.558 308.907 417.036 308.548 417.534Z" fill="#DB5510"/>
<path d="M435.584 391.674C433.949 402.731 427.67 412.733 418.421 419.028C418.082 418.949 417.743 419.088 417.524 419.307C414.713 418.172 413.418 414.745 411.743 412.334C410.368 410.342 408.733 409.126 406.521 408.17C406.102 407.991 405.664 407.812 405.245 407.612C416.488 404.803 426.873 399.344 435.584 391.674Z" fill="#F9F5F1"/>
<path d="M347.937 396.973C347.538 391.235 347.677 383.863 350.807 378.743C351.265 380.038 351.126 382.449 351.245 383.385C351.385 384.581 351.584 385.796 351.863 386.972C352.481 389.701 353.478 392.371 354.933 394.762C357.385 398.746 361.073 401.795 365.578 403.129C362.029 406.098 359.059 409.644 356.727 413.569C351.026 410.003 348.415 403.508 347.937 396.973Z" fill="#F9F5F1"/>
<path d="M416.407 436.72C415.191 438.553 413.039 442.12 410.926 443.096C408.753 444.112 407.936 441.94 405.922 442.219C402.115 442.757 402.434 448.057 401.198 450.627C398.946 455.289 394.202 459.074 390.335 462.382C389.039 463.517 384.534 468.279 383.059 466.964C382.899 466.845 382.74 465.749 382.58 465.47C382.321 465.031 381.923 464.673 381.504 464.394C379.311 462.86 376.401 463.717 374.787 465.609C373.611 466.984 373.092 468.697 372.554 470.371C371.836 472.523 371.258 472.921 368.886 473.12C367.451 473.24 365.916 473.041 364.481 473.021C361.651 472.941 358.78 472.961 355.93 472.822C354.315 472.722 350.488 471.845 349.372 470.052C349.451 469.933 349.531 469.793 349.531 469.614C349.631 468.737 349.79 467.881 349.99 467.024C350.009 467.024 350.009 467.024 350.009 467.004C350.249 466.745 350.289 466.466 350.209 466.207C351.524 461.585 354.195 457.381 354.734 452.54C355.451 446.304 352.621 440.207 352.681 433.951C352.84 422.097 358.501 410.76 367.81 403.468C368.089 403.269 368.149 403.01 368.089 402.771C370.262 401.038 372.873 400.022 375.684 399.942C378.574 399.862 380.786 401.038 383.378 402.113C387.943 403.986 392.846 401.934 397.351 403.508C399.723 404.325 400.62 406.815 402.613 408.15C405.065 409.784 407.896 410.182 409.829 412.613C412.461 415.94 413.856 420.602 418.48 421.32C422.407 425.763 419.298 432.377 416.407 436.72Z" fill="#F9F5F1"/>
<path d="M437.537 389.522C437.617 388.745 436.58 388.466 436.082 388.924C426.813 397.611 415.471 403.608 403.072 406.377C402.933 406.277 402.793 406.158 402.654 406.018C401.697 405.102 401.119 403.926 400.082 403.09C398.547 401.854 396.594 401.436 394.68 401.336C392.069 401.217 389.438 401.655 386.847 401.316C384.096 400.938 381.823 399.225 379.132 398.587C374.707 397.571 370.142 398.826 366.714 401.695C366.674 401.675 366.634 401.655 366.574 401.655C360.515 400.061 356.289 395.14 354.295 389.343C353.319 386.474 352.86 383.465 352.681 380.457C352.581 378.883 352.621 377.488 351.206 376.552C350.787 376.293 350.289 376.512 350.03 376.851C345.744 382.628 345.545 392.172 346.442 399.005C347.279 405.461 350.269 411.557 355.89 415.064C353.199 420.084 351.545 425.683 351.106 431.421C350.887 434.15 350.967 436.92 351.345 439.629C351.864 443.454 353.259 447.22 353.139 451.125C352.96 456.464 349.95 461.106 348.515 466.167C347.119 468.08 347.478 470.65 349.173 472.383C351.943 475.192 357.086 474.555 360.634 474.634C363.385 474.694 366.136 474.774 368.887 474.814C370.322 474.834 371.837 475.013 372.893 473.838C373.99 472.642 374.149 470.71 374.707 469.255C375.225 467.9 375.903 466.605 377.179 465.848C377.896 465.43 378.475 465.251 379.312 465.39C380.886 465.649 380.886 466.247 381.385 467.761C382.401 470.869 384.893 468.916 386.747 467.482C390.793 464.374 394.66 461.027 398.209 457.361C401.338 454.133 402.993 451.085 404.089 446.762C404.228 446.264 404.368 445.427 404.687 445.028C407.497 441.681 406.76 444.391 407.856 444.869C408.215 445.048 408.514 445.367 408.913 445.487C410.647 445.965 412.102 444.371 413.178 443.315C418.341 438.215 425.776 427.316 420.036 420.483C420.016 420.343 419.956 420.204 419.896 420.084C429.942 412.992 436.421 401.815 437.537 389.522ZM347.937 396.973C347.538 391.235 347.678 383.864 350.807 378.743C351.266 380.038 351.126 382.449 351.246 383.385C351.385 384.581 351.584 385.796 351.864 386.972C352.481 389.701 353.478 392.371 354.933 394.762C357.385 398.746 361.073 401.795 365.578 403.129C362.03 406.098 359.059 409.644 356.727 413.569C351.026 410.003 348.415 403.508 347.937 396.973ZM416.408 436.74C415.192 438.553 413.039 442.12 410.926 443.096C408.753 444.112 407.936 441.94 405.923 442.219C402.115 442.757 402.434 448.057 401.199 450.627C398.946 455.289 394.202 459.074 390.335 462.382C389.039 463.517 384.534 468.279 383.059 466.964C382.9 466.844 382.74 465.749 382.581 465.47C382.322 465.031 381.923 464.673 381.504 464.394C379.312 462.86 376.401 463.716 374.787 465.609C373.611 466.984 373.093 468.697 372.554 470.371C372.136 471.646 371.737 472.284 371.019 472.662C370.92 472.543 370.601 472.463 370.322 472.562C369.425 472.363 368.528 472.184 367.631 471.985C367.611 471.367 367.611 470.769 367.651 470.172C367.611 469.375 367.73 470.132 367.531 468.976C367.471 468.618 366.375 468.877 366.435 469.275C366.455 469.753 366.475 470.231 366.475 470.69C364.94 473.061 363.684 473.379 362.747 471.666C361.79 470.53 361.97 470.271 362.01 468.857C362.01 468.398 361.013 468.657 360.913 468.996C360.495 470.51 359.657 473.459 357.246 472.602C355.172 471.885 356.269 469.793 356.727 468.438C356.867 467.98 355.79 468.359 355.671 468.498C355.232 468.996 355.232 469.594 354.873 470.052C352.84 472.622 351.226 472.323 349.99 469.873C349.93 469.733 349.731 469.693 349.511 469.733C349.511 469.693 349.531 469.654 349.531 469.614C349.631 468.737 349.79 467.88 349.99 467.024C350.01 467.024 350.01 467.024 350.01 467.004C350.249 466.745 350.289 466.466 350.209 466.207C351.525 461.585 354.196 457.381 354.734 452.539C355.452 446.303 352.621 440.207 352.681 433.951C352.84 422.097 358.501 410.76 367.81 403.468C368.089 403.269 368.149 403.01 368.089 402.771C370.262 401.038 372.873 400.021 375.684 399.942C378.574 399.862 380.787 401.038 383.378 402.113C387.943 403.986 392.846 401.934 397.351 403.508C399.723 404.325 400.62 406.815 402.614 408.15C405.066 409.784 407.896 410.182 409.83 412.613C412.461 415.94 413.856 420.602 418.481 421.32C422.408 425.762 419.298 432.377 416.408 436.74ZM418.421 419.028C418.082 418.949 417.743 419.088 417.524 419.307C414.713 418.172 413.418 414.745 411.743 412.334C410.368 410.342 408.733 409.126 406.521 408.17C406.102 407.991 405.664 407.811 405.245 407.612C416.487 404.803 426.873 399.344 435.584 391.674C433.949 402.731 427.67 412.733 418.421 419.028Z" fill="#DB5510"/>
<path d="M400.9 425.185C400.581 419.168 395.896 414.147 389.697 414.147C383.578 414.147 378.475 419.247 378.475 425.364C378.475 431.44 383.578 436.601 389.697 436.581C395.896 436.541 400.581 431.56 400.9 425.543C400.9 425.483 400.92 425.424 400.9 425.364C400.92 425.284 400.9 425.244 400.9 425.185ZM391.95 429.01C392.687 427.735 393.126 426.3 393.265 424.806C393.285 424.587 393.225 424.427 393.146 424.288C393.205 424.009 393.265 423.73 393.325 423.451C393.385 425.603 392.866 427.735 391.73 429.667C391.81 429.448 391.89 429.229 391.95 429.01ZM389.697 415.562C390.116 415.562 390.514 415.601 390.913 415.641C390.813 415.86 390.813 416.119 390.993 416.378C391.033 416.438 391.072 416.498 391.112 416.558C391.013 416.637 390.953 416.737 390.913 416.857C390.514 416.279 389.996 415.821 389.298 415.581C389.438 415.581 389.558 415.562 389.697 415.562ZM390.116 428.571C390.136 428.591 390.136 428.591 390.136 428.591C390.096 428.731 390.056 428.87 389.996 428.99C389.757 429.329 389.478 429.647 389.159 429.926C389.498 429.488 389.817 429.03 390.116 428.571ZM381.983 422.654C381.943 422.794 381.883 422.933 381.843 423.073C381.724 423.212 381.624 423.391 381.624 423.611C381.624 423.65 381.624 423.67 381.624 423.69C381.604 423.71 381.604 423.71 381.604 423.73C381.524 423.71 381.445 423.71 381.365 423.71C381.544 423.332 381.764 422.953 382.003 422.594C382.003 422.614 381.983 422.634 381.983 422.654ZM380.787 421.339C381.544 419.666 382.78 418.231 384.315 417.215C382.9 418.45 381.684 420.104 380.787 421.339ZM384.953 419.267C384.933 419.267 384.913 419.287 384.893 419.287C385.053 419.108 385.232 418.948 385.431 418.789C385.451 418.909 385.451 419.028 385.471 419.148C385.391 419.188 385.332 419.227 385.252 419.267C385.152 419.267 385.053 419.247 384.953 419.267ZM386.049 433.592C385.81 433.512 385.571 433.393 385.332 433.253C385.431 433.114 385.531 432.955 385.551 432.775C385.75 432.775 385.95 432.775 386.149 432.735C386.109 432.915 386.089 433.094 386.049 433.293C386.029 433.393 386.029 433.493 386.049 433.592ZM389.039 435.126C391.571 433.791 393.604 430.205 394.381 427.974C395.757 423.949 395.059 419.646 392.847 416.099C393.863 416.438 394.78 416.956 395.597 417.594C395.597 417.673 395.597 417.773 395.617 417.853C397.312 423.531 396.395 429.408 393.066 434.289C393.006 434.389 392.986 434.489 392.986 434.568C391.95 434.947 390.853 435.146 389.697 435.146C389.458 435.146 389.259 435.126 389.039 435.126ZM394.8 433.672C397.411 429.229 398.209 424.069 397.092 419.048C398.528 420.762 399.405 422.973 399.484 425.364C399.365 428.85 397.551 431.939 394.8 433.672Z" fill="#DB5510"/>
<path d="M388.381 440.486C380.807 438.613 375.963 431.899 376.441 424.149C376.481 423.611 375.365 423.81 375.345 424.248C374.827 432.317 379.89 439.211 387.724 441.163C388.142 441.263 389.019 440.645 388.381 440.486Z" fill="#F18750"/>
<path d="M396.454 449.391C394.939 451.085 393.843 453.057 392.607 454.95C390.873 457.56 388.68 459.333 386.089 461.067C385.65 461.365 386.727 461.226 386.926 461.086C388.9 459.771 390.853 458.417 392.388 456.564C394.262 454.253 395.458 451.523 397.451 449.312C397.65 449.053 396.634 449.192 396.454 449.391Z" fill="#F18750"/>
<path d="M403.272 441.382C403.032 441.303 402.674 441.422 402.494 441.582C402.095 441.92 401.677 442.279 401.278 442.618C401.099 442.777 401.178 442.916 401.378 442.976C401.617 443.056 401.976 442.936 402.155 442.777C402.554 442.418 402.953 442.08 403.371 441.741C403.551 441.582 403.471 441.442 403.272 441.382Z" fill="#F18750"/>
<path d="M416.069 432.915C415.331 435.764 413.737 438.175 411.385 439.948C410.906 440.306 412.002 440.286 412.262 440.087C414.693 438.254 416.388 435.724 417.165 432.775C417.245 432.397 416.149 432.556 416.069 432.915Z" fill="#F18750"/>
<path d="M366.774 457.461C365.857 455.448 365.478 453.456 365.438 451.224C365.438 449.85 365.817 448.017 365.059 446.762C364.202 445.367 362.289 445.188 360.893 445.785C358.741 446.702 358.063 449.053 357.724 451.165C357.046 455.488 356.129 459.274 353.877 462.979C353.677 462.939 353.458 462.959 353.299 463.059C351.923 463.896 352.641 465.29 353.996 465.669C357.026 466.506 360.056 464.792 362.946 465.091C364.78 465.29 366.634 467.223 368.289 465.27C370.202 463.019 367.711 459.552 366.774 457.461Z" fill="#DB5510"/>
<path d="M355.212 407.473C352.282 405.142 350.867 401.516 351.445 397.81C351.485 397.551 350.408 397.73 350.349 397.989C349.771 401.795 351.186 405.46 354.196 407.851C354.415 408.051 355.392 407.612 355.212 407.473Z" fill="#F18750"/>
<path d="M416.926 414.267C414.135 413.031 413.637 408.609 410.268 408.429C410.009 408.429 409.012 408.887 409.571 408.907C412.6 409.067 413.398 413.549 416.049 414.725C416.288 414.825 417.285 414.426 416.926 414.267Z" fill="#F18750"/>
<path d="M376.9 437.378C375.086 434.927 373.97 432.198 373.551 429.189C373.491 428.751 372.375 429.01 372.455 429.488C372.893 432.556 374.049 435.346 375.883 437.836C376.142 438.195 377.199 437.796 376.9 437.378Z" fill="#F18750"/>
<path d="M365.319 439.948L364.96 439.589C364.721 439.35 363.684 439.749 363.943 439.988C364.063 440.107 364.182 440.227 364.302 440.346C364.541 440.586 365.558 440.187 365.319 439.948Z" fill="#F18750"/>
<path d="M370.76 456.823C369.345 455.149 368.568 453.157 368.548 450.946C368.548 450.348 367.432 450.487 367.451 451.005C367.471 453.356 368.249 455.528 369.764 457.321C370.103 457.719 371.139 457.281 370.76 456.823Z" fill="#F18750"/>
<path d="M365.498 410.362C359.677 416.339 355.79 423.75 354.195 431.939C354.195 432.018 355.232 431.978 355.292 431.66C356.866 423.531 360.714 416.179 366.474 410.242C366.674 410.043 365.677 410.182 365.498 410.362Z" fill="#F18750"/>
<path d="M382.182 404.404C380.089 402.95 377.657 402.432 375.146 402.771C374.887 402.811 373.97 403.269 374.667 403.169C377 402.87 379.212 403.428 381.146 404.763C381.385 404.922 382.302 404.484 382.182 404.404Z" fill="#F18750"/>
<path d="M428.607 403.369C427.271 405.042 425.936 406.716 424.6 408.389C424.301 408.788 425.397 408.728 425.637 408.449C426.972 406.776 428.308 405.102 429.643 403.428C429.962 403.03 428.846 403.07 428.607 403.369Z" fill="#F18750"/>
<path d="M418.521 406.516C418.282 406.755 418.042 406.994 417.803 407.233C417.345 407.672 418.421 407.652 418.68 407.413C418.919 407.154 419.159 406.915 419.398 406.676C419.836 406.237 418.78 406.257 418.521 406.516Z" fill="#F18750"/>
</g>
<defs>
<clipPath id="clip0">
<rect width="598" height="520" fill="white"/>
</clipPath>
</defs>
</svg>
