<svg width="40" height="36" fill="none" xmlns="http://www.w3.org/2000/svg"><path d="M39.557 30.782L22.89 1.893A3.337 3.337 0 0 0 20 .223a3.337 3.337 0 0 0-2.89 1.67L.443 30.783a3.335 3.335 0 0 0 2.89 4.996h33.334a3.334 3.334 0 0 0 2.89-4.997zM3.33 32.448L19.997 3.555H20l.002.004 16.665 28.885-33.336.004zM20 24.667a2.223 2.223 0 1 0 .002 4.446A2.223 2.223 0 0 0 20 24.667zm-2.222-10c0 .126.01.252.03.373l1.095 6.48a1.113 1.113 0 0 0 2.193 0l1.094-6.48a2.222 2.222 0 1 0-4.412-.373z" fill="#FFDAB4"/></svg>