<svg width="156" height="55" viewBox="0 0 156 55" fill="none" xmlns="http://www.w3.org/2000/svg">
<g clip-path="url(#clip0)">
<path fill-rule="evenodd" clip-rule="evenodd" d="M36.8745 0C30.6667 0 25.0166 2.38271 20.7713 6.29493C21.2568 6.76315 21.5357 7.12732 21.5357 7.12732C22.0418 7.82444 21.9076 8.8025 21.2155 9.31234C20.7817 9.64529 20.2342 9.70772 19.7694 9.53084C19.6248 9.48922 18.9741 9.36436 18.1581 9.83258L18.1271 9.84298C21.6287 10.228 22.8372 13.0789 23.3123 14.8997C23.3536 14.9414 23.3846 14.983 23.4259 15.0142C23.4259 15.0142 23.8081 15.4616 24.2936 16.1587C24.7997 15.2639 25.4918 14.4419 26.4214 13.9945C27.6402 13.4014 28.8074 13.3702 29.8197 13.6303C31.1728 13.9737 32.2367 14.8685 32.7945 15.5969C33.311 16.2732 33.187 17.2512 32.5156 17.7819C32.3917 17.8755 32.2471 17.9588 32.1128 18.0108C33.7654 19.2906 34.2406 21.5068 34.2406 21.5068C34.4265 22.3496 33.8997 23.182 33.0631 23.3693C32.8771 23.4109 32.6809 23.4109 32.5053 23.3901C33.7448 25.5751 32.8152 27.396 31.7513 29.4457V29.4561V29.4665C31.3484 30.2261 30.4188 30.5278 29.6544 30.122C29.2516 29.9139 28.983 29.5498 28.8694 29.1336C28.7971 28.8838 28.3426 27.2815 27.9811 26.6884C27.8881 26.5219 27.8158 26.3451 27.7849 26.1682C27.6816 26.0329 27.5989 25.8977 27.5473 25.7416H27.537C27.537 25.7416 27.4647 25.5543 27.3304 25.315C27.4027 26.241 27.506 27.9266 27.3304 29.2064C27.3304 29.248 27.32 29.2792 27.32 29.3209C27.32 29.3937 27.32 29.4665 27.32 29.5394C27.32 29.5498 27.2168 31.6723 26.6796 33.8886C26.6486 34.0134 26.6073 34.1279 26.5557 34.2319C26.5454 34.3152 26.535 34.3984 26.5144 34.4817L26.504 34.5129C26.8862 34.6065 27.2374 34.8458 27.4647 35.1996C27.7952 35.7406 27.7642 36.417 27.4337 36.906C27.5576 37.0829 27.6609 37.291 27.7022 37.5303C27.8158 38.0609 27.6299 38.5916 27.2684 38.9453C27.2787 39.0286 27.2891 39.1014 27.2891 39.1742H55.4774C58.793 35.0435 60.7762 29.7891 60.7762 24.0664C60.7762 20.9658 60.1875 17.99 59.1236 15.2639L58.9996 15.3575C57.8427 16.1587 56.8511 17.0535 56.1074 18.094C55.6116 18.7911 54.6407 18.9472 53.9487 18.4478C53.8867 18.4062 53.8247 18.3541 53.7731 18.3021C52.6472 17.1992 51.542 16.5541 50.4574 16.1899C49.3625 15.8258 48.2469 15.7425 47.1314 15.7633C46.2844 15.7737 45.582 15.087 45.5614 14.2338C45.551 13.5887 45.9332 13.0269 46.4807 12.7876C47.7408 12.2153 49.063 11.8303 50.5607 11.8511C51.7795 11.8615 53.0707 12.132 54.4651 12.7876C55.0229 12.3714 55.5807 12.0072 56.1178 11.695L56.1074 11.6846H56.0971C55.8595 11.1228 55.4154 10.3944 54.7337 9.81177C54.2585 9.40598 53.6594 9.06262 52.9157 8.89614C52.0791 8.70885 51.5523 7.87647 51.7279 7.04408C51.8415 6.53424 52.172 6.14926 52.6059 5.95157C48.4019 2.24745 42.8964 0 36.8745 0ZM13.448 19.353C13.3034 20.0501 13.2001 20.7681 13.1174 21.486C13.2827 22.7242 13.479 24.0768 13.6132 24.5034C13.6339 24.5762 13.6545 24.6491 13.6649 24.7219L13.6752 24.7427C13.7372 24.8676 13.7888 25.0028 13.8198 25.1381C13.8198 25.1589 14.7288 29.4457 15.0696 30.455C15.111 30.5902 15.1419 30.7151 15.1419 30.8504C15.2143 30.9648 15.2659 31.0793 15.3072 31.2145C15.4002 31.4851 15.896 32.9625 16.3298 33.9926C16.5157 33.2955 16.7843 32.6192 17.1768 32.0261C17.6416 31.2978 18.5919 31.1001 19.3149 31.5683C19.883 31.9429 20.1206 32.6192 19.9657 33.2539C19.9657 33.2539 19.8314 33.7949 19.6971 34.5545C20.007 34.6273 20.2962 34.7938 20.5234 35.0539L20.5751 35.1268L20.5854 35.1163L20.6164 35.0331H20.6061C20.6164 35.0227 21.8972 31.7452 21.9902 31.1001C22.0212 30.9232 22.0728 30.7671 22.1451 30.6215C22.1555 30.559 22.1658 30.507 22.1761 30.4446C22.2794 29.9347 22.7132 27.7081 22.7442 26.7613C22.7442 26.6884 22.7545 26.626 22.7649 26.5532C22.7442 26.4491 22.7442 26.3347 22.7545 26.2202C22.7649 25.9497 22.7855 25.1693 22.8062 24.3473C22.6099 24.5346 22.362 24.7843 22.3001 24.93C22.1864 25.2005 22.0005 25.419 21.7733 25.5751C21.7423 25.6167 21.7216 25.6479 21.6906 25.6792C21.6597 25.7312 21.1329 26.3659 21.0916 26.4595V26.4699L21.0502 26.5636C21.0089 26.6572 20.9779 26.73 21.0399 27.4272C21.1122 28.2908 20.4925 29.0399 19.6351 29.1232C19.16 29.1648 18.7158 28.9879 18.406 28.6757C18.3956 28.6757 17.1768 27.448 16.9599 25.2213C16.6913 25.1589 16.4331 25.0132 16.2265 24.8051C16.0509 24.6283 15.9373 24.4306 15.865 24.2121H15.8547C15.8547 24.2017 15.2246 22.2664 14.6771 21.4548C14.6048 21.3611 14.5532 21.2467 14.5119 21.1426C14.4292 21.0698 14.3569 20.9866 14.2846 20.9033C14.2227 20.8097 14.1607 20.716 14.1194 20.612C14.0471 20.4663 13.7578 19.8941 13.448 19.353Z" fill="url(#paint0_linear)"/>
<path d="M24.2316 21.3404C24.2316 21.3404 23.209 21.8919 22.393 22.6722C22.393 22.6722 21.9282 22.2664 21.8145 22.0271C21.8145 22.0271 21.9282 22.7139 22.0624 22.9219C22.0624 22.9219 21.1535 23.7023 20.8849 24.2954C20.8849 24.2954 20.2032 23.8792 20.0276 23.5046C20.0276 23.5046 20.0689 24.0769 20.4924 24.6908C20.4924 24.6908 19.8313 25.4919 19.6867 25.8249C19.5318 26.1579 19.3872 26.3451 19.5008 27.5729C19.5008 27.5729 18.5092 26.574 18.4679 24.6387C18.4266 22.7139 21.9798 21.1011 23.7564 20.9034C23.7564 20.9034 22.8888 20.6433 21.577 21.0387L21.2877 20.3103L21.1328 21.0699C21.1328 21.0699 19.3665 21.4132 18.8604 21.767C18.8604 21.767 19.3149 21.0387 19.2839 19.7277C19.2839 19.7277 21.9901 19.1866 24.1179 20.508C24.1179 20.508 23.901 19.5196 22.1451 18.656C22.1451 18.656 22.1451 18.2294 22.5479 17.782C22.5479 17.782 22.1761 17.834 21.7319 18.1981C21.7319 18.1981 21.0295 17.4594 19.9863 17.2409L20.8126 16.4605C20.8126 16.4605 20.4408 16.6582 20.1722 16.7311C19.8933 16.8039 19.6971 17.0328 19.6971 17.0328C19.6971 17.0328 18.8707 16.5126 17.4763 16.6582C17.4763 16.6582 18.4369 15.5449 19.3355 15.4201C19.3355 15.4201 21.1535 16.0756 22.2174 16.9704L22.2587 16.0443C22.2587 16.0443 24.1902 18.2814 24.5311 20.1855C24.5311 20.1855 25.0682 16.3773 27.0927 15.3992C29.1173 14.4108 30.8835 15.6594 31.5653 16.5438C31.5653 16.5438 30.1812 16.3149 29.2205 16.7311C29.2205 16.7311 28.6215 16.2733 27.9087 16.0652C27.9087 16.0652 28.3736 16.4501 28.5595 16.8871C28.5595 16.8871 27.7848 17.1577 27.1134 17.7715C27.1134 17.7715 26.8655 17.4282 26.2457 17.4386L26.8862 18.1045C26.8862 18.1045 25.502 18.9265 24.9443 20.7057C24.9443 20.7057 27.0101 18.6039 29.5408 18.6768C32.0714 18.7392 32.7325 21.8502 32.7325 21.8502C32.7325 21.8502 31.8751 21.1323 30.4807 21.0179C30.4807 21.0179 30.1915 20.2895 29.6647 19.9982C29.6647 19.9982 29.9849 20.5705 30.0262 20.9554C30.0262 20.9554 29.1586 20.7161 28.0534 20.8098C28.0534 20.8098 27.8571 20.3311 27.4439 19.9982C27.4439 19.9982 27.6505 20.4352 27.6815 20.7994C27.6815 20.7994 26.1011 20.7994 25.5847 20.8826C25.5847 20.8826 28.5801 21.1739 30.4084 23.1509C32.2367 25.1382 31.369 26.8134 30.3671 28.7383C30.3671 28.7383 29.8093 26.7301 29.3032 25.8873C29.3032 25.8873 29.5717 25.1278 29.4581 24.2017C29.4581 24.2017 29.3548 24.8572 28.9933 25.2006C28.9933 25.2006 28.4872 23.8688 27.4336 23.1717C27.4336 23.1717 27.5885 22.4433 27.5782 22.2144C27.5782 22.2144 27.2993 22.5162 26.9791 22.6202C26.9791 22.6202 25.9255 21.5381 24.9959 21.2468C24.9959 21.2468 25.4711 22.7139 25.657 24.3786L25.1612 24.7324L25.719 24.7948C25.719 24.7948 26.0185 27.3544 25.8016 28.9984C25.8016 28.9984 25.4091 29.144 25.0372 29.092L25.7809 29.4562C25.7809 29.4562 25.6776 31.4435 25.1715 33.5245L24.1283 33.5765L25.0062 34.0968C25.0062 34.0968 24.6964 36.1049 23.7874 38.1859L22.6822 38.3731L23.5808 38.5604L23.2813 39.1743H19.9759C20.4511 38.4564 21.5356 36.802 21.8249 36.0529L22.8784 36.1153L22.0521 35.6055C22.0521 35.6055 23.4052 32.151 23.5292 31.3187L24.4691 31.1938L23.6738 30.8608C23.6738 30.8608 24.2419 27.9995 24.2832 26.8134L25.1715 26.6053L24.3039 26.366C24.3039 26.366 24.4381 21.8711 24.2316 21.3404ZM23.3432 39.1743C23.8597 38.3627 24.9546 36.7916 26.1528 36.0321C26.1528 36.0321 24.6551 37.7593 23.9114 39.1743H23.3432ZM24.2109 39.1743C24.686 38.6333 25.3988 37.9986 26.1838 37.8321C26.1838 37.8321 25.3781 38.4252 24.779 39.1743H24.2109ZM25.595 39.1743C25.6363 39.1639 25.688 39.1535 25.7396 39.1535C25.7396 39.1535 25.719 39.1639 25.6983 39.1743H25.595ZM12.5389 39.1743L12.4253 38.935L13.7371 38.4252L12.1981 38.4356C12.1981 38.4356 10.9689 35.0956 10.8553 34.0551L12.5389 33.6806L10.7417 33.5349C10.7417 33.5349 10.0083 29.6851 10.0289 28.3845C10.0289 28.3845 11.0928 28.2596 11.5267 28.0307C11.5267 28.0307 10.752 28.0411 9.98763 27.8642C9.98763 27.8642 9.75006 25.5544 9.79137 22.5058C9.79137 22.5058 10.3388 22.4641 10.7417 22.204C10.7417 22.204 10.0703 22.204 9.8017 22.0375C9.8017 22.0375 9.88434 18.4479 10.0703 17.2097C10.0703 17.2097 10.1012 17.0848 10.2459 17.0016C10.3905 16.9288 11.1135 16.7207 10.8966 15.2848C10.6694 13.8593 9.21294 14.2755 9.21294 14.2755C9.21294 14.2755 8.11805 14.6813 8.52088 16.138C8.52088 16.138 8.15936 16.4293 8.02508 16.6894C8.02508 16.6894 7.30204 16.086 7.1471 15.4825C7.1471 15.4825 7.02315 16.2212 7.64291 17.0224C7.64291 17.0224 5.99024 18.5623 5.79398 19.7069C5.79398 19.7069 4.95732 19.1034 4.47185 18.1877C4.47185 18.1877 4.51317 19.4363 5.43246 20.3832C5.43246 20.3832 3.94506 21.5589 4.92633 24.7116C4.92633 24.7116 1.77593 22.8803 2.40601 18.8953C3.04642 14.9102 9.75006 13.7761 9.75006 13.7761C9.75006 13.7761 10.6694 14.6085 11.4027 14.0778C12.1361 13.5472 12.0121 12.7044 12.0121 12.7044C12.0121 12.7044 13.923 11.2477 17.5279 11.3622C21.1328 11.4766 21.8145 15.1599 22.0314 16.3045C22.0314 16.3045 19.5215 14.9831 18.4369 14.6813C18.4369 14.6813 18.3543 13.1414 17.9411 12.5171C17.9411 12.5171 18.0134 13.6929 17.8894 14.3796C17.8894 14.3796 16.1335 13.7761 15.1625 13.7969C15.1625 13.7969 15.0179 12.7148 14.6254 12.2778C14.6254 12.2778 14.739 13.4015 14.6771 13.7553C14.6771 13.7553 12.8798 13.5264 12.322 13.6929C12.322 13.6929 17.218 15.1911 18.5195 18.2398C19.8313 21.278 17.3213 23.7127 17.3213 23.7127C17.3213 23.7127 16.6293 21.5797 15.9579 20.5809C15.9579 20.5809 16.5983 19.3843 16.7532 18.4791C16.7532 18.4791 16.0818 19.5508 15.5241 19.967C15.5241 19.967 14.6977 18.2502 14.0573 17.5218C14.0573 17.5218 14.5325 16.4605 14.5531 15.8571L13.8094 16.96C13.8094 16.96 12.9934 15.3264 11.4234 14.442C11.4234 14.442 11.1755 17.0016 11.2994 19.0722C11.2994 19.0722 11.0619 19.2386 10.4421 19.145C10.4421 19.145 10.69 19.3947 11.3098 19.3843C11.3098 19.3843 11.8159 23.9936 12.1361 24.9821C12.1361 24.9821 11.4854 25.3151 10.752 25.3671C10.0289 25.4191 12.0741 25.596 12.3014 25.4607C12.3014 25.4607 13.231 29.8412 13.6028 30.9545C13.6028 30.9545 13.3033 31.3395 12.1774 31.4227C12.1774 31.4227 13.231 31.7869 13.8198 31.662C13.8198 31.662 14.9766 35.0956 15.5757 35.876L14.078 36.4899L15.8546 36.3546C15.8546 36.3546 16.8978 38.3523 17.5383 39.1743H12.5389ZM17.6829 39.1743C17.5486 38.3107 17.1251 34.9499 18.4679 32.869C18.4679 32.869 17.3833 37.1246 18.2716 39.1743H17.6829ZM18.3336 39.1743C18.3439 38.6853 18.4472 36.8644 19.3562 36.0737C19.3562 36.0737 18.6331 38.0402 18.8087 39.1743H18.3336ZM9.49183 12.2778C9.49183 12.2778 9.17162 12.8501 9.42985 13.4431C9.42985 13.4431 7.51896 13.516 7.0025 13.6929C7.0025 13.6929 6.74427 13.0373 6.81657 12.2674C6.81657 12.2674 6.38275 12.9229 6.42406 13.7761C6.42406 13.7761 4.43053 13.7865 3.46992 14.4732L2.78819 12.8292C2.78819 12.8292 2.74688 14.2443 2.97412 14.879C2.97412 14.879 1.52803 15.753 1.06322 16.6062C0.608738 17.4594 0.743017 18.5415 0.743017 18.5415C0.743017 18.5415 -1.46743 13.7865 1.84824 11.8512C5.1639 9.91589 9.49183 12.2778 9.49183 12.2778ZM10.783 11.5495C10.783 11.5495 10.1942 11.487 9.77071 11.8408C9.77071 11.8408 9.52281 11.0708 8.68615 10.6442C8.68615 10.6442 8.79977 9.57253 9.02701 9.18755C9.02701 9.18755 8.40726 9.73901 8.29364 10.0095C8.29364 10.0095 7.43632 8.74015 6.45505 8.428C6.45505 8.428 6.7546 7.68926 6.98184 7.48116C6.94052 7.49156 6.1555 7.7725 5.96958 8.24071C5.96958 8.24071 4.916 7.40833 4.38922 7.29387C4.38922 7.29387 5.0193 6.46149 5.44279 6.33663C5.44279 6.33663 4.39954 6.5031 3.94506 7.01294C3.94506 7.01294 2.44733 5.99327 0.825651 6.54472C0.825651 6.54472 3.87276 4.31809 6.71328 5.19209C9.5538 6.0557 10.2355 8.45922 10.783 11.5495ZM11.8159 12.1009C11.8159 12.1009 11.5886 11.7055 11.0928 11.5911C11.0928 11.5911 12.0328 7.32509 15.0593 6.19096C18.0857 5.05683 20.2961 8.06383 20.2961 8.06383C20.2961 8.06383 18.9327 7.59561 17.404 8.46962C17.404 8.46962 16.6809 7.51237 15.8856 7.21063C15.8856 7.21063 16.6396 7.91816 16.7946 8.65691C16.7946 8.65691 15.4311 8.93784 14.6564 9.53091C14.6564 9.53091 13.8611 8.72974 13.2207 8.58407C13.2207 8.58407 14.047 9.32282 14.1193 9.90549C14.1193 9.90549 12.2394 11.539 11.8159 12.1009ZM10.6694 11.82C10.6694 11.82 11.7126 11.7576 11.6919 12.9021C11.6093 14.0154 10.6177 13.8697 10.6177 13.8697C10.6177 13.8697 9.68808 13.7865 9.61578 12.8709C9.62611 11.9552 10.4318 11.7888 10.6694 11.82ZM9.82236 14.5148C9.82236 14.5148 10.7726 14.5356 10.7313 15.7426C10.69 16.9496 9.61578 16.7519 9.59512 16.7519C9.57446 16.7519 8.79977 16.7207 8.65516 15.7218C8.51056 14.7229 9.52281 14.4004 9.82236 14.5148ZM11.5886 14.9935C11.5886 14.9935 11.3821 16.8871 11.5267 17.5947C11.5267 17.5947 12.6319 17.5739 12.6939 16.3981C12.7455 15.2224 11.5886 14.9935 11.5886 14.9935Z" fill="#FEFEFE"/>
<path fill-rule="evenodd" clip-rule="evenodd" d="M13.448 45.4692C18.3957 51.015 25.4402 54.6151 33.3316 55.0001H36.1205C44.012 54.6151 51.0668 51.015 56.0042 45.4692H13.448Z" fill="#2377BF"/>
<path fill-rule="evenodd" clip-rule="evenodd" d="M10.0291 40.7349C10.5455 41.6297 11.1136 42.4933 11.7127 43.3257H57.7395C58.3489 42.4933 58.9067 41.6297 59.4335 40.7349H10.0291Z" fill="#FEFEFE"/>
<path fill-rule="evenodd" clip-rule="evenodd" d="M53.2461 7.36663C54.8265 6.89841 56.4275 7.33542 57.729 9.24991C61.1273 8.19902 62.0672 9.80137 62.0465 10.0199C61.1273 9.92622 58.7102 9.69732 57.5224 11.0499C56.9749 9.81177 55.6631 7.90768 53.2461 7.36663Z" fill="#FEFEFE"/>
<path fill-rule="evenodd" clip-rule="evenodd" d="M54.6302 14.6396C57.605 12.1944 60.1563 11.4245 62.4391 11.695C59.3197 13.1205 56.5618 14.7956 54.8575 17.1887C52.2132 14.6083 49.6516 14.1609 47.1106 14.2026C49.2591 13.2349 51.6141 12.8915 54.6302 14.6396Z" fill="#FEFEFE"/>
<path d="M82.3849 9.99919H82.798L84.43 7.33555C84.5746 7.10664 84.7812 6.99219 85.0498 6.99219H85.5559C85.7625 6.99219 85.8968 7.05462 85.9691 7.16907C86.0311 7.28352 86.0104 7.4396 85.9071 7.61648L84.0375 10.6339L86.2376 13.7553C86.3616 13.9218 86.3926 14.0675 86.3306 14.1923C86.2686 14.3172 86.1344 14.3796 85.9174 14.3796H85.4113C85.1428 14.3796 84.9362 14.2756 84.7916 14.0571L82.8393 11.2998H82.3849V13.8594C82.3849 14.0259 82.3435 14.1507 82.2506 14.2444C82.1679 14.3276 82.0337 14.3796 81.8684 14.3796H81.4139C81.2487 14.3796 81.1247 14.3276 81.0317 14.2444C80.9491 14.1507 80.8975 14.0259 80.8975 13.8594V7.51243C80.8975 7.34595 80.9491 7.21069 81.0317 7.12745C81.1247 7.03381 81.2487 6.99219 81.4139 6.99219H81.8684C82.0337 6.99219 82.1679 7.03381 82.2506 7.12745C82.3435 7.21069 82.3849 7.34595 82.3849 7.51243V9.99919ZM90.5552 6.99219C90.8651 6.99219 91.0614 7.12745 91.1647 7.40838L93.4371 13.7865C93.4991 13.9634 93.4887 14.1091 93.4164 14.2131C93.3441 14.3276 93.2098 14.3796 93.0239 14.3796H92.5178C92.2182 14.3796 92.022 14.234 91.9393 13.953L91.5365 12.7149H88.8716L88.4687 13.953C88.3758 14.234 88.1692 14.3796 87.8593 14.3796H87.3222C87.126 14.3796 86.9917 14.3172 86.909 14.2131C86.8367 14.0987 86.8264 13.953 86.8884 13.7657L89.1608 7.37717C89.2641 7.11705 89.4603 6.99219 89.7702 6.99219H90.5552ZM90.204 8.59453L89.2641 11.4871H91.144L90.204 8.59453ZM96.5152 12.4443C96.5152 13.131 96.3499 13.6305 96.009 13.9426C95.6682 14.2444 95.1621 14.4004 94.47 14.4004C94.4287 14.39 94.3874 14.3692 94.3357 14.338C94.2841 14.3068 94.2221 14.2444 94.1395 14.1507C94.0568 14.0675 94.0155 13.9634 94.0155 13.8698V13.6201C94.0155 13.2767 94.1085 13.0998 94.3047 13.0998C94.5526 13.0998 94.7386 13.0374 94.8522 12.9125C94.9658 12.7877 95.0278 12.5796 95.0278 12.2778V7.51243C95.0278 7.34595 95.0691 7.22109 95.1621 7.12745C95.2447 7.03381 95.379 6.99219 95.5442 6.99219H99.9961C100.161 6.99219 100.285 7.03381 100.378 7.12745C100.461 7.21069 100.502 7.34595 100.502 7.51243V13.8594C100.502 14.0259 100.461 14.1507 100.378 14.2444C100.285 14.3276 100.161 14.3796 99.9961 14.3796H99.5313C99.366 14.3796 99.2421 14.338 99.1491 14.2444C99.0665 14.1507 99.0148 14.0259 99.0148 13.8594V8.29279H96.5152V12.4443ZM107.908 13.8594C107.908 14.0259 107.867 14.1507 107.774 14.2444C107.691 14.3276 107.557 14.3796 107.392 14.3796H107.02C106.855 14.3796 106.731 14.338 106.638 14.2444C106.545 14.1507 106.503 14.0259 106.503 13.8594V9.42692L103.828 14.0259C103.694 14.2652 103.487 14.3796 103.219 14.3796H102.63C102.465 14.3796 102.341 14.3276 102.248 14.2444C102.155 14.1507 102.114 14.0259 102.114 13.8594V7.51243C102.114 7.34595 102.155 7.21069 102.248 7.12745C102.341 7.03381 102.465 6.99219 102.63 6.99219H103.002C103.167 6.99219 103.301 7.03381 103.384 7.12745C103.477 7.21069 103.518 7.34595 103.518 7.51243V11.9657L106.204 7.34595C106.338 7.10664 106.545 6.99219 106.813 6.99219H107.402C107.557 6.99219 107.691 7.03381 107.774 7.12745C107.867 7.21069 107.908 7.34595 107.908 7.51243V13.8594ZM109.52 7.51243C109.52 7.34595 109.571 7.21069 109.654 7.12745C109.747 7.03381 109.871 6.99219 110.036 6.99219H110.501C110.656 6.99219 110.79 7.03381 110.873 7.12745C110.966 7.21069 111.007 7.34595 111.007 7.50202V10.0096H113.827V7.50202C113.827 7.34595 113.868 7.21069 113.961 7.12745C114.054 7.03381 114.178 6.99219 114.343 6.99219H114.798C114.963 6.99219 115.097 7.03381 115.18 7.12745C115.273 7.21069 115.314 7.34595 115.314 7.51243V13.8594C115.314 14.0259 115.273 14.1507 115.18 14.2444C115.097 14.3276 114.963 14.3796 114.798 14.3796H114.343C114.178 14.3796 114.054 14.3276 113.961 14.2444C113.868 14.1507 113.827 14.0259 113.827 13.8594V11.3102H111.007V13.8594C111.007 14.0259 110.966 14.1507 110.873 14.2444C110.79 14.3276 110.656 14.3796 110.501 14.3796H110.036C109.871 14.3796 109.747 14.3276 109.654 14.2444C109.571 14.1507 109.52 14.0259 109.52 13.8594V7.51243ZM122.72 13.8594C122.72 14.0259 122.679 14.1507 122.586 14.2444C122.503 14.3276 122.369 14.3796 122.214 14.3796H121.832C121.667 14.3796 121.543 14.338 121.45 14.2444C121.367 14.1507 121.316 14.0259 121.316 13.8594V9.42692L118.64 14.0259C118.506 14.2652 118.299 14.3796 118.031 14.3796H117.442C117.277 14.3796 117.153 14.3276 117.06 14.2444C116.977 14.1507 116.926 14.0259 116.926 13.8594V7.51243C116.926 7.34595 116.977 7.21069 117.06 7.12745C117.153 7.03381 117.277 6.99219 117.442 6.99219H117.824C117.979 6.99219 118.113 7.03381 118.196 7.12745C118.289 7.21069 118.33 7.34595 118.33 7.51243V11.9657L121.016 7.34595C121.15 7.10664 121.357 6.99219 121.625 6.99219H122.214C122.379 6.99219 122.503 7.03381 122.586 7.12745C122.679 7.21069 122.72 7.34595 122.72 7.51243V13.8594ZM124.332 7.51243C124.332 7.34595 124.383 7.21069 124.466 7.12745C124.559 7.03381 124.683 6.99219 124.848 6.99219H125.313C125.478 6.99219 125.602 7.03381 125.695 7.12745C125.778 7.21069 125.819 7.34595 125.819 7.50202V10.0096H128.639V7.50202C128.639 7.34595 128.691 7.21069 128.773 7.12745C128.866 7.03381 128.99 6.99219 129.155 6.99219H129.62C129.785 6.99219 129.909 7.03381 129.992 7.12745C130.085 7.21069 130.126 7.34595 130.126 7.51243V13.8594C130.126 14.0259 130.085 14.1507 129.992 14.2444C129.909 14.3276 129.785 14.3796 129.62 14.3796H129.155C128.99 14.3796 128.866 14.3276 128.773 14.2444C128.691 14.1507 128.639 14.0259 128.639 13.8594V11.3102H125.819V13.8594C125.819 14.0259 125.778 14.1507 125.695 14.2444C125.602 14.3276 125.478 14.3796 125.313 14.3796H124.848C124.683 14.3796 124.559 14.3276 124.466 14.2444C124.383 14.1507 124.332 14.0259 124.332 13.8594V7.51243ZM131.748 7.51243C131.748 7.34595 131.789 7.21069 131.882 7.12745C131.965 7.03381 132.089 6.99219 132.254 6.99219H135.694C135.859 6.99219 135.983 7.03381 136.076 7.12745C136.159 7.22109 136.21 7.34595 136.21 7.51243V7.77255C136.21 7.93903 136.159 8.06389 136.076 8.15753C135.983 8.24077 135.859 8.29279 135.694 8.29279H133.235V13.8594C133.235 14.0259 133.184 14.1507 133.101 14.2444C133.008 14.338 132.884 14.3796 132.719 14.3796H132.254C132.089 14.3796 131.965 14.3276 131.882 14.2444C131.789 14.1507 131.748 14.0259 131.748 13.8594V7.51243ZM138.679 11.7992V13.8594C138.679 14.0259 138.638 14.1507 138.545 14.2444C138.462 14.3276 138.328 14.3796 138.162 14.3796H137.708C137.543 14.3796 137.419 14.3276 137.326 14.2444C137.233 14.1507 137.191 14.0259 137.191 13.8594V7.51243C137.191 7.34595 137.233 7.21069 137.326 7.12745C137.408 7.03381 137.543 6.99219 137.698 6.99219H139.774C140.548 6.99219 141.168 7.21069 141.633 7.6581C142.108 8.0951 142.335 8.67777 142.335 9.39571C142.335 10.1136 142.108 10.6963 141.643 11.1437C141.168 11.5807 140.559 11.7992 139.784 11.7992H138.679ZM140.848 9.39571C140.848 9.04194 140.745 8.75061 140.538 8.54251C140.332 8.33441 140.042 8.23036 139.66 8.23036H138.679V10.5715H139.66C140.042 10.5715 140.332 10.4674 140.538 10.2489C140.745 10.0408 140.848 9.75988 140.848 9.39571ZM145.92 6.99219C146.229 6.99219 146.426 7.12745 146.529 7.40838L148.801 13.7865C148.863 13.9634 148.853 14.1091 148.781 14.2131C148.708 14.3276 148.574 14.3796 148.388 14.3796H147.882C147.583 14.3796 147.397 14.234 147.304 13.953L146.901 12.7149H144.236L143.833 13.953C143.74 14.234 143.534 14.3796 143.224 14.3796H142.687C142.49 14.3796 142.356 14.3172 142.284 14.2131C142.201 14.0987 142.191 13.953 142.263 13.7657L144.525 7.37717C144.628 7.11705 144.825 6.99219 145.135 6.99219H145.92ZM145.568 8.59453L144.628 11.4871H146.508L145.568 8.59453ZM155.98 15.3265C155.98 15.4929 155.929 15.6178 155.846 15.7114C155.753 15.8051 155.629 15.8467 155.464 15.8467H155.02C154.865 15.8467 154.73 15.8051 154.648 15.7114C154.555 15.6178 154.513 15.4929 154.513 15.3265V14.3796H150.95V15.3265C150.95 15.4929 150.898 15.6178 150.816 15.7114C150.723 15.8051 150.599 15.8467 150.433 15.8467H150C149.834 15.8467 149.7 15.8051 149.617 15.7114C149.524 15.6178 149.483 15.4929 149.483 15.3265V13.6513C149.483 13.4848 149.524 13.36 149.617 13.2663C149.7 13.1727 149.834 13.131 149.989 13.131H150.02C150.599 11.7888 150.898 10.0928 150.898 8.04308V7.51243C150.898 7.34595 150.94 7.22109 151.033 7.12745C151.115 7.03381 151.239 6.99219 151.404 6.99219H154.813C154.978 6.99219 155.102 7.03381 155.195 7.12745C155.278 7.21069 155.329 7.34595 155.329 7.51243V13.131H155.464C155.619 13.131 155.753 13.1727 155.846 13.2663C155.929 13.36 155.98 13.4848 155.98 13.6513V15.3265ZM153.863 13.131V8.24077H152.344C152.344 9.09397 152.272 9.95757 152.148 10.8212C152.014 11.6848 151.818 12.4547 151.57 13.131H153.863Z" fill="#FEFEFE"/>
<path d="M87.6734 24.2328H83.5934C82.7154 24.2328 82.0543 23.9935 81.5895 23.5252C81.1247 23.057 80.8975 22.3807 80.8975 21.5067V20.102C80.8975 19.2176 81.1247 18.5413 81.5895 18.0731C82.0543 17.6049 82.7257 17.376 83.5934 17.376H99.6346C100.513 17.376 101.174 17.6049 101.638 18.0731C102.103 18.5413 102.33 19.2176 102.33 20.102V21.5067C102.33 22.3807 102.103 23.057 101.638 23.5252C101.174 23.9935 100.513 24.2328 99.6346 24.2328H95.5649V43.9395C95.5649 44.8239 95.3376 45.5003 94.8728 45.9581C94.408 46.4263 93.7366 46.6656 92.8586 46.6656H90.3693C89.5017 46.6656 88.8303 46.4263 88.3655 45.9581C87.9006 45.5003 87.6734 44.8239 87.6734 43.9395V24.2328ZM129.589 20.5703L119.993 41.6193C118.475 44.98 115.944 46.6656 112.381 46.6656H110.387C109.52 46.6656 108.848 46.4263 108.394 45.9581C107.929 45.4899 107.691 44.8135 107.691 43.9291V42.5245C107.691 41.6505 107.929 40.9742 108.394 40.5059C108.848 40.0377 109.52 39.7984 110.387 39.7984H110.429C111.513 39.7984 112.277 39.3302 112.732 38.3938L113.372 37.0619L105.791 20.5703C105.367 19.6338 105.336 18.8743 105.708 18.2708C106.08 17.6673 106.782 17.376 107.805 17.376H110.594C112.112 17.376 113.155 18.0731 113.703 19.4882L117.721 29.4872L121.687 19.509C122.255 18.0835 123.288 17.376 124.786 17.376H127.565C128.587 17.376 129.29 17.6673 129.672 18.2708C130.054 18.8743 130.023 19.6338 129.589 20.5703ZM142.273 37.2908V43.9395C142.273 44.8239 142.036 45.4899 141.581 45.9581C141.117 46.4263 140.445 46.6656 139.567 46.6656H137.078C136.2 46.6656 135.539 46.4263 135.074 45.9581C134.609 45.4899 134.382 44.8239 134.382 43.9395V20.0916C134.382 19.2176 134.609 18.5413 135.074 18.0731C135.539 17.6049 136.2 17.376 137.078 17.376H145.61C148.616 17.376 151.095 18.3124 153.047 20.1957C154.999 22.079 155.98 24.4617 155.98 27.3334C155.98 30.2156 154.999 32.5983 153.047 34.4711C151.095 36.344 148.616 37.2908 145.61 37.2908H142.273ZM148.254 27.3334C148.254 26.1993 147.913 25.2837 147.252 24.5761C146.591 23.8686 145.703 23.5252 144.597 23.5252H142.273V31.1416H144.597C145.703 31.1416 146.591 30.7878 147.252 30.0907C147.913 29.3936 148.254 28.4779 148.254 27.3334Z" fill="#DB5510"/>
</g>
<defs>
<linearGradient id="paint0_linear" x1="36.8745" y1="0" x2="36.8745" y2="39.143" gradientUnits="userSpaceOnUse">
<stop stop-color="#FB9409"/>
<stop offset="1" stop-color="#F72D7F"/>
</linearGradient>
<clipPath id="clip0">
<rect width="156" height="55" fill="white"/>
</clipPath>
</defs>
</svg>
