<svg width="178" height="62" fill="none" xmlns="http://www.w3.org/2000/svg"><g clip-path="url(#a)"><path fill-rule="evenodd" clip-rule="evenodd" d="M42.075 0A27.194 27.194 0 0 0 23.7 7.096c.554.528.873.938.873.938a1.753 1.753 0 0 1-.366 2.463 1.724 1.724 0 0 1-1.65.247c-.165-.047-.907-.188-1.838.34l-.036.012c3.996.434 5.375 3.647 5.917 5.7.047.047.082.094.13.13 0 0 .435.503.99 1.29.577-1.01 1.367-1.936 2.427-2.44 1.39-.669 2.723-.704 3.878-.41 1.544.386 2.758 1.395 3.394 2.216a1.762 1.762 0 0 1-.778 2.721c1.886 1.443 2.428 3.941 2.428 3.941a1.758 1.758 0 0 1-1.344 2.1 1.943 1.943 0 0 1-.636.023c1.414 2.463.354 4.516-.86 6.826v.024a1.776 1.776 0 0 1-2.393.739 1.76 1.76 0 0 1-.895-1.114c-.083-.282-.602-2.088-1.014-2.757a1.882 1.882 0 0 1-.224-.586 1.629 1.629 0 0 1-.271-.481h-.012s-.082-.211-.236-.481c.083 1.044.2 2.944 0 4.387 0 .047-.011.082-.011.129v.246c0 .012-.118 2.404-.731 4.903-.035.14-.083.27-.142.387a2.113 2.113 0 0 1-.047.281l-.012.035c.437.106.837.376 1.097.774.377.61.341 1.373-.036 1.924.142.2.26.434.307.704a1.72 1.72 0 0 1-.495 1.595c.011.094.023.176.023.258h32.164a26.907 26.907 0 0 0 6.046-17.03c0-3.496-.672-6.85-1.886-9.923l-.141.105c-1.32.903-2.452 1.912-3.3 3.085a1.774 1.774 0 0 1-2.664.235c-1.285-1.244-2.546-1.971-3.783-2.382-1.25-.41-2.522-.504-3.795-.48a1.775 1.775 0 0 1-1.792-1.725 1.747 1.747 0 0 1 1.05-1.63c1.437-.645 2.946-1.079 4.655-1.056 1.39.012 2.864.317 4.455 1.056a19.53 19.53 0 0 1 1.885-1.231l-.011-.012h-.012a5.845 5.845 0 0 0-1.556-2.112 4.792 4.792 0 0 0-2.074-1.032 1.77 1.77 0 0 1-1.355-2.087 1.756 1.756 0 0 1 1.001-1.232A27.255 27.255 0 0 0 42.074 0zm-26.73 21.816a26.89 26.89 0 0 0-.378 2.405c.189 1.395.412 2.92.566 3.401.023.082.047.164.059.246l.011.024c.071.14.13.293.165.445 0 .024 1.038 4.856 1.427 5.994.047.152.082.293.082.446.083.129.142.258.189.41.106.305.671 1.97 1.166 3.132.213-.786.519-1.548.967-2.217a1.76 1.76 0 0 1 3.182 1.384s-.153.61-.306 1.466c.353.082.683.27.942.563l.06.082.011-.011.036-.094h-.012c.012-.012 1.473-3.706 1.58-4.434.034-.2.093-.375.176-.54l.035-.199c.118-.574.613-3.084.648-4.152 0-.082.012-.152.024-.234a1.329 1.329 0 0 1-.012-.376c.012-.305.036-1.184.06-2.11-.225.21-.508.492-.578.656-.13.305-.342.551-.601.727-.036.047-.06.082-.095.117-.035.06-.636.774-.683.88v.012l-.047.105c-.048.106-.083.188-.012.974a1.768 1.768 0 1 1-3.005 1.408c-.012 0-1.403-1.385-1.65-3.895a1.758 1.758 0 0 1-.837-.469c-.2-.2-.33-.422-.413-.668h-.012c0-.012-.719-2.194-1.343-3.109a1.457 1.457 0 0 1-.189-.351 3.014 3.014 0 0 1-.26-.27c-.07-.106-.14-.211-.188-.329a29.678 29.678 0 0 0-.766-1.419z" fill="url(#b)"/><path d="M27.649 24.056s-1.167.622-2.098 1.502c0 0-.53-.458-.66-.728 0 0 .13.775.283 1.01 0 0-1.037.879-1.344 1.547 0 0-.778-.469-.978-.891 0 0 .047.645.53 1.337 0 0-.754.903-.919 1.279-.177.375-.342.586-.212 1.97 0 0-1.132-1.126-1.179-3.308-.047-2.17 4.007-3.987 6.035-4.21 0 0-.99-.294-2.487.152l-.33-.82-.177.855s-2.015.387-2.593.786c0 0 .519-.82.483-2.299 0 0 3.088-.61 5.516.88 0 0-.247-1.114-2.251-2.088 0 0 0-.48.46-.985 0 0-.425.059-.931.47 0 0-.802-.834-1.992-1.08l.943-.88s-.425.223-.731.305c-.318.082-.542.34-.542.34s-.943-.586-2.534-.422c0 0 1.096-1.255 2.121-1.395 0 0 2.075.738 3.288 1.747l.048-1.044s2.204 2.522 2.593 4.668c0 0 .612-4.293 2.922-5.395 2.31-1.114 4.326.293 5.104 1.29 0 0-1.58-.258-2.676.211 0 0-.683-.516-1.497-.75 0 0 .53.434.743.926 0 0-.884.305-1.65.997 0 0-.283-.387-.99-.375l.73.75s-1.579.927-2.215 2.933c0 0 2.357-2.37 5.245-2.287 2.887.07 3.642 3.577 3.642 3.577s-.979-.81-2.57-.938c0 0-.33-.821-.93-1.15 0 0 .365.645.412 1.08 0 0-.99-.27-2.252-.165 0 0-.223-.54-.695-.915 0 0 .236.493.271.903 0 0-1.803 0-2.392.094 0 0 3.418.329 5.504 2.557 2.086 2.24 1.096 4.129-.047 6.299 0 0-.637-2.264-1.214-3.214 0 0 .306-.856.176-1.9 0 0-.117.739-.53 1.126 0 0-.578-1.502-1.78-2.287 0 0 .177-.821.165-1.08 0 0-.318.34-.683.458 0 0-1.202-1.22-2.263-1.548 0 0 .542 1.654.754 3.53l-.566.399.637.07s.342 2.886.094 4.739c0 0-.448.164-.872.105l.849.411s-.118 2.24-.696 4.586l-1.19.059 1.002.586s-.354 2.264-1.391 4.61l-1.261.21 1.025.212-.341.692h-3.772c.542-.81 1.78-2.674 2.11-3.519l1.202.07-.943-.574s1.544-3.894 1.685-4.833l1.073-.14-.908-.376s.648-3.225.696-4.562l1.013-.235-.99-.27s.153-5.067-.082-5.665zM26.635 44.16c.59-.915 1.839-2.686 3.206-3.542 0 0-1.709 1.947-2.558 3.542h-.648zm.99 0c.542-.61 1.356-1.325 2.251-1.513 0 0-.919.669-1.603 1.513h-.648zm1.58 0a.7.7 0 0 1 .165-.023l-.048.023h-.117zm-14.898 0l-.13-.27 1.497-.575-1.756.012s-1.402-3.765-1.532-4.938l1.921-.422-2.05-.164s-.837-4.34-.814-5.806c0 0 1.214-.14 1.71-.399 0 0-.885.012-1.757-.188 0 0-.271-2.603-.224-6.04 0 0 .625-.047 1.084-.34 0 0-.766 0-1.072-.188 0 0 .094-4.046.306-5.442 0 0 .036-.14.2-.235.166-.082.99-.316.743-1.935-.26-1.607-1.92-1.138-1.92-1.138s-1.25.458-.79 2.1c0 0-.413.328-.566.621 0 0-.825-.68-1.002-1.36 0 0-.141.833.566 1.736 0 0-1.886 1.736-2.11 3.026 0 0-.955-.68-1.509-1.713 0 0 .048 1.408 1.097 2.475 0 0-1.698 1.326-.578 4.88 0 0-3.595-2.065-2.876-6.557.731-4.492 8.38-5.77 8.38-5.77s1.049.938 1.886.34c.837-.599.695-1.549.695-1.549s2.18-1.642 6.294-1.513c4.113.13 4.89 4.281 5.138 5.571 0 0-2.864-1.49-4.101-1.83 0 0-.094-1.735-.566-2.439 0 0 .083 1.325-.059 2.1 0 0-2.003-.68-3.111-.657 0 0-.165-1.22-.613-1.713 0 0 .13 1.267.059 1.666 0 0-2.05-.258-2.687-.07 0 0 5.586 1.688 7.071 5.125 1.497 3.425-1.367 6.17-1.367 6.17s-.79-2.405-1.556-3.53c0 0 .731-1.35.908-2.37 0 0-.766 1.208-1.403 1.677 0 0-.943-1.935-1.673-2.756 0 0 .542-1.197.565-1.877l-.848 1.243s-.931-1.841-2.723-2.838c0 0-.283 2.885-.141 5.22 0 0-.271.187-.978.081 0 0 .283.282.99.27 0 0 .577 5.196.943 6.31 0 0-.743.376-1.58.434-.825.06 1.509.259 1.768.106 0 0 1.06 4.938 1.485 6.193 0 0-.342.434-1.626.528 0 0 1.202.41 1.874.27 0 0 1.32 3.87 2.003 4.75l-1.709.692 2.027-.153s1.19 2.252 1.922 3.179h-5.705zm5.87 0c-.154-.973-.637-4.762.895-7.108 0 0-1.237 4.797-.224 7.108h-.671zm.742 0c.012-.551.13-2.604 1.167-3.495 0 0-.825 2.217-.625 3.495h-.542zM10.83 13.84s-.365.645-.07 1.314c0 0-2.18.082-2.77.281 0 0-.295-.739-.212-1.606 0 0-.495.739-.448 1.7 0 0-2.275.012-3.37.786l-.779-1.853s-.047 1.595.212 2.31c0 0-1.65.986-2.18 1.948-.518.96-.365 2.18-.365 2.18s-2.522-5.36 1.26-7.542c3.784-2.181 8.722.481 8.722.481zm1.474-.82s-.672-.071-1.155.328c0 0-.283-.868-1.238-1.35 0 0 .13-1.207.389-1.641 0 0-.707.621-.837.926 0 0-.978-1.43-2.098-1.782 0 0 .342-.833.601-1.068-.047.012-.942.329-1.155.856 0 0-1.202-.938-1.803-1.067 0 0 .72-.938 1.202-1.079 0 0-1.19.188-1.709.762 0 0-1.709-1.15-3.559-.527 0 0 3.477-2.51 6.718-1.525 3.241.973 4.019 3.683 4.644 7.166zm1.178.62s-.26-.445-.825-.574c0 0 1.073-4.809 4.526-6.087C20.636 5.7 23.158 9.09 23.158 9.09s-1.555-.528-3.3.457c0 0-.825-1.079-1.732-1.419 0 0 .86.798 1.037 1.63 0 0-1.556.317-2.44.986 0 0-.907-.903-1.638-1.068 0 0 .943.833 1.025 1.49 0 0-2.145 1.841-2.628 2.475zm-1.308-.316s1.19-.07 1.167 1.22c-.095 1.255-1.226 1.09-1.226 1.09s-1.06-.093-1.143-1.125a1.14 1.14 0 0 1 1.202-1.185zm-.966 3.038s1.084.024 1.037 1.384c-.047 1.36-1.273 1.138-1.297 1.138-.023 0-.907-.035-1.072-1.161-.165-1.126.99-1.49 1.332-1.361zm2.015.54s-.236 2.134-.07 2.932c0 0 1.26-.024 1.331-1.349.059-1.325-1.261-1.583-1.261-1.583z" fill="#3C3530"/><path fill-rule="evenodd" clip-rule="evenodd" d="M15.344 51.256A32.62 32.62 0 0 0 38.032 62h3.182a32.597 32.597 0 0 0 22.688-10.744H15.344z" fill="#2377BF"/><path fill-rule="evenodd" clip-rule="evenodd" d="M11.443 45.92a34.698 34.698 0 0 0 1.921 2.92h52.518a34.82 34.82 0 0 0 1.933-2.92H11.443zM60.755 8.304c1.803-.528 3.63-.035 5.115 2.123 3.878-1.184 4.95.622 4.927.868-1.05-.105-3.807-.364-5.162 1.161-.625-1.396-2.122-3.542-4.88-4.152zm1.579 8.199c3.395-2.757 6.306-3.624 8.91-3.32-3.559 1.607-6.706 3.496-8.65 6.193-3.017-2.908-5.94-3.413-8.84-3.366 2.452-1.09 5.139-1.478 8.58.493z" fill="#3C3530"/><path d="M94.003 11.272h.472l1.862-3.003a.791.791 0 0 1 .707-.387h.577c.236 0 .39.07.472.2.07.128.047.304-.071.504l-2.133 3.401 2.51 3.519c.142.188.177.352.106.492-.07.141-.224.212-.471.212h-.578c-.306 0-.542-.118-.707-.364l-2.227-3.108h-.519v2.885c0 .188-.047.329-.153.434-.094.094-.248.153-.436.153h-.519a.633.633 0 0 1-.436-.153.626.626 0 0 1-.153-.434V8.468c0-.187.059-.34.153-.434.106-.105.248-.152.436-.152h.519c.188 0 .342.047.436.152.106.094.153.247.153.434v2.804zm9.323-3.39c.353 0 .577.152.695.47l2.593 7.189c.071.2.059.364-.024.48-.082.13-.235.189-.448.189h-.577c-.342 0-.566-.165-.66-.481l-.46-1.396h-3.04l-.46 1.396c-.106.316-.342.48-.695.48h-.613c-.224 0-.377-.07-.472-.187-.082-.13-.094-.293-.023-.504l2.593-7.202c.117-.293.341-.434.695-.434h.896zm-.401 1.806l-1.073 3.26h2.145l-1.072-3.26zm7.201 4.34c0 .774-.188 1.337-.577 1.689-.389.34-.967.516-1.756.516a.567.567 0 0 1-.154-.07 1.157 1.157 0 0 1-.224-.212.457.457 0 0 1-.141-.316v-.282c0-.387.106-.586.33-.586.283 0 .495-.07.625-.211.129-.141.2-.375.2-.716V8.468c0-.187.047-.328.153-.434.094-.105.248-.152.436-.152h5.08c.189 0 .33.047.436.152.094.094.141.247.141.434v7.155c0 .188-.047.329-.141.434a.632.632 0 0 1-.436.153h-.53c-.189 0-.33-.047-.436-.153a.623.623 0 0 1-.154-.434V9.348h-2.852v4.68zm13 1.595c0 .188-.047.329-.153.434a.614.614 0 0 1-.436.153h-.425c-.188 0-.33-.047-.436-.153-.106-.105-.153-.246-.153-.434v-4.996l-3.053 5.184a.747.747 0 0 1-.695.399h-.672a.634.634 0 0 1-.436-.153c-.106-.105-.153-.246-.153-.434V8.468c0-.187.047-.34.153-.434.106-.105.248-.152.436-.152h.425c.188 0 .341.047.436.152.106.094.153.247.153.434v5.02l3.064-5.207a.749.749 0 0 1 .696-.4h.671c.177 0 .33.048.425.153.106.094.153.247.153.434v7.155zm1.839-7.155c0-.187.058-.34.153-.434.106-.105.247-.152.436-.152h.53c.177 0 .33.047.424.152.107.094.154.247.154.423v2.826h3.217V8.457c0-.176.047-.329.153-.423.106-.105.248-.152.436-.152h.519c.189 0 .342.047.436.152.106.094.153.247.153.434v7.155c0 .188-.047.329-.153.434-.094.094-.247.153-.436.153h-.519a.634.634 0 0 1-.436-.153c-.106-.105-.153-.246-.153-.434V12.75h-3.217v2.873c0 .188-.047.329-.154.434a.6.6 0 0 1-.424.153h-.53a.632.632 0 0 1-.436-.153.623.623 0 0 1-.153-.434V8.468zm15.062 7.155c0 .188-.047.329-.153.434a.605.605 0 0 1-.425.153h-.436c-.188 0-.33-.047-.436-.153a.627.627 0 0 1-.153-.434v-4.996l-3.053 5.184a.748.748 0 0 1-.695.399h-.672a.634.634 0 0 1-.436-.153.627.627 0 0 1-.153-.434V8.468c0-.187.059-.34.153-.434.106-.105.248-.152.436-.152h.436c.177 0 .33.047.425.152.106.094.153.247.153.434v5.02l3.064-5.207a.749.749 0 0 1 .696-.4h.671c.189 0 .33.048.425.153.106.094.153.247.153.434v7.155zm1.838-7.155c0-.187.059-.34.154-.434.106-.105.247-.152.436-.152h.53c.189 0 .33.047.436.152.094.094.142.247.142.423v2.826h3.217V8.457c0-.176.059-.329.153-.423.106-.105.248-.152.436-.152h.531c.188 0 .33.047.424.152.106.094.153.247.153.434v7.155c0 .188-.047.329-.153.434a.581.581 0 0 1-.424.153h-.531a.634.634 0 0 1-.436-.153.627.627 0 0 1-.153-.434V12.75h-3.217v2.873c0 .188-.048.329-.142.434a.632.632 0 0 1-.436.153h-.53a.632.632 0 0 1-.436-.153.623.623 0 0 1-.154-.434V8.468zm8.463 0c0-.187.047-.34.153-.434.094-.105.236-.152.424-.152h3.925c.188 0 .33.047.436.152a.627.627 0 0 1 .153.434v.294a.627.627 0 0 1-.153.434.633.633 0 0 1-.436.152h-2.805v6.275a.627.627 0 0 1-.153.434c-.106.106-.248.153-.436.153h-.531a.581.581 0 0 1-.424-.153c-.106-.105-.153-.246-.153-.434V8.468zm7.908 4.833v2.322c0 .188-.047.329-.153.434a.614.614 0 0 1-.436.153h-.519a.634.634 0 0 1-.436-.153c-.106-.105-.153-.246-.153-.434V8.468c0-.187.047-.34.153-.434.094-.105.248-.152.424-.152h2.369c.884 0 1.591.246 2.122.75.542.493.801 1.15.801 1.96 0 .809-.259 1.465-.79 1.97-.542.493-1.237.739-2.121.739h-1.261zm2.475-2.71c0-.398-.118-.727-.354-.961-.235-.235-.565-.352-1.001-.352h-1.12v2.639h1.12c.436 0 .766-.118 1.001-.364.236-.234.354-.551.354-.962zm5.787-2.71c.353 0 .577.153.695.47l2.593 7.19c.071.2.059.364-.023.48-.083.13-.236.189-.448.189h-.578c-.342 0-.554-.165-.66-.481l-.46-1.396h-3.04l-.46 1.396c-.106.316-.342.48-.695.48h-.613c-.224 0-.377-.07-.46-.187-.094-.13-.106-.293-.023-.504l2.581-7.202c.118-.293.342-.434.695-.434h.896zm-.401 1.807l-1.072 3.26h2.145l-1.073-3.26zm11.88 7.589a.627.627 0 0 1-.153.434c-.106.106-.247.152-.436.152h-.507c-.177 0-.33-.046-.424-.152-.106-.106-.153-.246-.153-.434V16.21h-4.066v1.067a.623.623 0 0 1-.154.434c-.106.106-.247.152-.436.152h-.495c-.188 0-.342-.046-.436-.152-.106-.106-.153-.246-.153-.434v-1.888c0-.188.047-.329.153-.434.094-.106.248-.153.424-.153h.036c.66-1.513 1.002-3.425 1.002-5.735v-.599c0-.187.047-.328.153-.434.094-.105.236-.152.424-.152h3.889c.189 0 .33.047.437.152a.608.608 0 0 1 .153.434v6.334h.153c.177 0 .33.047.436.153a.627.627 0 0 1 .153.434v1.888zm-2.416-2.475V9.29h-1.732c0 .962-.083 1.936-.224 2.91a13.596 13.596 0 0 1-.66 2.603h2.616z" fill="#3C3530"/><path d="M100.037 27.317h-4.655c-1.002 0-1.756-.27-2.286-.797-.53-.528-.79-1.29-.79-2.276v-1.583c0-.997.26-1.76.79-2.288.53-.527 1.296-.785 2.286-.785h18.303c1.002 0 1.757.258 2.287.785.53.528.79 1.29.79 2.288v1.583c0 .985-.26 1.748-.79 2.276-.53.527-1.285.797-2.287.797h-4.643v22.215c0 .997-.259 1.76-.79 2.275-.53.528-1.296.798-2.298.798h-2.84c-.99 0-1.757-.27-2.287-.798-.53-.516-.79-1.278-.79-2.275V27.317zm47.827-4.129l-10.949 23.728c-1.732 3.789-4.62 5.689-8.686 5.689h-2.274c-.99 0-1.757-.27-2.275-.798-.531-.527-.802-1.29-.802-2.287v-1.583c0-.985.271-1.748.802-2.276.518-.528 1.285-.797 2.275-.797h.047c1.237 0 2.109-.528 2.628-1.584l.731-1.501-8.651-18.59c-.483-1.056-.519-1.913-.094-2.593.424-.68 1.225-1.008 2.392-1.008h3.182c1.733 0 2.923.785 3.548 2.38l4.584 11.272 4.526-11.248c.648-1.607 1.827-2.404 3.536-2.404h3.17c1.167 0 1.969.328 2.405 1.008.436.68.4 1.537-.095 2.592zm14.473 18.849v7.495c0 .997-.271 1.748-.789 2.275-.531.528-1.297.798-2.298.798h-2.841c-1.002 0-1.756-.27-2.286-.798-.531-.527-.79-1.278-.79-2.275V22.649c0-.985.259-1.748.79-2.276.53-.527 1.284-.785 2.286-.785h9.735c3.43 0 6.259 1.055 8.486 3.178 2.228 2.123 3.347 4.81 3.347 8.046 0 3.25-1.119 5.935-3.347 8.046-2.227 2.112-5.056 3.179-8.486 3.179h-3.807zm6.824-11.225c0-1.278-.388-2.31-1.143-3.108-.754-.797-1.768-1.184-3.029-1.184h-2.652v8.585h2.652c1.261 0 2.275-.399 3.029-1.184.755-.786 1.143-1.819 1.143-3.109z" fill="#DB5510"/></g><defs><linearGradient id="b" x1="42.075" x2="42.075" y2="44.125" gradientUnits="userSpaceOnUse"><stop stop-color="#FB9409"/><stop offset="1" stop-color="#F72D7F"/></linearGradient><clipPath id="a"><path fill="#fff" d="M0 0h178v62H0z"/></clipPath></defs></svg>