<svg width="178" height="62" viewBox="0 0 178 62" fill="none" xmlns="http://www.w3.org/2000/svg">
<g clip-path="url(#clip0)">
<path fill-rule="evenodd" clip-rule="evenodd" d="M42.0745 0C34.9912 0 28.5443 2.68596 23.7004 7.0961C24.2543 7.62391 24.5725 8.03443 24.5725 8.03443C25.15 8.82028 24.9968 9.92282 24.2071 10.4975C23.7121 10.8729 23.0875 10.9432 22.5571 10.7439C22.3921 10.6969 21.6496 10.5562 20.7185 11.084L20.6832 11.0957C24.6786 11.5297 26.0575 14.7435 26.5997 16.7961C26.6468 16.843 26.6822 16.8899 26.7293 16.9251C26.7293 16.9251 27.1654 17.4294 27.7193 18.2153C28.2968 17.2066 29.0865 16.28 30.1472 15.7756C31.5379 15.1071 32.8697 15.0719 34.0248 15.3651C35.5687 15.7522 36.7826 16.7609 37.4191 17.5819C38.0084 18.3443 37.8669 19.4468 37.1009 20.045C36.9594 20.1506 36.7944 20.2444 36.6412 20.3031C38.527 21.7457 39.0691 24.244 39.0691 24.244C39.2812 25.1941 38.6802 26.1324 37.7255 26.3435C37.5134 26.3905 37.2894 26.3905 37.0891 26.367C38.5034 28.8301 37.4427 30.8827 36.2287 33.1933V33.2051V33.2168C35.7691 34.073 34.7083 34.4132 33.8362 33.9557C33.3765 33.7211 33.0701 33.3106 32.9405 32.8415C32.858 32.56 32.3394 30.7537 31.9269 30.0851C31.8208 29.8975 31.7383 29.6981 31.7029 29.4987C31.5851 29.3462 31.4908 29.1937 31.4319 29.0178H31.4201C31.4201 29.0178 31.3376 28.8067 31.1844 28.5369C31.2669 29.5808 31.3847 31.4809 31.1844 32.9236C31.1844 32.9705 31.1726 33.0057 31.1726 33.0526C31.1726 33.1347 31.1726 33.2168 31.1726 33.2989C31.1726 33.3106 31.0547 35.7034 30.4419 38.2017C30.4065 38.3424 30.3594 38.4714 30.3004 38.5887C30.2886 38.6826 30.2769 38.7764 30.2533 38.8702L30.2415 38.9054C30.6776 39.011 31.0783 39.2807 31.3376 39.6795C31.7147 40.2894 31.6794 41.0518 31.3022 41.6031C31.4437 41.8025 31.5615 42.0371 31.6087 42.3069C31.7383 42.905 31.5262 43.5032 31.1137 43.902C31.1254 43.9958 31.1372 44.0779 31.1372 44.16H63.3008C67.0841 39.5036 69.347 33.5804 69.347 27.1294C69.347 23.6341 68.6752 20.2796 67.4612 17.2066L67.3198 17.3121C65.9998 18.2153 64.8683 19.224 64.0197 20.3969C63.454 21.1827 62.3462 21.3587 61.5565 20.7957C61.4858 20.7488 61.4151 20.6901 61.3561 20.6315C60.0715 19.3882 58.8104 18.661 57.5729 18.2505C56.3236 17.84 55.0507 17.7461 53.7778 17.7696C52.8114 17.7813 52.01 17.0072 51.9864 16.0454C51.9746 15.3182 52.4107 14.6848 53.0353 14.4151C54.4732 13.77 55.9818 13.336 57.6907 13.3594C59.0815 13.3712 60.5547 13.6761 62.1458 14.4151C62.7822 13.9459 63.4187 13.5354 64.0315 13.1835L64.0197 13.1718H64.008C63.7369 12.5384 63.2301 11.7174 62.4522 11.0605C61.9101 10.6031 61.2265 10.216 60.3779 10.0284C59.4233 9.81725 58.8222 8.87893 59.0225 7.9406C59.1522 7.36587 59.5293 6.9319 60.0243 6.70904C55.2275 2.53348 48.9456 0 42.0745 0ZM15.3442 21.8161C15.1792 22.602 15.0613 23.4113 14.967 24.2206C15.1556 25.6163 15.3795 27.1411 15.5328 27.622C15.5563 27.7041 15.5799 27.7862 15.5917 27.8683L15.6035 27.8918C15.6742 28.0325 15.7331 28.185 15.7685 28.3375C15.7685 28.361 16.8056 33.1933 17.1946 34.3311C17.2417 34.4835 17.2771 34.6243 17.2771 34.7768C17.3596 34.9058 17.4185 35.0348 17.4656 35.1873C17.5717 35.4922 18.1374 37.1578 18.6324 38.319C18.8446 37.5331 19.151 36.7707 19.5989 36.1022C20.1292 35.2811 21.2135 35.0583 22.0386 35.5861C22.6868 36.0083 22.9578 36.7707 22.7811 37.4862C22.7811 37.4862 22.6278 38.0961 22.4746 38.9523C22.8282 39.0344 23.1582 39.2221 23.4175 39.5153L23.4764 39.5974L23.4882 39.5857L23.5236 39.4919H23.5118C23.5236 39.4801 24.985 35.7855 25.0911 35.0583C25.1264 34.8589 25.1854 34.6829 25.2679 34.5187C25.2797 34.4484 25.2914 34.3897 25.3032 34.3193C25.4211 33.7446 25.9161 31.2346 25.9515 30.1672C25.9515 30.0851 25.9632 30.0148 25.975 29.9327C25.9515 29.8154 25.9515 29.6863 25.9632 29.5573C25.975 29.2524 25.9986 28.3727 26.0222 27.4461C25.7982 27.6572 25.5154 27.9387 25.4447 28.1029C25.315 28.4079 25.1029 28.6542 24.8436 28.8301C24.8082 28.877 24.7847 28.9122 24.7493 28.9474C24.7139 29.0061 24.1129 29.7215 24.0657 29.8271V29.8388L24.0186 29.9444C23.9714 30.0499 23.9361 30.132 24.0068 30.9179C24.0893 31.8914 23.3821 32.7359 22.4039 32.8297C21.8618 32.8767 21.355 32.6773 21.0014 32.3254C20.9896 32.3254 19.5989 30.9414 19.3514 28.4313C19.0449 28.361 18.7503 28.1967 18.5146 27.9622C18.3142 27.7628 18.1846 27.5399 18.1021 27.2936H18.0903C18.0903 27.2819 17.3714 25.1003 16.7467 24.1854C16.6642 24.0798 16.6053 23.9508 16.5581 23.8335C16.4638 23.7514 16.3813 23.6576 16.2988 23.5638C16.2281 23.4582 16.1574 23.3526 16.1103 23.2353C16.0278 23.0711 15.6978 22.426 15.3442 21.8161Z" fill="url(#paint0_linear)"/>
<path d="M27.6488 24.0563C27.6488 24.0563 26.482 24.678 25.5509 25.5576C25.5509 25.5576 25.0205 25.1002 24.8909 24.8304C24.8909 24.8304 25.0205 25.6046 25.1737 25.8391C25.1737 25.8391 24.1366 26.7188 23.8301 27.3874C23.8301 27.3874 23.0523 26.9182 22.8519 26.496C22.8519 26.496 22.8991 27.1411 23.3823 27.8331C23.3823 27.8331 22.628 28.7362 22.463 29.1116C22.2862 29.4869 22.1212 29.698 22.2508 31.0821C22.2508 31.0821 21.1194 29.9561 21.0723 27.7744C21.0251 25.6046 25.0794 23.7866 27.1066 23.5637C27.1066 23.5637 26.1166 23.2705 24.6198 23.7162L24.2898 22.8951L24.113 23.7514C24.113 23.7514 22.0976 24.1384 21.5201 24.5372C21.5201 24.5372 22.0387 23.7162 22.0033 22.2383C22.0033 22.2383 25.0912 21.6284 27.5191 23.118C27.5191 23.118 27.2716 22.0037 25.268 21.0302C25.268 21.0302 25.268 20.5493 25.7277 20.045C25.7277 20.045 25.3034 20.1036 24.7966 20.5141C24.7966 20.5141 23.9951 19.6814 22.8048 19.4351L23.7476 18.5554C23.7476 18.5554 23.3234 18.7782 23.0169 18.8603C22.6987 18.9424 22.4748 19.2005 22.4748 19.2005C22.4748 19.2005 21.5319 18.614 19.9408 18.7782C19.9408 18.7782 21.0369 17.5232 22.0623 17.3825C22.0623 17.3825 24.1366 18.1214 25.3505 19.1301L25.3977 18.0862C25.3977 18.0862 27.6016 20.608 27.9905 22.7544C27.9905 22.7544 28.6034 18.4615 30.9134 17.359C33.2235 16.2447 35.2388 17.6522 36.0167 18.6492C36.0167 18.6492 34.4374 18.3912 33.3413 18.8603C33.3413 18.8603 32.6577 18.3443 31.8445 18.1097C31.8445 18.1097 32.3749 18.5436 32.587 19.0363C32.587 19.0363 31.7031 19.3412 30.937 20.0332C30.937 20.0332 30.6542 19.6462 29.947 19.6579L30.6777 20.4086C30.6777 20.4086 29.0984 21.3352 28.462 23.3408C28.462 23.3408 30.8192 20.9716 33.7067 21.0537C36.5942 21.1241 37.3485 24.6311 37.3485 24.6311C37.3485 24.6311 36.3703 23.8217 34.7792 23.6927C34.7792 23.6927 34.4492 22.8717 33.8481 22.5433C33.8481 22.5433 34.2135 23.1884 34.2606 23.6223C34.2606 23.6223 33.2706 23.3526 32.0095 23.4581C32.0095 23.4581 31.7856 22.9186 31.3142 22.5433C31.3142 22.5433 31.5499 23.0359 31.5852 23.4464C31.5852 23.4464 29.782 23.4464 29.1927 23.5402C29.1927 23.5402 32.6106 23.8687 34.6967 26.0972C36.7828 28.3374 35.7928 30.2258 34.6496 32.3957C34.6496 32.3957 34.0131 30.132 33.4356 29.1819C33.4356 29.1819 33.742 28.3257 33.6124 27.2818C33.6124 27.2818 33.4945 28.0208 33.082 28.4078C33.082 28.4078 32.5045 26.9065 31.3024 26.1206C31.3024 26.1206 31.4792 25.2996 31.4674 25.0416C31.4674 25.0416 31.1492 25.3817 30.7838 25.499C30.7838 25.499 29.5816 24.2792 28.5209 23.9508C28.5209 23.9508 29.0631 25.6046 29.2752 27.4812L28.7095 27.88L29.3459 27.9504C29.3459 27.9504 29.6877 30.8357 29.4402 32.6889C29.4402 32.6889 28.9923 32.8531 28.5681 32.7945L29.4166 33.205C29.4166 33.205 29.2988 35.4453 28.7213 37.7911L27.5309 37.8497L28.5327 38.4362C28.5327 38.4362 28.1791 40.6999 27.142 43.0457L25.8809 43.2569L26.9063 43.468L26.5645 44.16H22.793C23.3351 43.3507 24.5727 41.4858 24.9027 40.6413L26.1048 40.7116L25.1619 40.1369C25.1619 40.1369 26.7059 36.2429 26.8473 35.3045L27.9198 35.1638L27.0123 34.7884C27.0123 34.7884 27.6605 31.5629 27.7077 30.2258L28.7213 29.9912L27.7313 29.7215C27.7313 29.7215 27.8845 24.6545 27.6488 24.0563ZM26.6352 44.16C27.2245 43.2451 28.4738 41.474 29.8409 40.6178C29.8409 40.6178 28.132 42.5648 27.2834 44.16H26.6352ZM27.6252 44.16C28.1673 43.5501 28.9806 42.8346 29.8763 42.6469C29.8763 42.6469 28.957 43.3155 28.2734 44.16H27.6252ZM29.2045 44.16C29.2516 44.1483 29.3106 44.1365 29.3695 44.1365C29.3695 44.1365 29.3459 44.1483 29.3224 44.16H29.2045ZM14.3072 44.16L14.1775 43.8902L15.6743 43.3155L13.9182 43.3272C13.9182 43.3272 12.5157 39.5622 12.3861 38.3893L14.3072 37.967L12.2564 37.8028C12.2564 37.8028 11.4196 33.4631 11.4432 31.9969C11.4432 31.9969 12.6572 31.8562 13.1522 31.5981C13.1522 31.5981 12.2682 31.6099 11.3961 31.4105C11.3961 31.4105 11.125 28.8066 11.1721 25.37C11.1721 25.37 11.7968 25.3231 12.2564 25.0298C12.2564 25.0298 11.4904 25.0298 11.1839 24.8422C11.1839 24.8422 11.2782 20.7956 11.4904 19.3999C11.4904 19.3999 11.5257 19.2591 11.6907 19.1653C11.8557 19.0832 12.6807 18.8486 12.4332 17.23C12.1739 15.6231 10.5121 16.0923 10.5121 16.0923C10.5121 16.0923 9.26283 16.5497 9.72248 18.1918C9.72248 18.1918 9.30998 18.5202 9.15676 18.8134C9.15676 18.8134 8.33175 18.1331 8.15496 17.4528C8.15496 17.4528 8.01353 18.2856 8.72069 19.1887C8.72069 19.1887 6.83495 20.9247 6.61102 22.2149C6.61102 22.2149 5.65636 21.5346 5.10243 20.5024C5.10243 20.5024 5.14957 21.9099 6.19851 22.9772C6.19851 22.9772 4.50135 24.3026 5.62101 27.8566C5.62101 27.8566 2.02632 25.7922 2.74526 21.3C3.47598 16.8077 11.125 15.5293 11.125 15.5293C11.125 15.5293 12.1739 16.4676 13.0107 15.8694C13.8475 15.2712 13.7061 14.3212 13.7061 14.3212C13.7061 14.3212 15.8865 12.6791 19.9997 12.8081C24.113 12.9371 24.8909 17.0892 25.1384 18.3794C25.1384 18.3794 22.2744 16.8898 21.0369 16.5497C21.0369 16.5497 20.9426 14.8138 20.4712 14.1101C20.4712 14.1101 20.5537 15.4354 20.4122 16.2096C20.4122 16.2096 18.4087 15.5293 17.3008 15.5527C17.3008 15.5527 17.1358 14.3329 16.6879 13.8403C16.6879 13.8403 16.8176 15.107 16.7468 15.5058C16.7468 15.5058 14.6961 15.2478 14.0597 15.4354C14.0597 15.4354 19.6462 17.1244 21.1312 20.5611C22.628 23.9859 19.764 26.7306 19.764 26.7306C19.764 26.7306 18.9744 24.3261 18.2083 23.2001C18.2083 23.2001 18.939 21.8513 19.1158 20.8308C19.1158 20.8308 18.3497 22.0389 17.7133 22.5081C17.7133 22.5081 16.7704 20.5728 16.0397 19.7517C16.0397 19.7517 16.5818 18.5554 16.6054 17.8751L15.7568 19.1184C15.7568 19.1184 14.8258 17.2769 13.0343 16.2799C13.0343 16.2799 12.7514 19.1653 12.8929 21.4994C12.8929 21.4994 12.6218 21.687 11.9146 21.5815C11.9146 21.5815 12.1975 21.863 12.9047 21.8513C12.9047 21.8513 13.4822 27.0472 13.8475 28.1615C13.8475 28.1615 13.105 28.5368 12.2682 28.5955C11.4432 28.6541 13.7768 28.8535 14.0361 28.701C14.0361 28.701 15.0968 33.639 15.5211 34.894C15.5211 34.894 15.1793 35.328 13.8947 35.4218C13.8947 35.4218 15.0968 35.8323 15.7686 35.6916C15.7686 35.6916 17.0886 39.5622 17.7722 40.4419L16.0633 41.1339L18.0904 40.9814C18.0904 40.9814 19.2808 43.2334 20.0115 44.16H14.3072ZM20.1765 44.16C20.0233 43.1865 19.5401 39.398 21.0723 37.0522C21.0723 37.0522 19.8347 41.8494 20.8483 44.16H20.1765ZM20.919 44.16C20.9308 43.6087 21.0487 41.5561 22.0858 40.6647C22.0858 40.6647 21.2608 42.8815 21.4612 44.16H20.919ZM10.8304 13.8403C10.8304 13.8403 10.465 14.4854 10.7596 15.1539C10.7596 15.1539 8.57926 15.236 7.98996 15.4354C7.98996 15.4354 7.69532 14.6965 7.77782 13.8286C7.77782 13.8286 7.28281 14.5675 7.32995 15.5293C7.32995 15.5293 5.05529 15.541 3.9592 16.3151L3.18133 14.4619C3.18133 14.4619 3.13419 16.0571 3.39348 16.7726C3.39348 16.7726 1.74346 17.7578 1.2131 18.7196C0.69452 19.6814 0.847736 20.9012 0.847736 20.9012C0.847736 20.9012 -1.67444 15.541 2.10882 13.3594C5.89208 11.1778 10.8304 13.8403 10.8304 13.8403ZM12.3036 13.0192C12.3036 13.0192 11.6318 12.9489 11.1486 13.3477C11.1486 13.3477 10.8657 12.4797 9.91106 11.9988C9.91106 11.9988 10.0407 10.7907 10.3 10.3567C10.3 10.3567 9.59284 10.9784 9.46319 11.2833C9.46319 11.2833 8.48497 9.85239 7.36531 9.50052C7.36531 9.50052 7.7071 8.66775 7.96639 8.43317C7.91925 8.4449 7.02352 8.76158 6.81138 9.28939C6.81138 9.28939 5.60922 8.35107 5.00814 8.22205C5.00814 8.22205 5.72708 7.28372 6.2103 7.14297C6.2103 7.14297 5.01993 7.33063 4.50135 7.90536C4.50135 7.90536 2.7924 6.75591 0.942023 7.37755C0.942023 7.37755 4.41885 4.86752 7.65996 5.85277C10.9011 6.82628 11.6789 9.5357 12.3036 13.0192ZM13.4822 13.6409C13.4822 13.6409 13.2229 13.1952 12.6572 13.0662C12.6572 13.0662 13.7297 8.25723 17.1829 6.97876C20.6362 5.70029 23.1584 9.09 23.1584 9.09C23.1584 9.09 21.6026 8.56219 19.8583 9.54743C19.8583 9.54743 19.0333 8.46836 18.1258 8.12821C18.1258 8.12821 18.9862 8.92579 19.1629 9.75856C19.1629 9.75856 17.6072 10.0752 16.7233 10.7438C16.7233 10.7438 15.8158 9.84066 15.085 9.67645C15.085 9.67645 16.0279 10.5092 16.1104 11.166C16.1104 11.166 13.9654 13.0075 13.4822 13.6409ZM12.1739 13.3242C12.1739 13.3242 13.3643 13.2538 13.3407 14.544C13.2465 15.799 12.115 15.6348 12.115 15.6348C12.115 15.6348 11.0543 15.541 10.9718 14.5088C10.9836 13.4767 11.9029 13.289 12.1739 13.3242ZM11.2075 16.362C11.2075 16.362 12.2918 16.3855 12.2447 17.7461C12.1975 19.1066 10.9718 18.8838 10.9482 18.8838C10.9246 18.8838 10.0407 18.8486 9.8757 17.7226C9.7107 16.5966 10.8657 16.233 11.2075 16.362ZM13.2229 16.9016C13.2229 16.9016 12.9872 19.0363 13.1522 19.8338C13.1522 19.8338 14.4133 19.8104 14.484 18.485C14.5429 17.1596 13.2229 16.9016 13.2229 16.9016Z" fill="#3C3530"/>
<path fill-rule="evenodd" clip-rule="evenodd" d="M15.3442 51.2561C20.9897 57.5077 29.0276 61.566 38.032 62H41.2142C50.2186 61.566 58.2683 57.5077 63.9019 51.2561H15.3442Z" fill="#2377BF"/>
<path fill-rule="evenodd" clip-rule="evenodd" d="M11.4431 45.9194C12.0324 46.9281 12.6806 47.9017 13.3642 48.84H65.882C66.5773 47.9017 67.2138 46.9281 67.8148 45.9194H11.4431Z" fill="#3C3530"/>
<path fill-rule="evenodd" clip-rule="evenodd" d="M60.7551 8.30421C62.5584 7.7764 64.3852 8.26902 65.8702 10.4272C69.7477 9.24254 70.8203 11.0488 70.7967 11.2951C69.7477 11.1896 66.9898 10.9315 65.6345 12.4563C65.0098 11.0605 63.513 8.91412 60.7551 8.30421Z" fill="#3C3530"/>
<path fill-rule="evenodd" clip-rule="evenodd" d="M62.3345 16.5028C65.7288 13.7465 68.6399 12.8785 71.2446 13.1835C67.6853 14.7904 64.5384 16.6787 62.5938 19.3764C59.5766 16.4676 56.6537 15.9633 53.7544 16.0102C56.2059 14.9194 58.893 14.5323 62.3345 16.5028Z" fill="#3C3530"/>
<path d="M94.0031 11.2716H94.4745L96.3367 8.26899C96.5017 8.01095 96.7374 7.88193 97.0438 7.88193H97.6213C97.857 7.88193 98.0103 7.9523 98.0928 8.08132C98.1635 8.21034 98.1399 8.38628 98.022 8.58567L95.8888 11.9871L98.3992 15.5058C98.5406 15.6935 98.576 15.8577 98.5053 15.9985C98.4346 16.1392 98.2813 16.2096 98.0338 16.2096H97.4563C97.1499 16.2096 96.9142 16.0923 96.7492 15.846L94.5216 12.7378H94.0031V15.6231C94.0031 15.8108 93.9559 15.9515 93.8499 16.0571C93.7556 16.1509 93.6024 16.2096 93.4138 16.2096H92.8952C92.7066 16.2096 92.5652 16.1509 92.4591 16.0571C92.3648 15.9515 92.3059 15.8108 92.3059 15.6231V8.46838C92.3059 8.28072 92.3648 8.12824 92.4591 8.03441C92.5652 7.92884 92.7066 7.88193 92.8952 7.88193H93.4138C93.6024 7.88193 93.7556 7.92884 93.8499 8.03441C93.9559 8.12824 94.0031 8.28072 94.0031 8.46838V11.2716ZM103.326 7.88193C103.679 7.88193 103.903 8.03441 104.021 8.35109L106.614 15.541C106.685 15.7404 106.673 15.9046 106.59 16.0219C106.508 16.1509 106.355 16.2096 106.142 16.2096H105.565C105.223 16.2096 104.999 16.0454 104.905 15.7287L104.445 14.3329H101.405L100.945 15.7287C100.839 16.0454 100.603 16.2096 100.25 16.2096H99.6367C99.4128 16.2096 99.2596 16.1392 99.1653 16.0219C99.0828 15.8929 99.071 15.7287 99.1417 15.5176L101.735 8.3159C101.852 8.02268 102.076 7.88193 102.43 7.88193H103.326ZM102.925 9.68821L101.852 12.9489H103.997L102.925 9.68821ZM110.126 14.028C110.126 14.8021 109.938 15.3651 109.549 15.717C109.16 16.0571 108.582 16.233 107.793 16.233C107.745 16.2213 107.698 16.1979 107.639 16.1627C107.58 16.1275 107.51 16.0571 107.415 15.9515C107.321 15.8577 107.274 15.7404 107.274 15.6349V15.3534C107.274 14.9663 107.38 14.7669 107.604 14.7669C107.887 14.7669 108.099 14.6965 108.229 14.5558C108.358 14.415 108.429 14.1805 108.429 13.8403V8.46838C108.429 8.28072 108.476 8.13997 108.582 8.03441C108.676 7.92884 108.83 7.88193 109.018 7.88193H114.098C114.287 7.88193 114.428 7.92884 114.534 8.03441C114.628 8.12824 114.675 8.28072 114.675 8.46838V15.6231C114.675 15.8108 114.628 15.9515 114.534 16.0571C114.428 16.1509 114.287 16.2096 114.098 16.2096H113.568C113.379 16.2096 113.238 16.1627 113.132 16.0571C113.037 15.9515 112.978 15.8108 112.978 15.6231V9.34806H110.126V14.028ZM123.126 15.6231C123.126 15.8108 123.079 15.9515 122.973 16.0571C122.878 16.1509 122.725 16.2096 122.537 16.2096H122.112C121.924 16.2096 121.782 16.1627 121.676 16.0571C121.57 15.9515 121.523 15.8108 121.523 15.6231V10.6265L118.47 15.8108C118.317 16.0806 118.082 16.2096 117.775 16.2096H117.103C116.915 16.2096 116.773 16.1509 116.667 16.0571C116.561 15.9515 116.514 15.8108 116.514 15.6231V8.46838C116.514 8.28072 116.561 8.12824 116.667 8.03441C116.773 7.92884 116.915 7.88193 117.103 7.88193H117.528C117.716 7.88193 117.869 7.92884 117.964 8.03441C118.07 8.12824 118.117 8.28072 118.117 8.46838V13.4884L121.181 8.28072C121.334 8.01095 121.57 7.88193 121.877 7.88193H122.548C122.725 7.88193 122.878 7.92884 122.973 8.03441C123.079 8.12824 123.126 8.28072 123.126 8.46838V15.6231ZM124.965 8.46838C124.965 8.28072 125.023 8.12824 125.118 8.03441C125.224 7.92884 125.365 7.88193 125.554 7.88193H126.084C126.261 7.88193 126.414 7.92884 126.508 8.03441C126.615 8.12824 126.662 8.28072 126.662 8.45665V11.2834H129.879V8.45665C129.879 8.28072 129.926 8.12824 130.032 8.03441C130.138 7.92884 130.28 7.88193 130.468 7.88193H130.987C131.176 7.88193 131.329 7.92884 131.423 8.03441C131.529 8.12824 131.576 8.28072 131.576 8.46838V15.6231C131.576 15.8108 131.529 15.9515 131.423 16.0571C131.329 16.1509 131.176 16.2096 130.987 16.2096H130.468C130.28 16.2096 130.138 16.1509 130.032 16.0571C129.926 15.9515 129.879 15.8108 129.879 15.6231V12.7495H126.662V15.6231C126.662 15.8108 126.615 15.9515 126.508 16.0571C126.414 16.1509 126.261 16.2096 126.084 16.2096H125.554C125.365 16.2096 125.224 16.1509 125.118 16.0571C125.023 15.9515 124.965 15.8108 124.965 15.6231V8.46838ZM140.027 15.6231C140.027 15.8108 139.98 15.9515 139.874 16.0571C139.779 16.1509 139.626 16.2096 139.449 16.2096H139.013C138.825 16.2096 138.683 16.1627 138.577 16.0571C138.483 15.9515 138.424 15.8108 138.424 15.6231V10.6265L135.371 15.8108C135.218 16.0806 134.982 16.2096 134.676 16.2096H134.004C133.816 16.2096 133.674 16.1509 133.568 16.0571C133.474 15.9515 133.415 15.8108 133.415 15.6231V8.46838C133.415 8.28072 133.474 8.12824 133.568 8.03441C133.674 7.92884 133.816 7.88193 134.004 7.88193H134.44C134.617 7.88193 134.77 7.92884 134.865 8.03441C134.971 8.12824 135.018 8.28072 135.018 8.46838V13.4884L138.082 8.28072C138.235 8.01095 138.471 7.88193 138.778 7.88193H139.449C139.638 7.88193 139.779 7.92884 139.874 8.03441C139.98 8.12824 140.027 8.28072 140.027 8.46838V15.6231ZM141.865 8.46838C141.865 8.28072 141.924 8.12824 142.019 8.03441C142.125 7.92884 142.266 7.88193 142.455 7.88193H142.985C143.174 7.88193 143.315 7.92884 143.421 8.03441C143.515 8.12824 143.563 8.28072 143.563 8.45665V11.2834H146.78V8.45665C146.78 8.28072 146.839 8.12824 146.933 8.03441C147.039 7.92884 147.181 7.88193 147.369 7.88193H147.9C148.088 7.88193 148.23 7.92884 148.324 8.03441C148.43 8.12824 148.477 8.28072 148.477 8.46838V15.6231C148.477 15.8108 148.43 15.9515 148.324 16.0571C148.23 16.1509 148.088 16.2096 147.9 16.2096H147.369C147.181 16.2096 147.039 16.1509 146.933 16.0571C146.839 15.9515 146.78 15.8108 146.78 15.6231V12.7495H143.563V15.6231C143.563 15.8108 143.515 15.9515 143.421 16.0571C143.315 16.1509 143.174 16.2096 142.985 16.2096H142.455C142.266 16.2096 142.125 16.1509 142.019 16.0571C141.924 15.9515 141.865 15.8108 141.865 15.6231V8.46838ZM150.328 8.46838C150.328 8.28072 150.375 8.12824 150.481 8.03441C150.575 7.92884 150.717 7.88193 150.905 7.88193H154.83C155.018 7.88193 155.16 7.92884 155.266 8.03441C155.36 8.13997 155.419 8.28072 155.419 8.46838V8.76161C155.419 8.94928 155.36 9.09002 155.266 9.19559C155.16 9.28942 155.018 9.34806 154.83 9.34806H152.025V15.6231C152.025 15.8108 151.966 15.9515 151.872 16.0571C151.766 16.1627 151.624 16.2096 151.436 16.2096H150.905C150.717 16.2096 150.575 16.1509 150.481 16.0571C150.375 15.9515 150.328 15.8108 150.328 15.6231V8.46838ZM158.236 13.3008V15.6231C158.236 15.8108 158.189 15.9515 158.083 16.0571C157.988 16.1509 157.835 16.2096 157.647 16.2096H157.128C156.94 16.2096 156.798 16.1509 156.692 16.0571C156.586 15.9515 156.539 15.8108 156.539 15.6231V8.46838C156.539 8.28072 156.586 8.12824 156.692 8.03441C156.786 7.92884 156.94 7.88193 157.116 7.88193H159.485C160.369 7.88193 161.076 8.12824 161.607 8.63259C162.149 9.12521 162.408 9.78204 162.408 10.5913C162.408 11.4007 162.149 12.0575 161.618 12.5618C161.076 13.0545 160.381 13.3008 159.497 13.3008H158.236ZM160.711 10.5913C160.711 10.1926 160.593 9.86415 160.357 9.62956C160.122 9.39498 159.792 9.27769 159.356 9.27769H158.236V11.9167H159.356C159.792 11.9167 160.122 11.7994 160.357 11.5531C160.593 11.3186 160.711 11.0019 160.711 10.5913ZM166.498 7.88193C166.851 7.88193 167.075 8.03441 167.193 8.35109L169.786 15.541C169.857 15.7404 169.845 15.9046 169.763 16.0219C169.68 16.1509 169.527 16.2096 169.315 16.2096H168.737C168.395 16.2096 168.183 16.0454 168.077 15.7287L167.617 14.3329H164.577L164.117 15.7287C164.011 16.0454 163.775 16.2096 163.422 16.2096H162.809C162.585 16.2096 162.432 16.1392 162.349 16.0219C162.255 15.8929 162.243 15.7287 162.326 15.5176L164.907 8.3159C165.025 8.02268 165.249 7.88193 165.602 7.88193H166.498ZM166.097 9.68821L165.025 12.9489H167.17L166.097 9.68821ZM177.977 17.2769C177.977 17.4646 177.918 17.6053 177.824 17.7109C177.718 17.8165 177.577 17.8634 177.388 17.8634H176.881C176.704 17.8634 176.551 17.8165 176.457 17.7109C176.351 17.6053 176.304 17.4646 176.304 17.2769V16.2096H172.238V17.2769C172.238 17.4646 172.179 17.6053 172.084 17.7109C171.978 17.8165 171.837 17.8634 171.648 17.8634H171.153C170.965 17.8634 170.811 17.8165 170.717 17.7109C170.611 17.6053 170.564 17.4646 170.564 17.2769V15.3886C170.564 15.2009 170.611 15.0601 170.717 14.9546C170.811 14.849 170.965 14.8021 171.141 14.8021H171.177C171.837 13.289 172.179 11.3772 172.179 9.06657V8.46838C172.179 8.28072 172.226 8.13997 172.332 8.03441C172.426 7.92884 172.568 7.88193 172.756 7.88193H176.645C176.834 7.88193 176.975 7.92884 177.082 8.03441C177.176 8.12824 177.235 8.28072 177.235 8.46838V14.8021H177.388C177.565 14.8021 177.718 14.849 177.824 14.9546C177.918 15.0601 177.977 15.2009 177.977 15.3886V17.2769ZM175.561 14.8021V9.28942H173.829C173.829 10.2512 173.746 11.2247 173.605 12.1982C173.451 13.1718 173.228 14.0397 172.945 14.8021H175.561Z" fill="#3C3530"/>
<path d="M100.037 27.317H95.382C94.3802 27.317 93.6259 27.0473 93.0956 26.5195C92.5652 25.9916 92.3059 25.2293 92.3059 24.244V22.6606C92.3059 21.6636 92.5652 20.9012 93.0956 20.3734C93.6259 19.8456 94.392 19.5876 95.382 19.5876H113.685C114.687 19.5876 115.442 19.8456 115.972 20.3734C116.502 20.9012 116.762 21.6636 116.762 22.6606V24.244C116.762 25.2293 116.502 25.9916 115.972 26.5195C115.442 27.0473 114.687 27.317 113.685 27.317H109.042V49.5319C109.042 50.5289 108.783 51.2913 108.252 51.8074C107.722 52.3352 106.956 52.605 105.954 52.605H103.114C102.124 52.605 101.357 52.3352 100.827 51.8074C100.297 51.2913 100.037 50.5289 100.037 49.5319V27.317ZM147.864 23.1884L136.915 46.9164C135.183 50.7049 132.295 52.605 128.229 52.605H125.955C124.965 52.605 124.198 52.3352 123.68 51.8074C123.149 51.2796 122.878 50.5172 122.878 49.5202V47.9368C122.878 46.9515 123.149 46.1891 123.68 45.6613C124.198 45.1335 124.965 44.8638 125.955 44.8638H126.002C127.239 44.8638 128.111 44.336 128.63 43.2803L129.361 41.779L120.71 23.1884C120.227 22.1328 120.191 21.2765 120.616 20.5963C121.04 19.916 121.841 19.5876 123.008 19.5876H126.19C127.923 19.5876 129.113 20.3734 129.738 21.9686L134.322 33.2402L138.848 21.992C139.496 20.3851 140.675 19.5876 142.384 19.5876H145.554C146.721 19.5876 147.523 19.916 147.959 20.5963C148.395 21.2765 148.359 22.1328 147.864 23.1884ZM162.337 42.037V49.5319C162.337 50.5289 162.066 51.2796 161.548 51.8074C161.017 52.3352 160.251 52.605 159.25 52.605H156.409C155.407 52.605 154.653 52.3352 154.123 51.8074C153.592 51.2796 153.333 50.5289 153.333 49.5319V22.6488C153.333 21.6636 153.592 20.9012 154.123 20.3734C154.653 19.8456 155.407 19.5876 156.409 19.5876H166.144C169.574 19.5876 172.403 20.6432 174.63 22.7661C176.858 24.8891 177.977 27.5751 177.977 30.8123C177.977 34.0613 176.858 36.7472 174.63 38.8585C172.403 40.9697 169.574 42.037 166.144 42.037H162.337ZM169.161 30.8123C169.161 29.5338 168.773 28.5017 168.018 27.7041C167.264 26.9065 166.25 26.5195 164.989 26.5195H162.337V35.1052H164.989C166.25 35.1052 167.264 34.7064 168.018 33.9205C168.773 33.1347 169.161 32.1025 169.161 30.8123Z" fill="#DB5510"/>
</g>
<defs>
<linearGradient id="paint0_linear" x1="42.0745" y1="0" x2="42.0745" y2="44.1249" gradientUnits="userSpaceOnUse">
<stop stop-color="#FB9409"/>
<stop offset="1" stop-color="#F72D7F"/>
</linearGradient>
<clipPath id="clip0">
<rect width="178" height="62" fill="white"/>
</clipPath>
</defs>
</svg>
