<svg width="156" height="55" fill="none" xmlns="http://www.w3.org/2000/svg"><g clip-path="url(#a)"><path fill-rule="evenodd" clip-rule="evenodd" d="M36.874 0c-6.207 0-11.857 2.383-16.103 6.295.486.468.765.832.765.832.506.697.372 1.676-.32 2.185a1.496 1.496 0 0 1-1.447.219c-.144-.042-.795-.167-1.61.302l-.032.01c3.502.385 4.71 3.236 5.185 5.057.042.041.073.083.114.114 0 0 .382.448.868 1.145.506-.895 1.198-1.717 2.127-2.164 1.22-.594 2.386-.625 3.399-.365 1.353.344 2.417 1.238 2.974 1.967a1.576 1.576 0 0 1-.278 2.185 1.74 1.74 0 0 1-.403.229c1.652 1.28 2.128 3.496 2.128 3.496a1.56 1.56 0 0 1-1.178 1.862 1.687 1.687 0 0 1-.558.021c1.24 2.185.31 4.006-.754 6.056v.02a1.547 1.547 0 0 1-2.097.656 1.559 1.559 0 0 1-.785-.988c-.072-.25-.526-1.852-.888-2.446a1.679 1.679 0 0 1-.196-.52 1.448 1.448 0 0 1-.238-.426h-.01s-.072-.188-.207-.427c.073.926.176 2.612 0 3.891 0 .042-.01.073-.01.115v.218c0 .01-.103 2.133-.64 4.35a1.735 1.735 0 0 1-.124.343c-.01.083-.021.166-.042.25l-.01.03c.382.094.733.334.96.688.331.54.3 1.217-.03 1.706.124.177.227.385.268.624a1.537 1.537 0 0 1-.434 1.415c.01.084.021.156.021.23h28.188a24.05 24.05 0 0 0 5.3-15.109c0-3.1-.59-6.076-1.653-8.802l-.124.094c-1.157.8-2.149 1.695-2.893 2.736a1.543 1.543 0 0 1-2.334.208c-1.126-1.103-2.231-1.748-3.316-2.112-1.095-.364-2.21-.448-3.326-.427a1.564 1.564 0 0 1-1.57-1.53 1.55 1.55 0 0 1 .92-1.445c1.26-.573 2.582-.958 4.08-.937 1.218.01 2.51.281 3.904.937.558-.417 1.116-.78 1.653-1.093l-.01-.01h-.01a5.183 5.183 0 0 0-1.364-1.873 4.182 4.182 0 0 0-1.818-.916 1.57 1.57 0 0 1-1.188-1.852c.114-.51.444-.895.878-1.092C48.402 2.247 42.896 0 36.874 0zM13.448 19.353a24.143 24.143 0 0 0-.33 2.133c.165 1.238.361 2.59.495 3.017.02.073.042.146.052.219l.01.02c.062.126.114.26.145.396 0 .02.909 4.308 1.25 5.317.041.135.072.26.072.395.072.115.124.23.165.364.093.271.589 1.748 1.023 2.779.186-.698.454-1.374.847-1.967a1.531 1.531 0 0 1 2.138-.458 1.56 1.56 0 0 1 .65 1.686s-.134.54-.268 1.3c.31.073.6.24.826.5l.052.073.01-.01.031-.084h-.01c.01-.01 1.291-3.288 1.384-3.933.031-.177.083-.333.155-.479l.031-.176c.103-.51.537-2.737.568-3.684 0-.073.01-.135.02-.208a1.187 1.187 0 0 1-.01-.333c.01-.27.031-1.05.052-1.873-.196.188-.444.437-.506.583-.114.27-.3.489-.527.645-.03.042-.051.073-.082.104-.031.052-.558.687-.6.78v.01l-.04.095c-.042.093-.073.166-.011.863a1.56 1.56 0 0 1-1.405 1.696 1.539 1.539 0 0 1-1.229-.447c-.01 0-1.23-1.228-1.446-3.455a1.536 1.536 0 0 1-1.095-1.009h-.01c0-.01-.63-1.946-1.178-2.757a1.295 1.295 0 0 1-.165-.312 2.46 2.46 0 0 1-.227-.24 1.644 1.644 0 0 1-.166-.291 27.181 27.181 0 0 0-.671-1.259z" fill="url(#b)"/><path d="M24.232 21.34s-1.023.552-1.839 1.332c0 0-.465-.406-.579-.645 0 0 .114.687.248.895 0 0-.909.78-1.177 1.373 0 0-.682-.416-.857-.79 0 0 .04.572.464 1.186 0 0-.66.8-.805 1.134-.155.333-.3.52-.186 1.748 0 0-.992-.999-1.033-2.934-.041-1.925 3.512-3.538 5.288-3.736 0 0-.867-.26-2.179.136l-.29-.729-.154.76s-1.767.343-2.273.697c0 0 .455-.728.424-2.04 0 0 2.706-.54 4.834.781 0 0-.217-.988-1.973-1.852 0 0 0-.427.403-.874 0 0-.372.052-.816.416 0 0-.703-.739-1.746-.957l.827-.78s-.372.197-.64.27a1.06 1.06 0 0 0-.476.302s-.826-.52-2.22-.375c0 0 .96-1.113 1.858-1.238 0 0 1.819.656 2.882 1.55l.042-.926s1.931 2.237 2.272 4.142c0 0 .537-3.809 2.562-4.787 2.024-.988 3.79.26 4.472 1.145 0 0-1.384-.23-2.345.187 0 0-.598-.458-1.311-.666 0 0 .465.385.65.822 0 0-.774.27-1.446.884 0 0-.247-.343-.867-.332l.64.666s-1.384.822-1.942 2.6c0 0 2.066-2.101 4.597-2.028 2.53.062 3.192 3.173 3.192 3.173s-.858-.718-2.252-.832c0 0-.29-.729-.816-1.02 0 0 .32.572.361.957 0 0-.867-.239-1.973-.145 0 0-.196-.479-.61-.812 0 0 .207.437.238.801 0 0-1.58 0-2.096.084 0 0 2.995.29 4.823 2.268 1.829 1.987.961 3.662-.04 5.587 0 0-.559-2.008-1.065-2.85 0 0 .269-.76.155-1.686 0 0-.103.655-.465.999 0 0-.506-1.332-1.56-2.03 0 0 .155-.728.145-.957 0 0-.279.302-.599.406 0 0-1.053-1.082-1.983-1.373 0 0 .475 1.467.661 3.132l-.496.353.558.063s.3 2.56.083 4.203c0 0-.393.146-.765.094l.744.364s-.103 1.988-.61 4.069l-1.043.052.878.52s-.31 2.008-1.219 4.089l-1.105.187.899.187-.3.614h-3.305c.475-.718 1.56-2.372 1.849-3.121l1.053.062-.826-.51s1.353-3.454 1.477-4.286l.94-.125-.795-.333s.568-2.861.61-4.048l.888-.208-.868-.239s.134-4.495-.072-5.026zm-.889 17.834c.517-.811 1.612-2.382 2.81-3.142 0 0-1.498 1.727-2.242 3.142h-.568zm.868 0c.475-.54 1.188-1.175 1.973-1.342 0 0-.806.593-1.405 1.342h-.568zm1.384 0a.606.606 0 0 1 .145-.02l-.042.02h-.103zm-13.056 0l-.114-.239 1.312-.51-1.539.01s-1.23-3.34-1.343-4.38l1.684-.374-1.797-.146s-.734-3.85-.713-5.15c0 0 1.064-.125 1.498-.354 0 0-.775.01-1.54-.167 0 0-.237-2.31-.196-5.358 0 0 .548-.042.95-.302 0 0-.67 0-.94-.166 0 0 .083-3.59.27-4.828 0 0 .03-.125.175-.208.144-.073.867-.281.65-1.717-.227-1.426-1.683-1.01-1.683-1.01s-1.095.406-.692 1.863c0 0-.362.291-.496.551 0 0-.723-.603-.878-1.207 0 0-.124.74.496 1.54 0 0-1.653 1.54-1.849 2.685 0 0-.837-.604-1.322-1.52 0 0 .041 1.25.96 2.196 0 0-1.487 1.176-.506 4.329 0 0-3.15-1.832-2.52-5.817.64-3.985 7.344-5.119 7.344-5.119s.92.832 1.653.302.61-1.374.61-1.374 1.91-1.456 5.515-1.342c3.605.115 4.287 3.798 4.503 4.943 0 0-2.51-1.322-3.594-1.624 0 0-.083-1.54-.496-2.164 0 0 .072 1.176-.052 1.863 0 0-1.755-.604-2.726-.583 0 0-.145-1.082-.538-1.52 0 0 .114 1.125.052 1.478 0 0-1.797-.229-2.355-.062 0 0 4.896 1.498 6.198 4.547 1.311 3.038-1.199 5.473-1.199 5.473s-.692-2.133-1.363-3.132c0 0 .64-1.197.795-2.102 0 0-.671 1.072-1.229 1.488 0 0-.826-1.717-1.467-2.445 0 0 .476-1.061.496-1.665l-.744 1.103s-.816-1.634-2.386-2.518c0 0-.248 2.56-.124 4.63 0 0-.237.167-.857.073 0 0 .248.25.868.24 0 0 .506 4.609.826 5.597 0 0-.65.333-1.384.385-.723.052 1.322.229 1.55.094 0 0 .929 4.38 1.3 5.494 0 0-.299.385-1.425.468 0 0 1.054.364 1.643.239 0 0 1.157 3.434 1.756 4.214l-1.498.614 1.777-.135s1.043 1.997 1.683 2.82h-5zm5.144 0c-.134-.863-.558-4.224.785-6.305 0 0-1.085 4.256-.196 6.305h-.59zm.65 0c.01-.489.114-2.31 1.023-3.1 0 0-.723 1.966-.547 3.1h-.475zm-8.84-26.896s-.32.572-.062 1.165c0 0-1.911.073-2.427.25 0 0-.259-.656-.186-1.426 0 0-.434.656-.393 1.51 0 0-1.993.01-2.954.696l-.682-1.644s-.041 1.415.186 2.05c0 0-1.446.874-1.91 1.727-.455.853-.321 1.935-.321 1.935s-2.21-4.755 1.105-6.69c3.316-1.935 7.644.427 7.644.427zm1.291-.729s-.589-.062-1.012.292c0 0-.248-.77-1.085-1.197 0 0 .114-1.071.341-1.456 0 0-.62.551-.733.821 0 0-.858-1.269-1.839-1.581 0 0 .3-.739.527-.947-.041.01-.827.292-1.012.76 0 0-1.054-.833-1.58-.947 0 0 .63-.833 1.053-.957 0 0-1.043.166-1.498.676 0 0-1.498-1.02-3.12-.468 0 0 3.048-2.227 5.888-1.353 2.84.864 3.522 3.267 4.07 6.357zm1.033.552s-.227-.396-.723-.51c0 0 .94-4.266 3.966-5.4 3.027-1.134 5.237 1.873 5.237 1.873s-1.363-.468-2.892.406c0 0-.723-.958-1.518-1.26 0 0 .754.708.909 1.447 0 0-1.364.28-2.139.874 0 0-.795-.801-1.435-.947 0 0 .826.739.898 1.321 0 0-1.88 1.634-2.303 2.196zm-1.147-.281s1.044-.062 1.023 1.082c-.083 1.113-1.074.968-1.074.968s-.93-.083-1.002-1a1.004 1.004 0 0 1 1.053-1.05zm-.847 2.695s.95.02.91 1.228c-.042 1.207-1.116 1.009-1.137 1.009-.02 0-.795-.031-.94-1.03-.144-1 .868-1.322 1.167-1.207zm1.767.478s-.207 1.894-.062 2.602c0 0 1.105-.021 1.167-1.197.051-1.176-1.105-1.405-1.105-1.405z" fill="#FEFEFE"/><path fill-rule="evenodd" clip-rule="evenodd" d="M13.448 45.47c4.948 5.545 11.992 9.145 19.884 9.53h2.788c7.892-.385 14.947-3.985 19.884-9.53H13.448z" fill="#2377BF"/><path fill-rule="evenodd" clip-rule="evenodd" d="M10.03 40.735a30.812 30.812 0 0 0 1.683 2.59h46.026a30.944 30.944 0 0 0 1.695-2.59H10.029zM53.246 7.367c1.58-.469 3.181-.032 4.483 1.883 3.398-1.051 4.338.551 4.318.77-.92-.094-3.337-.323-4.525 1.03-.547-1.238-1.859-3.142-4.276-3.683zm1.384 7.273c2.975-2.446 5.526-3.216 7.81-2.945-3.12 1.425-5.878 3.1-7.582 5.494-2.645-2.58-5.206-3.028-7.747-2.986 2.148-.968 4.503-1.311 7.52.437z" fill="#FEFEFE"/><path d="M82.385 10h.413l1.632-2.664a.692.692 0 0 1 .62-.344h.506c.207 0 .34.063.413.177.062.115.041.27-.062.447l-1.87 3.018 2.2 3.121c.125.167.156.313.094.437-.062.125-.197.188-.414.188h-.506a.695.695 0 0 1-.62-.323L82.84 11.3h-.454v2.56c0 .166-.041.29-.134.384a.533.533 0 0 1-.383.136h-.454a.55.55 0 0 1-.382-.136.56.56 0 0 1-.135-.385V7.512c0-.166.052-.301.135-.385.093-.093.217-.135.382-.135h.454c.166 0 .3.042.383.135.093.084.134.219.134.385V10zm8.17-3.008c.31 0 .506.135.61.416l2.272 6.378c.062.177.052.323-.02.427-.073.115-.207.167-.393.167h-.506c-.3 0-.496-.146-.579-.427l-.402-1.238h-2.665l-.403 1.238c-.093.281-.3.427-.61.427h-.537c-.196 0-.33-.063-.413-.167-.072-.114-.083-.26-.02-.447l2.272-6.389c.103-.26.3-.385.61-.385h.784zm-.351 1.603l-.94 2.892h1.88l-.94-2.892zm6.311 3.85c0 .686-.165 1.185-.506 1.498-.34.301-.847.457-1.539.457a.503.503 0 0 1-.134-.062 1.001 1.001 0 0 1-.197-.187.407.407 0 0 1-.123-.281v-.25c0-.343.093-.52.289-.52.248 0 .434-.063.547-.188.114-.124.176-.332.176-.634V7.512c0-.166.041-.29.134-.385.083-.093.217-.135.382-.135h4.452c.165 0 .289.042.382.135.083.084.124.219.124.385v6.347c0 .167-.041.292-.124.385a.55.55 0 0 1-.382.136h-.465c-.165 0-.289-.042-.382-.136a.56.56 0 0 1-.134-.385V8.293h-2.5v4.151zm11.393 1.414c0 .167-.041.292-.134.385a.533.533 0 0 1-.382.136h-.372c-.165 0-.289-.042-.382-.136-.093-.093-.135-.218-.135-.385V9.427l-2.675 4.599a.654.654 0 0 1-.609.354h-.589a.55.55 0 0 1-.382-.136c-.093-.093-.134-.218-.134-.385V7.512c0-.166.041-.301.134-.385.093-.093.217-.135.382-.135h.372c.165 0 .299.042.382.135.093.084.134.219.134.385v4.454l2.686-4.62a.654.654 0 0 1 .609-.354h.589c.155 0 .289.042.372.135.093.084.134.219.134.385v6.347zm1.612-6.347a.54.54 0 0 1 .134-.385c.093-.093.217-.135.382-.135h.465c.155 0 .289.042.372.135.093.084.134.219.134.375v2.508h2.82V7.502c0-.156.041-.291.134-.375.093-.093.217-.135.382-.135h.455c.165 0 .299.042.382.135.093.084.134.219.134.385v6.347c0 .167-.041.292-.134.385a.533.533 0 0 1-.382.136h-.455a.55.55 0 0 1-.382-.136c-.093-.093-.134-.218-.134-.385V11.31h-2.82v2.55c0 .166-.041.29-.134.384a.525.525 0 0 1-.372.136h-.465a.55.55 0 0 1-.382-.136.558.558 0 0 1-.134-.385V7.512zm13.2 6.347c0 .167-.041.292-.134.385a.525.525 0 0 1-.372.136h-.382c-.165 0-.289-.042-.382-.136a.558.558 0 0 1-.134-.385V9.427l-2.676 4.599a.654.654 0 0 1-.609.354h-.589a.55.55 0 0 1-.382-.136.558.558 0 0 1-.134-.385V7.512a.54.54 0 0 1 .134-.385c.093-.093.217-.135.382-.135h.382c.155 0 .289.042.372.135.093.084.134.219.134.385v4.454l2.686-4.62a.654.654 0 0 1 .609-.354h.589c.165 0 .289.042.372.135.093.084.134.219.134.385v6.347zm1.612-6.347a.54.54 0 0 1 .134-.385c.093-.093.217-.135.382-.135h.465c.165 0 .289.042.382.135.083.084.124.219.124.375v2.508h2.82V7.502c0-.156.052-.291.134-.375.093-.093.217-.135.382-.135h.465c.165 0 .289.042.372.135.093.084.134.219.134.385v6.347c0 .167-.041.292-.134.385a.508.508 0 0 1-.372.136h-.465a.55.55 0 0 1-.382-.136.562.562 0 0 1-.134-.385V11.31h-2.82v2.55c0 .166-.041.29-.124.384a.55.55 0 0 1-.382.136h-.465a.55.55 0 0 1-.382-.136.558.558 0 0 1-.134-.385V7.512zm7.416 0c0-.166.041-.301.134-.385.083-.093.207-.135.372-.135h3.44c.165 0 .289.042.382.135a.558.558 0 0 1 .134.385v.26a.558.558 0 0 1-.134.386.55.55 0 0 1-.382.135h-2.459v5.566a.558.558 0 0 1-.134.385c-.093.094-.217.136-.382.136h-.465a.508.508 0 0 1-.372-.136c-.093-.093-.134-.218-.134-.385V7.512zm6.931 4.287v2.06c0 .167-.041.292-.134.385a.534.534 0 0 1-.383.136h-.454a.55.55 0 0 1-.382-.136c-.093-.093-.135-.218-.135-.385V7.512c0-.166.042-.301.135-.385.082-.093.217-.135.372-.135h2.076c.774 0 1.394.219 1.859.666.475.437.702 1.02.702 1.738s-.227 1.3-.692 1.748c-.475.437-1.084.655-1.859.655h-1.105zm2.169-2.403c0-.354-.103-.645-.31-.853-.206-.209-.496-.313-.878-.313h-.981v2.341h.981c.382 0 .672-.104.878-.322.207-.208.31-.49.31-.853zm5.072-2.404c.309 0 .506.135.609.416l2.272 6.378c.062.177.052.323-.02.427-.073.115-.207.167-.393.167h-.506c-.299 0-.485-.146-.578-.427l-.403-1.238h-2.665l-.403 1.238c-.093.281-.299.427-.609.427h-.537c-.197 0-.331-.063-.403-.167-.083-.114-.093-.26-.021-.447l2.262-6.389c.103-.26.3-.385.61-.385h.785zm-.352 1.603l-.94 2.892h1.88l-.94-2.892zm10.412 6.731a.557.557 0 0 1-.134.385c-.093.094-.217.136-.382.136h-.444c-.155 0-.29-.042-.372-.136-.093-.093-.135-.218-.135-.385v-.946h-3.563v.946a.562.562 0 0 1-.134.385c-.093.094-.217.136-.383.136H150c-.166 0-.3-.042-.383-.136-.093-.093-.134-.218-.134-.385v-1.675c0-.166.041-.291.134-.385.083-.093.217-.135.372-.135h.031c.579-1.342.878-3.038.878-5.088v-.53c0-.167.042-.292.135-.386.082-.093.206-.135.371-.135h3.409c.165 0 .289.042.382.135a.54.54 0 0 1 .134.385v5.619h.135c.155 0 .289.042.382.135a.558.558 0 0 1 .134.385v1.675zm-2.117-2.195v-4.89h-1.519c0 .853-.072 1.717-.196 2.58a12.11 12.11 0 0 1-.578 2.31h2.293z" fill="#FEFEFE"/><path d="M87.673 24.233h-4.08c-.878 0-1.539-.24-2.004-.708-.464-.468-.692-1.144-.692-2.018v-1.405c0-.884.228-1.56.692-2.029.465-.468 1.137-.697 2.004-.697h16.042c.878 0 1.539.229 2.003.697.465.468.692 1.145.692 2.029v1.405c0 .874-.227 1.55-.692 2.018-.464.469-1.125.708-2.003.708h-4.07V43.94c0 .884-.227 1.56-.692 2.018-.465.468-1.136.708-2.014.708h-2.49c-.867 0-1.539-.24-2.004-.708-.464-.458-.692-1.134-.692-2.018V24.233zm41.916-3.663l-9.596 21.05c-1.518 3.36-4.049 5.046-7.612 5.046h-1.994c-.867 0-1.539-.24-1.993-.708-.465-.468-.703-1.145-.703-2.029v-1.404c0-.874.238-1.55.703-2.02.454-.467 1.126-.707 1.993-.707h.042c1.084 0 1.848-.468 2.303-1.404l.64-1.332-7.581-16.492c-.424-.936-.455-1.696-.083-2.3.372-.603 1.074-.894 2.097-.894h2.789c1.518 0 2.561.697 3.109 2.112l4.018 10 3.966-9.979c.568-1.425 1.601-2.133 3.099-2.133h2.779c1.022 0 1.725.291 2.107.895.382.603.351 1.363-.083 2.3zm12.684 16.72v6.65c0 .884-.237 1.55-.692 2.018-.464.468-1.136.708-2.014.708h-2.489c-.878 0-1.539-.24-2.004-.708-.465-.468-.692-1.134-.692-2.018V20.092c0-.874.227-1.55.692-2.019.465-.468 1.126-.697 2.004-.697h8.532c3.006 0 5.485.936 7.437 2.82 1.952 1.883 2.933 4.266 2.933 7.137 0 2.883-.981 5.265-2.933 7.138-1.952 1.873-4.431 2.82-7.437 2.82h-3.337zm5.981-9.957c0-1.134-.341-2.05-1.002-2.757-.661-.707-1.549-1.05-2.655-1.05h-2.324v7.616h2.324c1.106 0 1.994-.354 2.655-1.051.661-.697 1.002-1.613 1.002-2.758z" fill="#DB5510"/></g><defs><linearGradient id="b" x1="36.874" x2="36.874" y2="39.143" gradientUnits="userSpaceOnUse"><stop stop-color="#FB9409"/><stop offset="1" stop-color="#F72D7F"/></linearGradient><clipPath id="a"><path fill="#fff" d="M0 0h156v55H0z"/></clipPath></defs></svg>